<svg width="48" height="48" viewBox="0 0 48 48" fill="none" xmlns="http://www.w3.org/2000/svg">
<circle cx="24" cy="24" r="24" fill="#F8F8FA"/>
<path d="M41.3707 14.0811L40.5038 12.5665C40.436 12.448 40.3416 12.3466 40.2285 12.2704C40.115 12.1942 39.9858 12.1451 39.8505 12.127C39.7152 12.1089 39.5774 12.1222 39.4479 12.166C39.3187 12.2097 39.2011 12.2827 39.1045 12.3793L37.1239 14.3598C36.9781 14.5057 36.8874 14.6977 36.8672 14.9029C36.847 15.1082 36.8984 15.3142 37.013 15.4859C37.7365 16.5909 38.3159 17.7839 38.7371 19.0358C39.524 21.375 39.7431 23.868 39.3762 26.3085C39.0093 28.7492 38.0675 31.0676 36.6278 33.0723C35.1882 35.0769 33.2923 36.7102 31.0967 37.8377C28.9011 38.965 26.4689 39.5538 24.0011 39.5557C21.4585 39.5629 18.9536 38.9409 16.7096 37.7456L20.0667 34.3899C21.7482 35.0263 23.5589 35.2451 25.3436 35.0276C27.1283 34.8102 28.8336 34.1627 30.3131 33.1409C31.7923 32.119 33.0014 30.7536 33.8368 29.1615C34.6721 27.5694 35.1085 25.7982 35.1085 24.0003C35.1077 23.6162 35.0863 23.2325 35.0451 22.8504C34.9134 21.5682 34.559 20.3187 33.9978 19.1583C33.935 19.0322 33.8434 18.9228 33.7303 18.8391C33.6171 18.7553 33.4857 18.6995 33.347 18.6763C33.2081 18.6531 33.0656 18.6631 32.9314 18.7055C32.7972 18.748 32.6749 18.8216 32.5748 18.9204L30.5646 20.9304C30.4575 21.0372 30.3795 21.1694 30.338 21.3147C30.2962 21.4602 30.2923 21.6138 30.3266 21.761L30.4957 22.4829C30.7926 23.7463 30.7143 25.0686 30.2705 26.288C29.8266 27.5071 29.0364 28.5704 27.9966 29.3468C26.957 30.1235 25.7133 30.5795 24.4181 30.6592C23.1229 30.7389 21.8326 30.4387 20.7056 29.7954L19.8219 29.2887C19.6525 29.1911 19.4561 29.1521 19.2624 29.1775C19.0687 29.203 18.8889 29.2915 18.7505 29.4296L10.5499 37.6203C10.4604 37.7096 10.3911 37.817 10.3465 37.9354C10.302 38.0538 10.2832 38.1803 10.2914 38.3065C10.2997 38.4326 10.3348 38.5558 10.3945 38.6673C10.4541 38.7788 10.5368 38.8762 10.6372 38.9534L11.8449 39.8795C15.3275 42.5637 19.6041 44.013 24.0011 43.9994C35.0282 43.9994 44.0001 35.0274 44.0001 24.0003C44.0012 20.5216 43.0948 17.1027 41.3707 14.0811Z" fill="url(#paint0_linear_4269_8621)"/>
<path d="M36.1554 8.12011C32.6732 5.43621 28.3971 3.98678 24.0007 4.00009C12.9721 4.00009 4 12.9721 4 24.0005C3.99939 27.4794 4.90565 30.8982 6.62941 33.92L7.49649 35.4343C7.56412 35.5544 7.65875 35.6571 7.77283 35.734C7.88694 35.8112 8.0174 35.8607 8.15389 35.8787C8.29042 35.8967 8.42926 35.8829 8.55948 35.838C8.68966 35.7929 8.80765 35.7185 8.9041 35.6203L10.8832 33.6411C11.029 33.4953 11.1198 33.3033 11.1401 33.0979C11.1603 32.8926 11.1089 32.6868 10.9944 32.5152C10.2713 31.4098 9.69185 30.2167 9.27006 28.9653C8.48314 26.6264 8.2638 24.1339 8.63015 21.6935C8.99652 19.2531 9.93809 16.9348 11.3771 14.9301C12.8161 12.9254 14.7113 11.2917 16.9062 10.1639C19.1012 9.03608 21.5328 8.44653 24.0007 8.44387C26.5427 8.43687 29.0471 9.05872 31.2905 10.254L27.9292 13.6112C26.248 12.9742 24.437 12.755 22.6523 12.9724C20.8674 13.1898 19.1621 13.8373 17.6829 14.8592C16.2035 15.881 14.9943 17.2468 14.1594 18.8391C13.3243 20.4314 12.8884 22.2026 12.889 24.0005C12.889 24.1851 12.9383 25.0268 12.9538 25.1718C13.0896 26.446 13.4439 27.6872 14.001 28.8413C14.0628 28.9694 14.1543 29.0806 14.2679 29.1661C14.3815 29.2514 14.5139 29.3083 14.654 29.3321C14.7941 29.3562 14.9379 29.346 15.0733 29.3031C15.2088 29.2599 15.3319 29.1852 15.4325 29.0848L17.4427 27.0763C17.5501 26.9686 17.6284 26.8353 17.6696 26.6889C17.7111 26.5425 17.7144 26.3881 17.679 26.2401L17.513 25.5237C17.3962 25.0243 17.3367 24.5132 17.3356 24.0005C17.3356 22.834 17.6419 21.6879 18.2241 20.6769C18.8063 19.6659 19.6438 18.8255 20.6527 18.2399C21.6615 17.6543 22.8067 17.3439 23.9733 17.3398C25.1398 17.3358 26.287 17.6382 27.3 18.2168L28.1854 18.7235C28.3545 18.8207 28.5509 18.8596 28.7441 18.8342C28.9375 18.8088 29.1171 18.7204 29.2551 18.5828L37.4503 10.3878C37.5397 10.2982 37.6091 10.1906 37.6537 10.0722C37.6982 9.95371 37.717 9.82709 37.7087 9.70078C37.7004 9.5745 37.6653 9.4514 37.6058 9.33975C37.546 9.22811 37.4633 9.13046 37.3631 9.05335L36.1554 8.12011Z" fill="url(#paint1_linear_4269_8621)"/>
<defs>
<linearGradient id="paint0_linear_4269_8621" x1="16.9476" y1="45.2733" x2="45.1022" y2="17.1185" gradientUnits="userSpaceOnUse">
<stop stop-color="#B090F5"/>
<stop offset="1" stop-color="#5FBFFF"/>
</linearGradient>
<linearGradient id="paint1_linear_4269_8621" x1="4" y1="19.9411" x2="37.7107" y2="19.9411" gradientUnits="userSpaceOnUse">
<stop stop-color="#68D7FA"/>
<stop offset="1" stop-color="#7EF1B3"/>
</linearGradient>
</defs>
</svg>
