<svg width="48" height="48" viewBox="0 0 48 48" fill="none" xmlns="http://www.w3.org/2000/svg">
<circle cx="24" cy="24" r="24" fill="#F8F8FA"/>
<g clip-path="url(#clip0_4270_8625)">
<path fill-rule="evenodd" clip-rule="evenodd" d="M4 24C4 12.954 12.954 4 24 4C35.046 4 44 12.954 44 24C44 24.1727 43.9976 24.3454 43.9927 24.5157C43.9903 24.6884 43.983 24.8587 43.9733 25.029C43.9611 25.3014 43.9416 25.5739 43.9149 25.8439C43.9076 25.9436 43.8979 26.0409 43.8881 26.1381C43.8613 26.379 43.8297 26.6174 43.7957 26.8557H40.9059C41.064 25.9266 41.1443 24.973 41.1443 24C41.1443 14.5327 33.4673 6.85576 24 6.85576C14.5327 6.85576 6.85576 14.5303 6.85576 24C6.85576 33.4697 14.5327 41.1443 24 41.1443H34.304C31.295 42.9564 27.768 44 24 44C12.954 44 4 35.046 4 24ZM12.5745 24.0006C12.5745 17.6906 17.6901 12.5751 24 12.5751C30.3099 12.5751 35.4279 17.6906 35.4279 24.0006C35.4279 24.9857 35.3037 25.9441 35.0679 26.8563H38.0014C38.1887 25.9344 38.286 24.9784 38.286 24.0006C38.286 16.1119 31.891 9.71446 24 9.71446C16.1089 9.71446 9.71633 16.1119 9.71633 24.0006C9.71633 31.8891 16.1114 38.2866 24 38.2866H37.9966C38.8893 37.4133 39.6993 36.4549 40.4144 35.4284H24C17.6901 35.4284 12.5745 30.3129 12.5745 24.0006ZM18.2886 24.0006C18.2886 20.8456 20.845 18.289 24 18.289C27.155 18.289 29.714 20.8456 29.714 24.0006C29.714 25.0417 29.4367 26.0171 28.9477 26.8563H32.0807C32.397 25.9636 32.5697 25.0027 32.5697 24.0006C32.5697 19.2693 28.7337 15.4308 24 15.4308C19.2664 15.4308 15.4303 19.2693 15.4303 24.0006C15.4303 28.7317 19.2689 32.5703 24 32.5703H42.0759C42.5113 31.6556 42.8786 30.702 43.1706 29.7144H24C20.845 29.7144 18.2886 27.1554 18.2886 24.0006Z" fill="#06070A"/>
</g>
<defs>
<clipPath id="clip0_4270_8625">
<rect width="40" height="40" fill="white" transform="translate(4 4)"/>
</clipPath>
</defs>
</svg>
