<svg width="65" height="56" viewBox="0 0 65 56" fill="none" xmlns="http://www.w3.org/2000/svg">
<rect x="0.5" width="64" height="56" rx="28" fill="white"/>
<g clip-path="url(#clip0_548_8521)">
<path d="M51.3777 36.82C51.1703 36.316 50.9628 35.77 50.7554 35.308C50.4235 34.552 50.0915 33.838 49.8011 33.166L49.7596 33.124C46.8969 26.824 43.8266 20.44 40.5905 14.14L40.466 13.888C40.1341 13.258 39.8022 12.586 39.4703 11.914C39.0554 11.158 38.6405 10.36 37.9766 9.604C36.649 7.924 34.7405 7 32.7075 7C30.633 7 28.766 7.924 27.3969 9.52C26.7745 10.276 26.3181 11.074 25.9032 11.83C25.5713 12.502 25.2394 13.174 24.9075 13.804L24.783 14.056C21.5883 20.356 18.4766 26.74 15.6139 33.04L15.5724 33.124C15.282 33.796 14.9501 34.51 14.6181 35.266C14.4107 35.728 14.2033 36.232 13.9958 36.778C13.4564 38.332 13.2905 39.802 13.4979 41.314C13.9543 44.464 16.0288 47.11 18.8915 48.286C19.9703 48.748 21.0905 48.958 22.2522 48.958C22.5841 48.958 22.999 48.916 23.3309 48.874C24.7001 48.706 26.1107 48.244 27.4798 47.446C29.1809 46.48 30.799 45.094 32.6245 43.078C34.4501 45.094 36.1096 46.48 37.7692 47.446C39.1383 48.244 40.549 48.706 41.9181 48.874C42.25 48.916 42.6649 48.958 42.9969 48.958C44.1586 48.958 45.3203 48.748 46.3575 48.286C49.2618 47.11 51.2947 44.422 51.7511 41.314C52.083 39.844 51.9171 38.374 51.3777 36.82ZM32.666 39.004C30.4256 36.148 28.9735 33.46 28.4756 31.192C28.2681 30.226 28.2266 29.386 28.3511 28.63C28.4341 27.958 28.683 27.37 29.0149 26.866C29.8032 25.732 31.1309 25.018 32.666 25.018C34.2011 25.018 35.5703 25.69 36.3171 26.866C36.649 27.37 36.8979 27.958 36.9809 28.63C37.1054 29.386 37.0639 30.268 36.8564 31.192C36.3586 33.418 34.9064 36.106 32.666 39.004ZM49.2203 40.978C48.9298 43.162 47.4777 45.052 45.4447 45.892C44.449 46.312 43.3703 46.438 42.2915 46.312C41.2543 46.186 40.2171 45.85 39.1383 45.22C37.6447 44.38 36.1511 43.078 34.4086 41.146C37.1469 37.744 38.8064 34.636 39.4288 31.864C39.7192 30.562 39.7607 29.386 39.6362 28.294C39.4703 27.244 39.0969 26.278 38.516 25.438C37.2298 23.548 35.0724 22.456 32.666 22.456C30.2596 22.456 28.1022 23.59 26.816 25.438C26.2352 26.278 25.8618 27.244 25.6958 28.294C25.5298 29.386 25.5713 30.604 25.9032 31.864C26.5256 34.636 28.2266 37.786 30.9235 41.188C29.2224 43.12 27.6873 44.422 26.1937 45.262C25.1149 45.892 24.0777 46.228 23.0405 46.354C21.9203 46.48 20.8415 46.312 19.8873 45.934C17.8543 45.094 16.4022 43.204 16.1118 41.02C15.9873 39.97 16.0703 38.92 16.4852 37.744C16.6096 37.324 16.8171 36.904 17.0245 36.4C17.3149 35.728 17.6469 35.014 17.9788 34.3L18.0203 34.216C20.883 27.958 23.9532 21.574 27.1479 15.358L27.2724 15.106C27.6043 14.476 27.9362 13.804 28.2681 13.174C28.6 12.502 28.9735 11.872 29.4298 11.326C30.3011 10.318 31.4628 9.772 32.749 9.772C34.0352 9.772 35.1969 10.318 36.0681 11.326C36.5245 11.872 36.8979 12.502 37.2298 13.174C37.5618 13.804 37.8937 14.476 38.2256 15.106L38.35 15.358C41.5032 21.616 44.5735 28 47.4362 34.258V34.3C47.7681 34.972 48.0586 35.728 48.3905 36.4C48.5979 36.904 48.8054 37.324 48.9298 37.744C49.2618 38.836 49.3862 39.886 49.2203 40.978Z" fill="#FF5A5F"/>
</g>
<defs>
<clipPath id="clip0_548_8521">
<rect width="39" height="42" fill="white" transform="translate(13 7)"/>
</clipPath>
</defs>
</svg>
