<svg width="65" height="64" viewBox="0 0 65 64" fill="none" xmlns="http://www.w3.org/2000/svg">
<rect x="0.5" width="64" height="64" rx="32" fill="#141920"/>
<path d="M45.3939 43.9093C30.8654 50.8237 21.8488 45.0386 16.077 41.5249C15.7198 41.3035 15.1128 41.5767 15.6395 42.1817C17.5624 44.5132 23.864 50.1328 32.0895 50.1328C40.3207 50.1328 45.2174 45.6415 45.83 44.8581C46.4384 44.0812 46.0087 43.6527 45.3937 43.9093H45.3939ZM49.4742 41.6559C49.084 41.1479 47.1018 41.0532 45.8543 41.2064C44.6049 41.3553 42.7295 42.1189 42.8925 42.5773C42.9762 42.7491 43.147 42.6721 44.0053 42.5949C44.8659 42.509 47.277 42.2047 47.7794 42.8615C48.2841 43.5228 47.0104 46.673 46.7778 47.181C46.553 47.6891 46.8636 47.8201 47.2858 47.4817C47.7022 47.1435 48.456 46.2675 48.9618 45.0279C49.4642 43.7815 49.7706 42.0428 49.474 41.6559H49.4742Z" fill="#FF9900"/>
<path fill-rule="evenodd" clip-rule="evenodd" d="M35.6247 29.8013C35.6247 31.6156 35.6706 33.1285 34.7536 34.7397C34.0134 36.0497 32.8411 36.8553 31.5312 36.8553C29.743 36.8553 28.7017 35.4929 28.7017 33.4822C28.7017 29.5131 32.258 28.7927 35.6247 28.7927V29.8013ZM40.3208 41.1519C40.0129 41.4269 39.5675 41.4467 39.2204 41.2632C37.6747 39.9795 37.3996 39.3835 36.5482 38.1587C33.9938 40.7655 32.1861 41.5448 28.872 41.5448C24.9553 41.5448 21.9031 39.128 21.9031 34.2878C21.9031 30.5087 23.9533 27.9347 26.8677 26.6772C29.396 25.5636 32.9262 25.3672 35.6247 25.0595V24.4568C35.6247 23.3499 35.7098 22.04 35.0614 21.0838C34.4915 20.2258 33.4043 19.8721 32.448 19.8721C30.6731 19.8721 29.0881 20.7824 28.7017 22.6687C28.623 23.088 28.3152 23.5006 27.8961 23.5203L23.3768 23.0357C22.997 22.9503 22.5778 22.6426 22.6826 22.0596C23.724 16.5842 28.6688 14.9336 33.0963 14.9336C35.3626 14.9336 38.3229 15.5362 40.1111 17.2523C42.3773 19.3677 42.1611 22.1906 42.1611 25.2624V32.5194C42.1611 34.7005 43.0649 35.6567 43.9163 36.8357C44.2176 37.2548 44.2832 37.7593 43.9032 38.0735C42.9535 38.866 41.2637 40.3397 40.3337 41.165L40.3206 41.1519" fill="white"/>
</svg>
