<svg width="64" height="64" viewBox="0 0 64 64" fill="none" xmlns="http://www.w3.org/2000/svg">
<rect width="64" height="64" rx="32" fill="white"/>
<path d="M46.6901 23.4363C46.4674 23.6091 42.5352 25.8247 42.5352 30.7515C42.5352 36.45 47.5388 38.466 47.6885 38.5159C47.6655 38.6388 46.8936 41.2769 45.0504 43.9649C43.4069 46.3303 41.6904 48.6919 39.0792 48.6919C36.468 48.6919 35.796 47.1751 32.7816 47.1751C29.844 47.1751 28.7995 48.7419 26.4111 48.7419C24.0226 48.7419 22.356 46.5531 20.4399 43.8651C18.2203 40.7086 16.4271 35.8049 16.4271 31.1508C16.4271 23.6859 21.2808 19.7268 26.0578 19.7268C28.596 19.7268 30.7119 21.3934 32.3055 21.3934C33.8223 21.3934 36.1877 19.627 39.0754 19.627C40.1698 19.627 44.102 19.7268 46.6901 23.4363ZM37.7045 16.4667C38.8988 15.0497 39.7436 13.0836 39.7436 11.1175C39.7436 10.8449 39.7205 10.5684 39.6706 10.3457C37.7276 10.4187 35.4159 11.6398 34.0219 13.2564C32.9275 14.5006 31.9061 16.4667 31.9061 18.4596C31.9061 18.7591 31.956 19.0587 31.9791 19.1547C32.1019 19.1777 32.3016 19.2046 32.5013 19.2046C34.2447 19.2046 36.4373 18.0372 37.7045 16.4667Z" fill="black"/>
</svg>
