<svg width="64" height="64" viewBox="0 0 64 64" fill="none" xmlns="http://www.w3.org/2000/svg">
<rect width="64" height="64" rx="32" fill="#1300BC"/>
<path d="M28.4133 27.9865C28.4133 27.9865 28.5613 27.7645 28.6856 27.5956C28.9121 27.2884 29.3216 26.8625 29.6294 26.5986C29.7244 26.5184 29.835 26.4266 29.835 26.4266C29.835 26.4266 29.6609 26.4447 29.5628 26.465C29.3289 26.5107 28.9858 26.7386 28.814 26.8859C28.5313 27.1275 28.2206 27.5212 28.3606 27.8703C28.3815 27.9206 28.4133 27.9865 28.4133 27.9865ZM29.9855 28.4072C30.4323 28.3772 30.8512 28.2476 31.2404 28.0323C31.6226 27.8186 32.1843 27.4019 32.127 26.9111C32.1085 26.7529 32.0052 26.6329 31.8739 26.5767C31.7029 26.5023 31.6142 26.5156 31.3961 26.5795C31.2383 26.6262 31.1674 26.6542 31.0184 26.7397C30.5793 26.9945 29.9583 27.5394 29.6207 27.9747C29.5425 28.0766 29.4636 28.1914 29.4025 28.2696C29.3627 28.3175 29.3331 28.3625 29.3366 28.3747C29.3498 28.4246 29.8106 28.4197 29.9855 28.4072ZM28.8472 29.2432C28.8014 29.291 28.7529 29.4097 28.702 29.4952C28.6751 29.5406 28.6248 29.5992 28.592 29.6223C28.4758 29.7078 28.3777 29.7116 28.2646 29.6129C28.1075 29.4746 28.0167 29.2585 28.0101 29.0491C28.0066 28.9573 28.0216 28.8571 28.0052 28.7789C27.9763 28.6491 27.8457 28.5157 27.7759 28.3911C27.6935 28.2435 27.6268 27.9883 27.6188 27.8235C27.5898 27.309 27.8614 26.8357 28.214 26.4615C28.5686 26.0834 29.0325 25.7693 29.5376 25.556C30.0145 25.3542 30.714 25.2174 31.2379 25.3993C31.4079 25.4579 31.646 25.6031 31.7654 25.7543C31.7905 25.7864 31.8115 25.8213 31.8376 25.8377C31.8603 25.8523 31.9214 25.8583 31.9699 25.867C32.1375 25.896 32.3783 26.0223 32.4764 26.1065C32.673 26.2772 32.7819 26.4402 32.8318 26.6765C32.9323 27.1516 32.6586 27.6734 32.3469 27.9904C31.8125 28.5374 31.2851 28.921 30.6016 29.1891C30.3021 29.3064 29.8347 29.4156 29.494 29.3849C29.3886 29.3762 29.2793 29.3486 29.1767 29.3409C29.1247 29.3364 28.9323 29.2879 28.9121 29.2725C28.8866 29.254 28.8542 29.2366 28.8472 29.2432ZM29.4577 30.2974C29.4783 30.3012 29.5108 30.3106 29.5383 30.3204C29.7778 30.4119 29.8762 30.6339 29.9352 30.8768C30.0721 31.4423 30.1307 32.6923 30.153 33.1828C30.1698 33.5493 30.1789 33.912 30.1942 34.2747C30.2071 34.5822 30.2316 34.9913 30.168 35.28C30.1447 35.3836 30.0755 35.503 29.9761 35.5655C29.8619 35.6381 29.6033 35.6437 29.4612 35.6144C29.1104 35.5418 28.9962 35.3163 28.9467 34.9696C28.8276 34.142 28.8845 32.5178 28.955 31.8322C28.9777 31.6071 29.0636 30.8817 29.1819 30.578C29.2217 30.4747 29.3079 30.2681 29.4577 30.2974ZM18.6533 31.5394C18.6533 31.5394 18.1339 31.576 17.7772 31.6158C17.3224 31.6643 16.4682 31.812 15.976 31.989C15.8276 32.0406 15.5271 32.1666 15.5009 32.3181C15.4744 32.4766 15.5714 32.5991 15.6807 32.7272C15.7435 32.8009 16.0996 33.1433 16.199 33.2268C16.6176 33.5755 17.4658 34.1148 18.0917 34.3766C18.3053 34.4656 18.6607 34.5927 18.6607 34.5927C18.6607 34.5927 18.6341 33.5814 18.6394 32.5855C18.6415 32.0591 18.6533 31.5394 18.6533 31.5394ZM28.1693 31.9418C28.1993 32.2134 28.1288 32.7272 28.1173 32.795C28.0949 32.951 27.9769 33.3109 27.9581 33.3552C27.8628 33.5734 27.7696 33.7538 27.6698 33.9322C27.4994 34.2387 27.0952 34.7243 26.8543 34.9319C25.9614 35.7041 24.5784 36.1439 23.3916 36.2888C22.587 36.3862 21.662 36.3712 20.8085 36.2137C20.5153 36.1596 20.0789 36.0598 20.0789 36.0598C20.0789 36.0598 20.08 36.2343 20.0657 36.3575C20.059 36.4127 20.0165 36.5607 19.9931 36.6085C19.9306 36.7366 19.829 36.8026 19.6814 36.8305C19.5026 36.8647 19.3131 36.8749 19.1476 36.805C18.8767 36.6902 18.779 36.4361 18.7322 36.145C18.6938 35.9104 18.6537 35.503 18.6537 35.503C18.6537 35.503 18.4512 35.4074 18.2819 35.3229C17.7625 35.0667 17.2686 34.7574 16.8375 34.4377C16.7181 34.3494 16.2043 33.9186 16.0905 33.8111C15.7725 33.5105 15.4866 33.2096 15.2688 32.8243C15.0995 32.5234 15.051 32.2556 15.1794 31.9369C15.3574 31.4926 15.9945 31.1571 16.4308 30.9662C16.7516 30.8248 17.7468 30.4998 18.1608 30.4398C18.3559 30.4119 18.6589 30.3581 18.6774 30.3455C18.6851 30.34 18.6907 30.3351 18.6959 30.3284C18.7054 30.3148 18.7214 29.8743 18.7183 29.7137C18.7148 29.5553 18.8356 28.5161 18.8743 28.2965C18.8953 28.1768 18.9853 27.7192 19.0775 27.5994C19.1372 27.5184 19.2436 27.524 19.3302 27.5781C19.8046 27.8724 19.9484 28.8959 19.9836 29.4167C20.0049 29.7336 20.0154 30.2108 20.0154 30.2108C20.0154 30.2108 20.5596 30.1951 20.8947 30.2038C21.2197 30.2119 21.5782 30.2635 21.9161 30.3173C22.3486 30.3857 23.1912 30.5696 23.6743 30.815C24.0726 31.0165 24.4447 31.3568 24.5652 31.7167C24.6776 32.0466 24.6605 32.2741 24.4898 32.5719C24.2981 32.9084 23.9347 33.1576 23.5665 33.1782C23.4565 33.1856 23.0443 33.1304 22.9176 33.0323C22.8673 32.9925 22.8701 32.922 22.9064 32.8742C22.92 32.8567 23.1123 32.7559 23.2265 32.6951C23.2834 32.6641 23.3309 32.6309 23.3748 32.5904C23.4698 32.5063 23.5546 32.4148 23.5452 32.308C23.5319 32.1684 23.385 32.0822 23.2439 32.027C22.5842 31.7652 21.2668 31.547 20.6294 31.5093C20.3802 31.4947 20.0262 31.4821 20.0262 31.4821L20.1009 34.9979C20.1009 34.9979 20.3941 35.0541 20.6249 35.0918C20.7579 35.1114 21.3192 35.162 21.4682 35.1658C22.6044 35.1958 23.8726 35.0946 24.9153 34.6014C25.3729 34.386 25.7928 34.1183 26.1105 33.7556C26.5301 33.2742 26.7496 32.6173 26.6913 31.931C26.6275 31.1798 26.0993 30.2904 25.6783 29.7483C24.5645 28.3154 22.6554 27.138 20.9764 26.4475C19.2614 25.7427 17.567 25.3364 15.7467 25.2687C15.2779 25.2519 14.2544 25.2757 13.7381 25.4188C13.6634 25.4394 13.5894 25.4645 13.5207 25.4792C13.4662 25.4925 13.3817 25.5284 13.358 25.5469C13.3454 25.5584 13.3318 25.572 13.3318 25.572C13.3318 25.572 13.3639 25.5895 13.3943 25.6031C13.4491 25.6272 13.6798 25.6408 13.7992 25.6625C13.9053 25.6827 14.0174 25.7396 14.0607 25.8181C14.1025 25.8921 14.1085 25.9504 14.0579 26.0122C13.9406 26.1557 13.4994 26.1306 13.3056 26.1005C13.1039 26.0677 12.8529 26.0066 12.8065 25.8307C12.7534 25.6237 12.8508 25.4209 12.9573 25.2331C13.1709 24.8578 13.476 24.6624 13.9242 24.5405C14.5595 24.366 15.362 24.2435 15.9624 24.2204C17.3213 24.1698 18.6069 24.4065 19.9229 24.8069C20.6762 25.0341 21.6634 25.4164 22.3849 25.7644C22.9022 26.0136 23.719 26.4737 24.1777 26.7742C24.3222 26.8695 25.1687 27.4912 25.2999 27.6005C25.5743 27.8246 25.9335 28.1468 26.1925 28.4047C26.6952 28.9028 27.3204 29.6659 27.6247 30.2712C27.697 30.4171 27.7542 30.5599 27.8478 30.7278C27.8803 30.785 28.0195 31.1299 28.0426 31.2297C28.0653 31.3282 28.0988 31.473 28.1037 31.4783C28.1106 31.5317 28.1742 31.827 28.1693 31.9418ZM34.0232 32.1974C34.0486 32.1998 34.0549 32.2008 34.0783 32.2043C34.4944 32.2609 34.9021 32.3356 35.2138 32.4752C35.5032 32.6037 35.6735 32.7649 35.8282 33.0536C36.0638 33.491 36.0795 34.1029 35.8666 34.5665C35.7071 34.911 35.358 35.2004 35.0396 35.354C34.7077 35.5145 34.3827 35.5906 34.0085 35.6332C33.3557 35.7048 32.6485 35.57 32.06 35.2852C31.712 35.1152 31.2868 34.8227 31.0721 34.4453C30.9144 34.1682 30.9192 33.809 31.1116 33.5465C31.417 33.1283 32.0715 33.0362 32.5654 33.0536C32.9417 33.0676 33.6182 33.1845 33.976 33.3109C34.0755 33.3468 34.4403 33.4893 34.5038 33.5535C34.5485 33.5996 34.5782 33.6648 34.5579 33.7266C34.4755 33.9762 33.8699 34.1078 33.695 34.134C33.2255 34.2055 32.9826 34.0286 32.4496 33.8181C32.3173 33.7664 32.141 33.7092 32.0055 33.6966C31.764 33.6736 31.4718 33.7402 31.4261 34.0052C31.4024 34.1417 31.5622 34.2687 31.684 34.3214C31.9699 34.4453 32.2024 34.489 32.4845 34.4935C33.3149 34.5061 34.2487 34.3696 34.929 33.8879C35.0229 33.8219 35.1136 33.7242 35.115 33.6017C35.115 33.5859 35.0927 33.454 35.0501 33.4404C35.0438 33.4376 35.0372 33.4407 35.0323 33.4397C35.0166 33.4351 34.9904 33.3922 34.9684 33.3639C34.9196 33.3042 34.7223 33.2194 34.6836 33.203C34.2256 33.0121 33.3795 32.9192 32.9428 32.8833C32.4855 32.8442 31.7661 32.7834 31.5929 32.7583C31.4153 32.7332 31.2219 32.6979 31.0672 32.6284C30.9133 32.5586 30.7618 32.4023 30.7164 32.2295C30.6368 31.9174 30.7391 31.5341 30.9123 31.2842C31.3667 30.6307 32.43 30.3832 33.2255 30.2848C33.9952 30.1888 35.2393 30.1899 35.995 30.5916C36.112 30.6538 36.172 30.7121 36.1469 30.837C36.098 31.0713 35.9207 31.2221 35.7081 31.2884C35.4847 31.3596 35.0215 31.3872 34.8183 31.3997C33.9069 31.451 32.8056 31.4242 31.9382 31.6612C31.8701 31.6807 31.7528 31.7111 31.7141 31.7544C31.5783 31.9017 31.9664 31.9436 32.0499 31.9617C32.0743 31.9666 32.0795 31.9677 32.105 31.9701L34.0232 32.1974ZM36.8663 35.606C36.4984 35.4709 36.415 34.8768 36.3979 34.5762C36.3396 33.5978 36.5982 32.2364 36.9267 31.3194C37.0206 31.0583 37.1557 30.6318 37.4479 30.6559C37.6489 30.6737 37.7924 30.8287 37.9051 30.9878C38.1935 31.3945 38.5726 31.9457 38.8239 32.3293C39.1049 32.7594 39.3747 33.1925 39.64 33.5845C39.6725 33.632 39.7032 33.6781 39.7388 33.7074C39.787 33.7462 39.8302 33.7483 39.8498 33.7123C39.8589 33.6983 39.8414 33.2041 39.8292 33.1049C39.8086 32.9471 39.7992 32.8194 39.7814 32.6833C39.7325 32.2878 39.6065 31.7313 39.5077 31.3551C39.3988 30.9341 39.2658 30.4953 39.1663 30.0879C39.1346 29.9556 39.1049 29.8219 39.1059 29.6959C39.107 29.5137 39.2239 29.4128 39.4138 29.4809C39.788 29.6129 40.284 30.4251 40.4285 30.7072C40.4778 30.8025 40.6726 31.287 40.7162 31.4228C40.8715 31.8881 40.9654 32.3293 41.0084 32.8365C41.0495 33.3294 41.015 34.0474 40.8066 34.5333C40.7301 34.712 40.5731 34.9525 40.4425 35.0737C40.2376 35.2636 39.8292 35.4119 39.5479 35.2513C39.24 35.0768 38.7342 34.2007 38.648 34.0509C38.3544 33.5385 37.8493 32.5363 37.7711 32.4239C37.754 32.3991 37.7317 32.3754 37.6926 32.3635C37.6629 32.3548 37.651 32.4166 37.6433 32.4567C37.5931 32.7485 37.5585 34.1134 37.5578 34.1514C37.5494 34.3811 37.5383 34.9445 37.4719 35.222C37.4287 35.4032 37.3847 35.5519 37.2182 35.628C37.0998 35.6814 37.0098 35.6591 36.8663 35.606ZM41.9383 35.5187C41.8985 35.4884 41.8342 35.4227 41.7875 35.37C41.7801 35.3627 41.6478 35.1644 41.6217 35.1033C41.5986 35.0506 41.5812 35.0126 41.5644 34.9686C41.444 34.6576 41.4471 34.3514 41.5138 34.0174C41.5756 33.7057 41.6342 33.6921 41.7941 33.2641C41.8042 33.2407 41.8091 33.2205 41.8126 33.1946C41.8192 33.136 41.7243 32.7415 41.7187 32.6148C41.7121 32.4215 41.8622 32.2843 42.1135 32.2577C42.1365 32.2556 42.1536 32.256 42.1704 32.2511C42.2706 32.2267 42.3348 32.0347 42.3896 31.8807C42.4661 31.6643 42.5854 31.3345 42.5854 31.3345C42.5854 31.3345 42.2678 31.2612 42.0978 31.1969C41.9079 31.1254 41.7644 31.0329 41.6786 30.8587C41.5756 30.6548 41.6433 30.5417 41.8562 30.4757C41.9344 30.4506 42.5509 30.3323 42.7457 30.3047C42.9886 30.2691 43.2173 30.2387 43.4483 30.2101C43.6494 30.1857 44.5716 30.0789 44.8652 30.0865C45.3127 30.0995 45.6031 30.2838 45.8646 30.6625C46.0053 30.8646 46.1013 31.1048 45.889 31.235C45.563 31.4329 44.5067 31.4479 44.313 31.45C44.0048 31.4531 43.5785 31.4479 43.5785 31.4479L43.3635 32.1666C43.3635 32.1666 44.1203 32.1586 44.5455 32.1569C44.6488 32.1569 44.7521 32.1624 44.8101 32.1747C45.0272 32.2228 45.1022 32.3897 45.1109 32.6302C45.1228 32.9115 45.0698 33.041 44.8457 33.0787C44.7298 33.0972 43.4298 33.1049 43.2536 33.1255C43.1436 33.1374 43.0274 33.1548 43.0274 33.1548C43.0274 33.1548 42.9335 33.3999 42.8518 33.6474C42.7694 33.9053 42.6989 34.1682 42.6989 34.1682C42.6989 34.1682 42.7649 34.171 42.8197 34.171C42.9111 34.1717 43.004 34.1584 43.0766 34.1458C43.4731 34.0732 44.0627 33.986 44.5465 33.9099C44.8066 33.8683 44.9375 33.8498 45.0743 34.0223C45.1926 34.1748 45.2541 34.3026 45.2624 34.4869C45.2698 34.6604 45.1375 34.7752 44.9759 34.8988C44.4645 35.2897 43.5904 35.7135 42.939 35.7861C42.6381 35.82 42.5648 35.7865 42.3013 35.7177C42.251 35.7048 42.0688 35.6196 42.0706 35.6105C42.0706 35.6105 41.9718 35.5449 41.9383 35.5187ZM50.1567 31.9066C49.8216 32.1872 49.3888 32.7594 49.1821 33.0564C48.906 33.4502 48.6463 33.9012 48.3978 34.2506C48.3444 34.3291 48.1841 34.6101 48.1897 34.6195C48.2009 34.6394 48.3622 34.6331 48.528 34.6052C48.8809 34.5459 49.3608 34.298 49.6171 34.0935C50.0077 33.7804 50.2796 33.3503 50.4081 32.8473C50.465 32.6187 50.4939 32.1394 50.332 31.9261C50.3002 31.8853 50.2192 31.8532 50.1567 31.9066ZM47.4954 36.0158C47.4954 36.0158 47.3893 36.3272 47.3115 36.5715C47.1771 36.9932 46.8814 38.1287 46.813 38.4816C46.71 39.0052 46.4168 40.3774 46.4018 40.4067C46.3812 40.4465 46.3676 40.4591 46.318 40.4909C46.1972 40.5617 46.1487 40.5383 46.0025 40.4601C45.8126 40.3603 45.6457 40.2584 45.5033 40.0702C45.2171 39.6985 45.2855 38.9989 45.3413 38.5884C45.5379 37.1527 45.7365 36.5213 46.2828 35.0922C46.2918 35.0677 46.2918 35.0622 46.2807 35.0405C46.1103 34.6778 46.0185 34.2397 46.0185 33.8858C46.0199 32.7656 46.6636 31.6573 47.3855 30.7672C47.4399 30.6995 47.7942 30.275 47.9552 30.2834C48.1164 30.2911 48.1426 30.4792 48.1185 30.6363C48.0375 31.1536 47.6735 31.6807 47.4246 32.1171C47.1446 32.6047 47.0839 32.8054 46.947 33.2526C46.9251 33.3224 46.8703 33.6491 46.8727 33.691C46.8783 33.8111 46.9045 33.9626 46.9045 33.9626C46.9045 33.9626 47.3596 33.3252 47.6602 32.9318C47.8242 32.7157 47.9422 32.5729 48.0791 32.419C48.2177 32.2626 48.7514 31.708 48.905 31.5617C49.2279 31.2535 49.371 31.1254 49.72 30.9442C49.9968 30.8011 50.2454 30.7655 50.5152 30.9438C50.9432 31.2248 51.1296 31.8193 51.1777 32.3014C51.2339 32.8773 51.1163 33.5252 50.8622 34.0184C50.5609 34.607 50.1494 35.0307 49.5898 35.4014C49.0177 35.7805 48.3465 36.0385 47.6881 36.0231C47.5991 36.021 47.4954 36.0158 47.4954 36.0158Z" fill="white"/>
</svg>
