<svg width="64" height="64" viewBox="0 0 64 64" fill="none" xmlns="http://www.w3.org/2000/svg">
<rect width="64" height="64" rx="32" fill="white"/>
<g clip-path="url(#clip0_548_8515)">
<path d="M15.7003 26.8584C12.599 26.8584 10.0146 28.1742 10.0146 32.1437C10.0146 35.2885 11.7524 37.2689 15.7804 37.2689C20.5216 37.2689 20.8255 34.1458 20.8255 34.1458H18.5282C18.5282 34.1458 18.0356 35.8275 15.6403 35.8275C13.6893 35.8275 12.2861 34.5095 12.2861 32.6623H21.0658V31.5031C21.0658 29.6756 19.9056 26.8584 15.7003 26.8584ZM15.6203 28.3399C17.4774 28.3399 18.7434 29.4776 18.7434 31.1828H12.3369C12.3369 29.3725 13.9895 28.3399 15.6203 28.3399Z" fill="#E53238"/>
<path d="M21.0643 23.0146V35.2755C21.0643 35.9715 21.0146 36.9487 21.0146 36.9487H23.2057C23.2057 36.9487 23.2844 36.2469 23.2844 35.6055C23.2844 35.6055 24.367 37.2991 27.3106 37.2991C30.4103 37.2991 32.5158 35.147 32.5158 32.0638C32.5158 29.1955 30.5818 26.8886 27.3156 26.8886C24.257 26.8886 23.3065 28.5402 23.3065 28.5402V23.0146H21.0643ZM26.75 28.4051C28.855 28.4051 30.1935 29.9673 30.1935 32.0638C30.1935 34.3119 28.6475 35.7826 26.765 35.7826C24.5184 35.7826 23.3065 34.0284 23.3065 32.0838C23.3065 30.2718 24.394 28.4051 26.75 28.4051Z" fill="#0064D2"/>
<path d="M37.9612 26.8584C33.2954 26.8584 32.9962 29.4132 32.9962 29.8214H35.3185C35.3185 29.8214 35.4403 28.3299 37.801 28.3299C39.3351 28.3299 40.5238 29.032 40.5238 30.382V30.8624H37.801C34.1864 30.8624 32.2755 31.9199 32.2755 34.0657C32.2755 36.1775 34.0411 37.3265 36.4271 37.3265C39.679 37.3265 40.7265 35.5297 40.7265 35.5297C40.7265 36.2443 40.7816 36.9486 40.7816 36.9486H42.8461C42.8461 36.9486 42.7661 36.0756 42.7661 35.5171V30.6898C42.7661 27.5245 40.213 26.8584 37.9612 26.8584ZM40.5238 32.3039V32.9445C40.5238 33.7801 40.0082 35.8575 36.9727 35.8575C35.3105 35.8575 34.5978 35.0279 34.5978 34.0657C34.5978 32.3152 36.9978 32.3039 40.5238 32.3039Z" fill="#F5AF02"/>
<path d="M41.5156 27.2598H44.1283L47.8778 34.7716L51.6187 27.2598H53.9854L47.1713 40.6333H44.6888L46.6551 36.9052L41.5156 27.2598Z" fill="#86B817"/>
</g>
<defs>
<clipPath id="clip0_548_8515">
<rect width="44" height="17.6475" fill="white" transform="translate(10 23)"/>
</clipPath>
</defs>
</svg>
