<svg width="64" height="64" viewBox="0 0 64 64" fill="none" xmlns="http://www.w3.org/2000/svg">
<rect width="64" height="64" rx="32" fill="#652C8F"/>
<path fill-rule="evenodd" clip-rule="evenodd" d="M37.3823 28.0059H40.8348V25.6006H34.8448V36.3921H40.8348V33.9802H37.3823V31.8559H40.8348V29.5415H37.3823V28.0059ZM43.8837 32.9678L40.8355 36.3929H43.9535L45.4355 34.7153L46.9315 36.3929H50.161L47.0855 32.9537L50.1193 29.5423H47.0153L45.5615 31.2062L44.0517 29.5423H40.8355L43.8837 32.9678Z" fill="#FF6600"/>
<path d="M32.3178 25.5996V30.016H32.29C31.7306 29.373 31.0316 29.1496 30.2206 29.1496C28.5594 29.1496 27.3081 30.2789 26.8688 31.772C26.3679 30.1268 25.076 29.1188 23.1604 29.1188C21.6047 29.1188 20.3762 29.8171 19.7352 30.9549V29.5407H16.5195V28.0052H20.0287V25.5996H13.6531V36.3913H16.5195V31.8549H19.3766C19.2915 32.1882 19.246 32.545 19.246 32.9214C19.246 35.1726 20.9657 36.7521 23.1604 36.7521C25.0059 36.7521 26.2222 35.8856 26.8655 34.306H24.409C24.0767 34.7805 23.8247 34.9215 23.1604 34.9215C22.3901 34.9215 21.726 34.2494 21.726 33.4527H26.7279C26.9448 35.2407 28.3376 36.7828 30.2489 36.7828C31.0734 36.7828 31.8283 36.3772 32.29 35.6924H32.3178V36.391H34.8446V25.5996H32.3178ZM21.8057 31.8872C21.9651 31.2018 22.4967 30.7538 23.1604 30.7538C23.891 30.7538 24.3955 31.1879 24.5282 31.8872C24.5842 31.8872 21.8057 31.8872 21.8057 31.8872ZM30.7843 34.7481C29.8529 34.7481 29.2741 33.8802 29.2741 32.974C29.2741 32.0054 29.7776 31.074 30.7843 31.074C31.8283 31.074 32.2442 32.0054 32.2442 32.974C32.244 33.8926 31.8033 34.7481 30.7843 34.7481Z" fill="white"/>
</svg>
