<svg width="64" height="64" viewBox="0 0 64 64" fill="none" xmlns="http://www.w3.org/2000/svg">
<rect width="64" height="64" rx="32" fill="white"/>
<path d="M50.7829 32.4318C50.7829 31.1678 50.6709 29.9678 50.4789 28.7998H32.3989V36.0158H42.7509C42.2869 38.3838 40.9269 40.3838 38.9109 41.7438V46.5438H45.0869C48.7029 43.1998 50.7829 38.2718 50.7829 32.4318Z" fill="#4285F4"/>
<path d="M32.3985 51.201C37.5825 51.201 41.9185 49.473 45.0865 46.545L38.9105 41.745C37.1825 42.897 34.9905 43.601 32.3985 43.601C27.3905 43.601 23.1505 40.225 21.6305 35.665H15.2625V40.609C18.4145 46.881 24.8945 51.201 32.3985 51.201Z" fill="#34A853"/>
<path d="M21.631 35.6636C21.231 34.5116 21.023 33.2796 21.023 31.9996C21.023 30.7196 21.247 29.4876 21.631 28.3356V23.3916H15.263C13.951 25.9836 13.199 28.8956 13.199 31.9996C13.199 35.1036 13.951 38.0156 15.263 40.6076L21.631 35.6636Z" fill="#FBBC05"/>
<path d="M32.3985 20.3998C35.2305 20.3998 37.7584 21.3758 39.7584 23.2798L45.2304 17.8078C41.9184 14.7038 37.5825 12.7998 32.3985 12.7998C24.8945 12.7998 18.4145 17.1198 15.2625 23.3918L21.6305 28.3358C23.1505 23.7758 27.3905 20.3998 32.3985 20.3998Z" fill="#EA4335"/>
</svg>
