<svg width="64" height="64" viewBox="0 0 64 64" fill="none" xmlns="http://www.w3.org/2000/svg">
<g clip-path="url(#clip0_548_8483)">
<path d="M66.361 -0.914062H-2.36328V64.9069H66.361V-0.914062Z" fill="#EA0B8C"/>
<path d="M53.4828 10.5146H10.5159V53.4817H53.4828V10.5146Z" fill="#EA0B8C"/>
<path d="M14.2502 19.877H19.6407V34.344C19.6407 36.6334 20.688 37.9972 21.5162 38.5818C20.6394 39.3612 17.9603 40.0432 15.9632 38.387C14.7857 37.4106 14.2502 35.8054 14.2502 34.2952V19.877ZM47.939 31.8944V30.374H49.5832V25.0402H47.7774C47.0842 21.838 44.2336 19.4385 40.824 19.4385C36.8962 19.4385 33.7124 22.6226 33.7124 26.5502V39.006C34.8314 39.1632 36.1644 38.9866 37.2986 38.046C38.4758 37.0694 39.0114 35.4642 39.0114 33.9544V33.4952H41.7034V28.1614H39.0114V26.5502H39.0176C39.0176 25.5526 39.8262 24.744 40.8238 24.744C41.8212 24.744 42.6332 25.5526 42.6332 26.5502V31.8942C42.6332 35.822 45.8204 39.006 49.748 39.006V33.7002C48.7508 33.7004 47.939 32.8918 47.939 31.8944ZM27.5232 25.0404V32.8682C27.5232 33.3124 27.1544 33.6728 26.6996 33.6728C26.2446 33.6728 25.8762 33.3124 25.8762 32.8682V25.0404H20.542V34.2466C20.542 35.9026 21.1036 37.9972 23.6596 38.6792C26.2182 39.362 27.7026 37.9486 27.7026 37.9486C27.5674 38.8798 26.6904 39.5618 25.2778 39.7078C24.2092 39.8182 22.8422 39.4644 22.1604 39.172V44.0494C23.8978 44.5618 25.7354 44.7274 27.5336 44.3784C30.7972 43.7452 32.8568 41.0174 32.8568 37.3884V25.0404H27.5232Z" fill="white"/>
</g>
<defs>
<clipPath id="clip0_548_8483">
<rect width="64" height="64" rx="32" fill="white"/>
</clipPath>
</defs>
</svg>
