<svg width="64" height="64" viewBox="0 0 64 64" fill="none" xmlns="http://www.w3.org/2000/svg">
<g clip-path="url(#clip0_548_8475)">
<path d="M64 0H0V64H64V0Z" fill="#E50001"/>
<path d="M53.7262 10.2725H10.2698V53.7289H53.7262V10.2725Z" fill="#E50001"/>
<path d="M39.843 18.5495C42.9332 18.5495 45.44 31.5868 45.44 47.6878H49.9492C49.9492 30.3536 45.4 16.3213 39.8296 16.3213C36.6462 16.3213 33.835 20.5256 31.978 27.1306C30.1214 20.5258 27.3096 16.3213 24.1532 16.3213C18.5827 16.3213 14.0469 30.3402 14.0469 47.6746H18.5563C18.5563 31.5736 21.0364 18.5495 24.1266 18.5495C27.2168 18.5495 29.7234 30.5922 29.7234 45.4464H34.2062C34.2062 30.592 36.726 18.5495 39.8166 18.5495" fill="#FFCC00"/>
</g>
<defs>
<clipPath id="clip0_548_8475">
<rect width="64" height="64" rx="32" fill="white"/>
</clipPath>
</defs>
</svg>
