<svg width="64" height="64" viewBox="0 0 64 64" fill="none" xmlns="http://www.w3.org/2000/svg">
<rect width="64" height="64" rx="32" fill="#010202"/>
<path d="M16.6138 32.8067C16.7607 33.1965 16.9641 33.5299 17.2241 33.8067C17.484 34.0835 17.7919 34.2953 18.1478 34.4421C18.5038 34.5891 18.8908 34.6627 19.3089 34.6627C19.7158 34.6627 20.097 34.5863 20.453 34.4339C20.809 34.2813 21.1196 34.0665 21.3854 33.7897C21.6508 33.5129 21.857 33.1823 22.004 32.7983C22.1508 32.4139 22.2244 31.9849 22.2244 31.5099V24.1875H24.004V36.0525H22.2412V34.9509C21.8458 35.3689 21.3796 35.6909 20.8428 35.9171C20.306 36.1431 19.7269 36.2561 19.1054 36.2561C18.4726 36.2561 17.8822 36.1459 17.3341 35.9255C16.7861 35.7051 16.3114 35.3917 15.9103 34.9849C15.5092 34.5781 15.1928 34.0893 14.9611 33.5187C14.7294 32.9481 14.6135 32.3125 14.6135 31.6119V24.1875H16.3932V31.5101C16.3935 31.9845 16.4669 32.4167 16.6138 32.8067ZM27.0718 24.1875V28.5097C27.4674 28.1141 27.925 27.8007 28.4448 27.5691C28.9646 27.3375 29.5298 27.2215 30.14 27.2215C30.7728 27.2215 31.366 27.3401 31.9196 27.5775C32.4736 27.8147 32.9536 28.1369 33.3606 28.5437C33.7672 28.9505 34.0892 29.4307 34.3268 29.9843C34.564 30.5379 34.6826 31.1257 34.6826 31.7471C34.6826 32.3687 34.564 32.9535 34.3268 33.5015C34.0892 34.0497 33.7672 34.5271 33.3606 34.9339C32.9536 35.3407 32.4736 35.6629 31.9196 35.9001C31.366 36.1375 30.7726 36.2561 30.14 36.2561C29.5298 36.2561 28.962 36.1403 28.4364 35.9085C27.9108 35.6769 27.4504 35.3631 27.0548 34.9679V36.0527H25.3598V24.1875H27.0718ZM27.2668 32.9169C27.4192 33.2783 27.6314 33.5949 27.9024 33.8661C28.1734 34.1373 28.49 34.3519 28.8516 34.5101C29.2132 34.6685 29.6032 34.7475 30.0212 34.7475C30.428 34.7475 30.8122 34.6685 31.1738 34.5101C31.5354 34.3519 31.849 34.1373 32.1144 33.8661C32.38 33.5949 32.592 33.2785 32.75 32.9169C32.9082 32.5553 32.9874 32.1653 32.9874 31.7473C32.9874 31.3291 32.9082 30.9367 32.75 30.5693C32.5918 30.2019 32.38 29.8827 32.1144 29.6117C31.849 29.3405 31.5354 29.1287 31.1738 28.9761C30.8122 28.8237 30.428 28.7473 30.0212 28.7473C29.6144 28.7473 29.2302 28.8237 28.8688 28.9761C28.507 29.1287 28.1906 29.3407 27.9194 29.6117C27.6482 29.8829 27.4336 30.2021 27.2752 30.5693C27.117 30.9365 27.038 31.3291 27.038 31.7473C27.038 32.1653 27.1144 32.5553 27.2668 32.9169ZM35.6486 30.0013C35.8744 29.4587 36.185 28.9815 36.5808 28.5689C36.9762 28.1565 37.4454 27.8317 37.9876 27.5945C38.53 27.3571 39.1178 27.2385 39.7504 27.2385C40.372 27.2385 40.9482 27.3515 41.4794 27.5775C42.0104 27.8035 42.468 28.1171 42.8522 28.5183C43.2366 28.9195 43.5358 29.3939 43.7508 29.9419C43.9652 30.4901 44.0728 31.0861 44.0728 31.7303V32.2897H37.0384C37.0948 32.6401 37.2078 32.9649 37.3774 33.2643C37.547 33.5637 37.759 33.8237 38.013 34.0439C38.2672 34.2643 38.5554 34.4365 38.8776 34.5607C39.1996 34.6853 39.5412 34.7475 39.9032 34.7475C40.9314 34.7475 41.762 34.3235 42.3946 33.4759L43.6322 34.3913C43.2028 34.9677 42.6716 35.4197 42.0388 35.7473C41.406 36.0749 40.6942 36.2387 39.9032 36.2387C39.259 36.2387 38.6572 36.1257 38.098 35.8997C37.5386 35.6737 37.0526 35.3573 36.6404 34.9505C36.228 34.5437 35.9028 34.0661 35.6656 33.5181C35.4286 32.9701 35.31 32.3739 35.31 31.7297C35.3096 31.1201 35.4226 30.5439 35.6486 30.0013ZM38.03 29.3319C37.5498 29.7331 37.2306 30.2669 37.0724 30.9337H42.3442C42.1972 30.2669 41.8836 29.7331 41.4036 29.3319C40.9232 28.9307 40.361 28.7301 39.717 28.7301C39.0724 28.7301 38.5104 28.9307 38.03 29.3319ZM47.2762 29.5267C46.9148 29.9223 46.7338 30.4589 46.7338 31.1371V36.0527H45.022V27.4081H46.7168V28.4759C46.9316 28.1255 47.2112 27.8487 47.556 27.6455C47.9006 27.4419 48.3104 27.3403 48.7848 27.3403H49.378V28.9337H48.6662C48.1012 28.9335 47.6378 29.1311 47.2762 29.5267Z" fill="white"/>
</svg>
