<svg width="64" height="64" viewBox="0 0 64 64" fill="none" xmlns="http://www.w3.org/2000/svg">
<rect width="64" height="64" rx="32" fill="#06C168"/>
<path d="M51.3653 21.805V20.0728H50.7051C49.6564 20.0728 48.8797 20.5544 48.4137 21.3079V20.1427H46.534V29.5491H48.4292V24.2051C48.4292 22.7448 49.3302 21.805 50.573 21.805H51.3653ZM37.7257 23.9799C38.0675 22.5429 39.2481 21.5797 40.654 21.5797C42.0599 21.5797 43.2483 22.5351 43.5668 23.9799H37.7257ZM40.6929 19.9641C37.8966 19.9641 35.7683 22.1934 35.7683 24.8498C35.7683 27.6539 37.982 29.7588 40.8638 29.7588C42.6114 29.7588 44.0406 29.0054 44.996 27.747L43.6212 26.7528C42.9065 27.6927 41.9667 28.1355 40.856 28.1355C39.2403 28.1355 37.9432 26.9936 37.6791 25.4634H45.4776V24.8576C45.4853 22.0458 43.4581 19.9641 40.6929 19.9641ZM29.8495 28.1355C28.0087 28.1355 26.5406 26.6751 26.5406 24.8731C26.5406 23.0478 28.0242 21.6108 29.8495 21.6108C31.6516 21.6108 33.1352 23.0478 33.1352 24.8731C33.1429 26.6751 31.6593 28.1355 29.8495 28.1355ZM24.6842 29.5569H26.5639V28.3762C27.4261 29.2462 28.6534 29.7744 29.9816 29.7744C32.8011 29.7744 35.0149 27.5762 35.0149 24.8653C35.0149 22.139 32.8011 19.9408 29.9816 19.9408C28.6456 19.9408 27.4417 20.4768 26.5795 21.339V16.6396H24.6842V29.5569ZM18.012 28.0422C19.8373 28.0422 21.2432 26.6596 21.2432 24.609V16.6396H23.2162V29.5491H21.2588V28.3529C20.3733 29.2539 19.1538 29.7744 17.779 29.7744C14.9594 29.7744 12.8 27.7626 12.8 24.7178V16.6396H14.7807V24.609C14.7807 26.6985 16.1711 28.0422 18.012 28.0422Z" fill="#040000"/>
<path d="M31.0303 42.229C31.0303 40.5979 29.7253 39.3162 28.0784 39.3162C26.4553 39.3162 25.1271 40.5979 25.1271 42.229C25.1271 43.8602 26.4553 45.1418 28.0784 45.1418C29.7253 45.1418 31.0303 43.8602 31.0303 42.229ZM33.4379 37.4598V47.006H30.9836V46.1438C30.1293 46.8506 29.0493 47.2468 27.8764 47.2468C24.9718 47.2468 22.7035 45.0176 22.7035 42.229C22.7035 39.4483 24.9793 37.2113 27.8764 37.2113C29.0493 37.2113 30.1293 37.6074 30.9836 38.3142V37.4598H33.4379ZM41.594 44.8389H39.7452C39.1859 44.8389 38.8211 44.5981 38.8211 44.0855V39.6192H41.586V37.4598H38.8211V34.7412H36.3431V37.4598H34.4787V39.627H36.3431V44.6991C36.3431 45.9807 37.2672 46.9982 38.9296 46.9982H41.586V44.8389H41.594ZM47.1862 47.2468C50.0215 47.2468 51.6215 45.9186 51.6215 44.0855C51.6215 42.7806 50.6738 41.8096 48.6933 41.3901L46.5962 40.9707C45.3846 40.7532 44.9962 40.5279 44.9962 40.0852C44.9962 39.5104 45.5786 39.1609 46.658 39.1609C47.8309 39.1609 48.6858 39.4716 48.934 40.5279H51.3884C51.2567 38.5395 49.7883 37.2113 46.8214 37.2113C44.2579 37.2113 42.4559 38.2521 42.4559 40.2639C42.4559 41.6542 43.4504 42.5631 45.5861 43.0058L47.9244 43.5339C48.8486 43.7126 49.0973 43.9534 49.0973 44.3262C49.0973 44.9243 48.3983 45.2972 47.2716 45.2972C45.858 45.2972 45.0424 44.9865 44.7318 43.9301H42.2544C42.6192 45.9186 44.1263 47.2468 47.1862 47.2468ZM12.8 34.0732H22.051V36.2792H15.3011V39.4405H21.8724V41.5843H15.3011V44.7845H22.051V46.9905H12.8V34.0732Z" fill="#040000"/>
</svg>
