<svg width="393" height="292" viewBox="0 0 393 292" fill="none" xmlns="http://www.w3.org/2000/svg">
<line x1="-32.1675" y1="35.2819" x2="425.168" y2="35.2819" stroke="#C8C8C8" stroke-opacity="0.1" stroke-width="1.04554"/>
<line x1="-32.1675" y1="79.6296" x2="425.168" y2="79.6296" stroke="#C8C8C8" stroke-opacity="0.1" stroke-width="1.04554"/>
<line x1="-32.1675" y1="123.977" x2="425.168" y2="123.977" stroke="#C8C8C8" stroke-opacity="0.1" stroke-width="1.04554"/>
<line x1="-32.1675" y1="168.325" x2="425.168" y2="168.325" stroke="#C8C8C8" stroke-opacity="0.1" stroke-width="1.04554"/>
<line x1="-32.1675" y1="212.673" x2="425.168" y2="212.673" stroke="#C8C8C8" stroke-opacity="0.1" stroke-width="1.04554"/>
<path fill-rule="evenodd" clip-rule="evenodd" d="M0.539062 117.442C12.4557 106.908 31.2968 112.743 35.1746 128.168L46.1207 171.709C48.9956 183.145 63.4109 186.829 71.4206 178.176C75.8796 173.358 82.9724 172.04 88.8646 174.934L89.6473 175.318C97.9837 179.412 108.043 175.582 111.546 166.98L121.928 141.489C125.53 132.643 137.884 132.185 142.132 140.738C146.913 150.364 161.218 148.244 163.001 137.646L178.452 45.8334C180.564 33.2838 195.923 28.2989 205.003 37.2163C207.946 40.107 211.906 41.7267 216.032 41.7267H222.227C230.834 41.7267 239.05 45.3174 244.897 51.6337L254.241 61.7292C259.171 67.0554 265.773 70.5361 272.954 71.5939L274.024 71.7516C282.857 73.053 290.628 78.2781 295.167 85.9673L306.001 104.323C310.15 111.352 319.768 112.678 325.663 107.032C332.411 100.57 343.595 103.393 346.468 112.283L354.262 136.396C359.62 152.972 380.971 157.434 392.519 144.391V292H0.539062V117.442Z" fill="url(#paint0_linear_103_2498)"/>
<path d="M0.539062 117.442V117.442C12.4557 106.908 31.2968 112.743 35.1746 128.168L46.1207 171.709C48.9956 183.145 63.4109 186.829 71.4206 178.176V178.176C75.8796 173.358 82.9724 172.04 88.8646 174.934L89.6473 175.318C97.9837 179.412 108.043 175.582 111.546 166.98L121.928 141.489C125.53 132.643 137.884 132.185 142.132 140.738V140.738C146.913 150.364 161.218 148.244 163.001 137.646L178.452 45.8334C180.564 33.2838 195.923 28.2989 205.003 37.2163V37.2163C207.946 40.107 211.906 41.7267 216.032 41.7267H222.227C230.834 41.7267 239.05 45.3174 244.897 51.6337L254.241 61.7292C259.171 67.0554 265.773 70.5361 272.954 71.5939L274.024 71.7516C282.857 73.053 290.628 78.2781 295.167 85.9673L306.001 104.323C310.15 111.352 319.768 112.678 325.663 107.032V107.032C332.411 100.57 343.595 103.393 346.468 112.283L354.262 136.396C359.62 152.972 380.971 157.434 392.519 144.391V144.391" stroke="#0AA668" stroke-width="1.56831"/>
<path fill-rule="evenodd" clip-rule="evenodd" d="M392.52 143.057C401.761 125.829 427.363 128.995 432.13 147.955L438.101 171.709C440.976 183.145 455.391 186.829 463.401 178.176C467.86 173.358 474.953 172.04 480.845 174.934L481.628 175.318C489.964 179.412 500.024 175.582 503.527 166.98L513.909 141.489C517.511 132.643 529.864 132.185 534.113 140.738C538.893 150.364 553.198 148.244 554.982 137.646L570.433 45.8334C572.545 33.2838 587.904 28.2989 596.983 37.2163C599.926 40.107 603.887 41.7267 608.012 41.7267H614.208C622.814 41.7267 631.031 45.3174 636.877 51.6337L646.221 61.7292C651.151 67.0554 657.754 70.5361 664.934 71.5939L666.004 71.7516C674.837 73.053 682.609 78.2781 687.147 85.9673L697.982 104.323C702.13 111.352 711.748 112.678 717.643 107.032C724.392 100.57 735.575 103.393 738.449 112.283L746.243 136.396C751.6 152.972 772.952 157.434 784.499 144.391V292H392.52V143.057Z" fill="url(#paint1_linear_103_2498)"/>
<path d="M392.318 144.78V144.78C401.531 127.133 427.67 130.217 432.524 149.523L438.101 171.709C440.976 183.145 455.391 186.829 463.401 178.176V178.176C467.86 173.358 474.953 172.04 480.845 174.934L481.628 175.318C489.964 179.412 500.024 175.582 503.527 166.98L513.909 141.489C517.511 132.643 529.864 132.185 534.112 140.738V140.738C538.893 150.364 553.198 148.244 554.982 137.646L570.433 45.8334C572.545 33.2838 587.904 28.2989 596.983 37.2163V37.2163C599.926 40.107 603.887 41.7267 608.012 41.7267H614.208C622.814 41.7267 631.031 45.3174 636.877 51.6337L646.221 61.7292C651.151 67.0554 657.754 70.5361 664.934 71.5939L666.004 71.7516C674.837 73.053 682.609 78.2781 687.147 85.9673L697.981 104.323C702.13 111.352 711.748 112.678 717.643 107.032V107.032C724.391 100.57 735.575 103.393 738.449 112.283L746.243 136.396C751.6 152.972 772.951 157.434 784.499 144.391V144.391" stroke="#09D0A8" stroke-width="1.56831"/>
<path d="M3.27539 60.8574L389.724 62.095" stroke="#AAA4A4" stroke-opacity="0.5" stroke-width="1.04554" stroke-dasharray="2.09 2.09"/>
<path d="M254.594 60.9014V266.289" stroke="#AAA4A4" stroke-opacity="0.5" stroke-width="1.04554" stroke-dasharray="2.09 2.09"/>
<path d="M255.217 56.2354C258.101 56.2354 260.446 58.5785 260.446 61.4766C260.446 64.3747 258.101 66.7178 255.217 66.7178C252.334 66.7176 249.99 64.3745 249.99 61.4766C249.99 58.5786 252.334 56.2356 255.217 56.2354Z" fill="white" stroke="#1D8147" stroke-width="4.18215"/>
<path d="M219.372 15.6214V2.89409H220.188V15.6214H219.372ZM221.923 6.84153C221.87 6.37089 221.651 6.0063 221.267 5.74778C220.882 5.48594 220.398 5.35502 219.815 5.35502C219.397 5.35502 219.036 5.42131 218.731 5.55389C218.426 5.68315 218.189 5.86213 218.02 6.09082C217.854 6.3162 217.772 6.57306 217.772 6.86142C217.772 7.10337 217.828 7.31217 217.941 7.48784C218.057 7.6635 218.207 7.81099 218.393 7.93031C218.582 8.04631 218.784 8.14409 219 8.22363C219.215 8.29986 219.422 8.36284 219.621 8.41255L220.615 8.67108C220.94 8.75062 221.273 8.85834 221.615 8.99423C221.956 9.13012 222.273 9.3091 222.564 9.53116C222.856 9.75323 223.091 10.0283 223.27 10.3564C223.452 10.6846 223.544 11.0773 223.544 11.5347C223.544 12.1114 223.394 12.6235 223.096 13.0709C222.801 13.5184 222.372 13.8714 221.809 14.1299C221.248 14.3884 220.571 14.5177 219.775 14.5177C219.013 14.5177 218.353 14.3967 217.796 14.1547C217.24 13.9128 216.804 13.5698 216.489 13.1256C216.174 12.6782 216 12.1479 215.967 11.5347H217.508C217.538 11.9026 217.657 12.2092 217.866 12.4545C218.078 12.6964 218.348 12.877 218.676 12.9964C219.008 13.1124 219.371 13.1704 219.765 13.1704C220.199 13.1704 220.585 13.1024 220.924 12.9665C221.265 12.8273 221.533 12.6351 221.729 12.3898C221.925 12.1412 222.022 11.8512 222.022 11.5198C222.022 11.2182 221.936 10.9713 221.764 10.779C221.595 10.5868 221.364 10.4277 221.073 10.3018C220.784 10.1758 220.458 10.0648 220.093 9.96866L218.89 9.64054C218.075 9.41847 217.429 9.092 216.951 8.66113C216.477 8.23026 216.24 7.66019 216.24 6.95091C216.24 6.36426 216.399 5.85218 216.718 5.41468C217.036 4.97718 217.467 4.63746 218.01 4.39551C218.554 4.15024 219.167 4.02761 219.85 4.02761C220.539 4.02761 221.147 4.14859 221.674 4.39054C222.205 4.63249 222.622 4.96558 222.927 5.38983C223.232 5.81075 223.391 6.29466 223.404 6.84153H221.923ZM229.103 4.16681V14.3486H227.562V5.70801H227.502L225.066 7.29892V5.82733L227.607 4.16681H229.103ZM233.223 12.9566L233.149 13.4985C233.099 13.8962 233.014 14.3105 232.895 14.7414C232.779 15.1756 232.658 15.5783 232.532 15.9495C232.41 16.3207 232.309 16.6157 232.229 16.8344H231.175C231.218 16.6289 231.278 16.3505 231.354 15.9992C231.43 15.6512 231.505 15.2617 231.578 14.8309C231.651 14.4 231.705 13.9608 231.742 13.5134L231.791 12.9566H233.223ZM238.478 14.5177C237.693 14.5144 237.022 14.3072 236.465 13.8962C235.908 13.4852 235.482 12.887 235.187 12.1015C234.892 11.316 234.745 10.3697 234.745 9.2627C234.745 8.159 234.892 7.21606 235.187 6.43386C235.485 5.65166 235.913 5.05507 236.47 4.64409C237.03 4.2331 237.699 4.02761 238.478 4.02761C239.257 4.02761 239.925 4.23476 240.482 4.64906C241.039 5.06004 241.465 5.65663 241.759 6.43883C242.058 7.21771 242.207 8.159 242.207 9.2627C242.207 10.373 242.059 11.3209 241.764 12.1064C241.469 12.8886 241.044 13.4869 240.487 13.9012C239.93 14.3122 239.26 14.5177 238.478 14.5177ZM238.478 13.1903C239.168 13.1903 239.706 12.8538 240.094 12.181C240.485 11.5082 240.681 10.5354 240.681 9.2627C240.681 8.41752 240.591 7.70327 240.412 7.11994C240.237 6.53329 239.983 6.08916 239.652 5.78755C239.323 5.48263 238.932 5.33017 238.478 5.33017C237.792 5.33017 237.254 5.66823 236.862 6.34437C236.471 7.02051 236.274 7.99328 236.271 9.2627C236.271 10.1112 236.359 10.8287 236.534 11.4154C236.713 11.9987 236.967 12.4412 237.295 12.7428C237.623 13.0411 238.018 13.1903 238.478 13.1903ZM247.515 14.5177C246.73 14.5144 246.059 14.3072 245.502 13.8962C244.945 13.4852 244.519 12.887 244.224 12.1015C243.929 11.316 243.782 10.3697 243.782 9.2627C243.782 8.159 243.929 7.21606 244.224 6.43386C244.522 5.65166 244.95 5.05507 245.507 4.64409C246.067 4.2331 246.736 4.02761 247.515 4.02761C248.294 4.02761 248.962 4.23476 249.519 4.64906C250.076 5.06004 250.502 5.65663 250.797 6.43883C251.095 7.21771 251.244 8.159 251.244 9.2627C251.244 10.373 251.097 11.3209 250.802 12.1064C250.507 12.8886 250.081 13.4869 249.524 13.9012C248.967 14.3122 248.298 14.5177 247.515 14.5177ZM247.515 13.1903C248.205 13.1903 248.743 12.8538 249.131 12.181C249.522 11.5082 249.718 10.5354 249.718 9.2627C249.718 8.41752 249.628 7.70327 249.449 7.11994C249.274 6.53329 249.02 6.08916 248.689 5.78755C248.361 5.48263 247.969 5.33017 247.515 5.33017C246.829 5.33017 246.291 5.66823 245.9 6.34437C245.508 7.02051 245.311 7.99328 245.308 9.2627C245.308 10.1112 245.396 10.8287 245.571 11.4154C245.75 11.9987 246.004 12.4412 246.332 12.7428C246.66 13.0411 247.055 13.1903 247.515 13.1903ZM256.552 14.5177C255.767 14.5144 255.096 14.3072 254.539 13.8962C253.982 13.4852 253.556 12.887 253.261 12.1015C252.966 11.316 252.819 10.3697 252.819 9.2627C252.819 8.159 252.966 7.21606 253.261 6.43386C253.56 5.65166 253.987 5.05507 254.544 4.64409C255.104 4.2331 255.774 4.02761 256.552 4.02761C257.331 4.02761 257.999 4.23476 258.556 4.64906C259.113 5.06004 259.539 5.65663 259.834 6.43883C260.132 7.21771 260.281 8.159 260.281 9.2627C260.281 10.373 260.134 11.3209 259.839 12.1064C259.544 12.8886 259.118 13.4869 258.561 13.9012C258.004 14.3122 257.335 14.5177 256.552 14.5177ZM256.552 13.1903C257.242 13.1903 257.78 12.8538 258.168 12.181C258.559 11.5082 258.755 10.5354 258.755 9.2627C258.755 8.41752 258.665 7.70327 258.486 7.11994C258.311 6.53329 258.057 6.08916 257.726 5.78755C257.398 5.48263 257.007 5.33017 256.552 5.33017C255.866 5.33017 255.328 5.66823 254.937 6.34437C254.546 7.02051 254.348 7.99328 254.345 9.2627C254.345 10.1112 254.433 10.8287 254.609 11.4154C254.788 11.9987 255.041 12.4412 255.369 12.7428C255.697 13.0411 256.092 13.1903 256.552 13.1903Z" fill="white"/>
<g clip-path="url(#clip0_103_2498)">
<path d="M217.343 29.6074H213.499V28.6523H217.343V29.6074ZM219.142 26.4551C219.142 25.7051 219.396 25.0879 219.903 24.6035C220.415 24.1191 221.064 23.877 221.849 23.877C222.606 23.877 223.241 24.1055 223.753 24.5625C224.269 25.0156 224.526 25.5781 224.526 26.25C224.526 26.6914 224.401 27.125 224.151 27.5508C223.901 27.9766 223.431 28.5605 222.739 29.3027L220.706 31.4883V31.582H224.667V32.5312H219.194V31.8047L222.118 28.6113C222.661 28.0215 223.022 27.5723 223.202 27.2637C223.382 26.9551 223.472 26.6309 223.472 26.291C223.472 25.8691 223.312 25.5156 222.991 25.2305C222.675 24.9414 222.284 24.7969 221.819 24.7969C221.323 24.7969 220.923 24.9492 220.618 25.2539C220.314 25.5586 220.161 25.959 220.161 26.4551V26.4609H219.142V26.4551ZM227.11 32.5898C226.903 32.5898 226.724 32.5156 226.571 32.3672C226.423 32.2148 226.349 32.0352 226.349 31.8281C226.349 31.6172 226.423 31.4375 226.571 31.2891C226.724 31.1406 226.903 31.0664 227.11 31.0664C227.321 31.0664 227.501 31.1406 227.649 31.2891C227.798 31.4375 227.872 31.6172 227.872 31.8281C227.872 32.0352 227.798 32.2148 227.649 32.3672C227.501 32.5156 227.321 32.5898 227.11 32.5898ZM229.548 26.4551C229.548 25.7051 229.802 25.0879 230.31 24.6035C230.821 24.1191 231.47 23.877 232.255 23.877C233.013 23.877 233.647 24.1055 234.159 24.5625C234.675 25.0156 234.933 25.5781 234.933 26.25C234.933 26.6914 234.808 27.125 234.558 27.5508C234.308 27.9766 233.837 28.5605 233.146 29.3027L231.112 31.4883V31.582H235.073V32.5312H229.601V31.8047L232.524 28.6113C233.067 28.0215 233.429 27.5723 233.608 27.2637C233.788 26.9551 233.878 26.6309 233.878 26.291C233.878 25.8691 233.718 25.5156 233.397 25.2305C233.081 24.9414 232.69 24.7969 232.226 24.7969C231.73 24.7969 231.329 24.9492 231.024 25.2539C230.72 25.5586 230.567 25.959 230.567 26.4551V26.4609H229.548V26.4551ZM238.876 32.5312V25.248H238.782L236.632 26.8066V25.6934L238.882 24.0762H239.931V32.5312H238.876ZM245.081 24.498C245.417 24.877 245.585 25.3652 245.585 25.9629C245.585 26.5605 245.417 27.0508 245.081 27.4336C244.745 27.8125 244.314 28.002 243.786 28.002C243.259 28.002 242.825 27.8125 242.485 27.4336C242.149 27.0508 241.981 26.5605 241.981 25.9629C241.981 25.3691 242.149 24.8828 242.485 24.5039C242.825 24.1211 243.259 23.9297 243.786 23.9297C244.314 23.9297 244.745 24.1191 245.081 24.498ZM243.786 27.252C244.044 27.252 244.251 27.1348 244.407 26.9004C244.567 26.6621 244.647 26.3496 244.647 25.9629C244.647 25.5684 244.569 25.2559 244.413 25.0254C244.261 24.7949 244.052 24.6797 243.786 24.6797C243.524 24.6797 243.314 24.7969 243.153 25.0312C242.997 25.2617 242.919 25.5723 242.919 25.9629C242.919 26.3535 242.997 26.666 243.153 26.9004C243.314 27.1348 243.524 27.252 243.786 27.252ZM243.692 32.5312H242.614L245.843 28.125L248.808 24.0762H249.874L246.593 28.5645L243.692 32.5312ZM249.974 29.1738C250.31 29.5527 250.478 30.041 250.478 30.6387C250.478 31.2363 250.31 31.7266 249.974 32.1094C249.638 32.4883 249.206 32.6777 248.679 32.6777C248.151 32.6777 247.718 32.4883 247.378 32.1094C247.042 31.7266 246.874 31.2363 246.874 30.6387C246.874 30.0449 247.042 29.5586 247.378 29.1797C247.718 28.7969 248.151 28.6055 248.679 28.6055C249.206 28.6055 249.638 28.7949 249.974 29.1738ZM248.679 31.9277C248.937 31.9277 249.144 31.8105 249.3 31.5762C249.46 31.3379 249.54 31.0254 249.54 30.6387C249.54 30.2441 249.462 29.9316 249.306 29.7012C249.153 29.4707 248.944 29.3555 248.679 29.3555C248.417 29.3555 248.206 29.4727 248.046 29.707C247.89 29.9375 247.812 30.248 247.812 30.6387C247.812 31.0293 247.89 31.3418 248.046 31.5762C248.206 31.8105 248.417 31.9277 248.679 31.9277Z" fill="#F72727"/>
</g>
<path d="M32.9588 258.292H34.5568L37.3352 265.076H37.4375L40.2159 258.292H41.8139V267.02H40.5611V260.704H40.4801L37.9062 267.007H36.8665L34.2926 260.7H34.2116V267.02H32.9588V258.292ZM45.5021 267.164C45.0873 267.164 44.7123 267.088 44.3771 266.934C44.0419 266.778 43.7762 266.552 43.5802 266.257C43.387 265.961 43.2904 265.599 43.2904 265.17C43.2904 264.801 43.3615 264.497 43.5035 264.258C43.6456 264.02 43.8373 263.831 44.0788 263.691C44.3203 263.552 44.5902 263.447 44.8885 263.376C45.1868 263.305 45.4907 263.251 45.8004 263.214C46.1924 263.169 46.5106 263.132 46.7549 263.103C46.9993 263.072 47.1768 263.022 47.2876 262.954C47.3984 262.886 47.4538 262.775 47.4538 262.622V262.592C47.4538 262.22 47.3487 261.931 47.1385 261.727C46.9311 261.522 46.6214 261.42 46.2095 261.42C45.7805 261.42 45.4424 261.515 45.1953 261.706C44.951 261.893 44.7819 262.102 44.6882 262.332L43.4907 262.059C43.6328 261.662 43.8402 261.341 44.1129 261.096C44.3885 260.849 44.7052 260.67 45.0632 260.559C45.4211 260.446 45.7975 260.389 46.1924 260.389C46.4538 260.389 46.7308 260.42 47.0234 260.483C47.3189 260.542 47.5944 260.653 47.8501 260.815C48.1086 260.977 48.3203 261.208 48.485 261.51C48.6498 261.808 48.7322 262.196 48.7322 262.673V267.02H47.4879V266.125H47.4368C47.3544 266.289 47.2308 266.451 47.066 266.61C46.9012 266.77 46.6896 266.902 46.4311 267.007C46.1725 267.112 45.8629 267.164 45.5021 267.164ZM45.7791 266.142C46.1314 266.142 46.4325 266.072 46.6825 265.933C46.9353 265.794 47.1271 265.612 47.2578 265.387C47.3913 265.16 47.4581 264.917 47.4581 264.659V263.815C47.4126 263.86 47.3245 263.903 47.1939 263.943C47.066 263.98 46.9197 264.012 46.7549 264.041C46.5902 264.066 46.4297 264.091 46.2734 264.113C46.1172 264.133 45.9865 264.15 45.8814 264.164C45.6342 264.196 45.4083 264.248 45.2038 264.322C45.0021 264.396 44.8402 264.502 44.718 264.642C44.5987 264.778 44.539 264.96 44.539 265.187C44.539 265.502 44.6555 265.741 44.8885 265.903C45.1214 266.062 45.4183 266.142 45.7791 266.142ZM51.4062 260.474L52.8508 263.022L54.3082 260.474H55.7016L53.6604 263.747L55.7187 267.02H54.3252L52.8508 264.574L51.3806 267.02H49.9829L52.0198 263.747L50.0085 260.474H51.4062Z" fill="#C4C4C4"/>
<path d="M76.1506 258.292V267.02H74.8295V259.613H74.7784L72.6903 260.977V259.716L74.8679 258.292H76.1506ZM78.6019 267.02V258.292H79.9186V262.085H84.2695V258.292H85.5905V267.02H84.2695V263.214H79.9186V267.02H78.6019Z" fill="#C4C4C4"/>
<path d="M102.656 265.315V264.25L106.428 258.292H107.267V259.86H106.734L104.037 264.13V264.199H109.206V265.315H102.656ZM106.794 267.02V264.991L106.803 264.505V258.292H108.051V267.02H106.794ZM110.782 267.02V258.292H112.098V262.085H116.449V258.292H117.77V267.02H116.449V263.214H112.098V267.02H110.782Z" fill="#C4C4C4"/>
<path d="M137.886 267.139C137.497 267.133 137.114 267.062 136.736 266.926C136.361 266.789 136.02 266.562 135.713 266.244C135.406 265.926 135.161 265.498 134.976 264.961C134.794 264.424 134.703 263.754 134.703 262.95C134.703 262.189 134.778 261.512 134.929 260.922C135.082 260.331 135.303 259.832 135.589 259.426C135.876 259.017 136.223 258.706 136.629 258.493C137.036 258.279 137.491 258.173 137.997 258.173C138.517 258.173 138.979 258.275 139.382 258.48C139.786 258.684 140.112 258.967 140.362 259.328C140.615 259.689 140.776 260.099 140.844 260.559H139.544C139.456 260.196 139.281 259.899 139.02 259.669C138.759 259.439 138.418 259.324 137.997 259.324C137.358 259.324 136.859 259.602 136.501 260.159C136.146 260.716 135.967 261.49 135.964 262.481H136.028C136.179 262.234 136.364 262.024 136.582 261.85C136.804 261.674 137.051 261.539 137.324 261.446C137.599 261.349 137.889 261.301 138.193 261.301C138.699 261.301 139.156 261.424 139.565 261.672C139.977 261.916 140.305 262.254 140.55 262.686C140.794 263.118 140.916 263.612 140.916 264.169C140.916 264.725 140.79 265.23 140.537 265.681C140.287 266.133 139.935 266.491 139.48 266.755C139.026 267.017 138.494 267.145 137.886 267.139ZM137.882 266.031C138.217 266.031 138.517 265.949 138.781 265.784C139.045 265.619 139.254 265.397 139.408 265.119C139.561 264.841 139.638 264.529 139.638 264.186C139.638 263.85 139.563 263.545 139.412 263.27C139.264 262.994 139.06 262.775 138.798 262.613C138.54 262.451 138.244 262.37 137.912 262.37C137.659 262.37 137.425 262.419 137.209 262.515C136.996 262.612 136.808 262.745 136.646 262.916C136.484 263.086 136.357 263.282 136.263 263.504C136.172 263.723 136.126 263.954 136.126 264.199C136.126 264.525 136.202 264.828 136.352 265.106C136.506 265.385 136.714 265.609 136.979 265.779C137.246 265.947 137.547 266.031 137.882 266.031ZM142.559 267.02V258.292H143.876V262.085H148.227V258.292H149.548V267.02H148.227V263.214H143.876V267.02H142.559Z" fill="#C4C4C4"/>
<path d="M170.151 258.292V267.02H168.83V259.613H168.778L166.69 260.977V259.716L168.868 258.292H170.151ZM172.483 267.02V266.065L175.436 263.005C175.751 262.673 176.011 262.382 176.216 262.132C176.423 261.879 176.578 261.639 176.68 261.412C176.782 261.184 176.833 260.943 176.833 260.687C176.833 260.397 176.765 260.147 176.629 259.937C176.493 259.724 176.306 259.561 176.071 259.447C175.835 259.331 175.569 259.272 175.274 259.272C174.961 259.272 174.689 259.336 174.456 259.464C174.223 259.592 174.044 259.772 173.919 260.005C173.794 260.238 173.731 260.511 173.731 260.824H172.474C172.474 260.292 172.596 259.828 172.841 259.43C173.085 259.032 173.42 258.724 173.846 258.505C174.272 258.284 174.757 258.173 175.299 258.173C175.848 258.173 176.331 258.282 176.748 258.501C177.169 258.717 177.497 259.012 177.733 259.387C177.968 259.76 178.086 260.18 178.086 260.649C178.086 260.973 178.025 261.289 177.903 261.599C177.784 261.909 177.575 262.254 177.277 262.635C176.978 263.012 176.564 263.471 176.032 264.011L174.298 265.826V265.89H178.227V267.02H172.483ZM179.932 267.02V258.292H181.249V262.085H185.6V258.292H186.921V267.02H185.6V263.214H181.249V267.02H179.932Z" fill="#C4C4C4"/>
<g filter="url(#filter0_d_103_2498)">
<rect x="203" y="252.52" width="45" height="20" rx="10" fill="#252525"/>
</g>
<path d="M223.151 258.292V267.02H221.83V259.613H221.778L219.69 260.977V259.716L221.868 258.292H223.151ZM228.427 267.02H225.602V258.292H228.517C229.372 258.292 230.106 258.467 230.72 258.816C231.333 259.163 231.804 259.662 232.13 260.312C232.46 260.96 232.625 261.737 232.625 262.643C232.625 263.552 232.458 264.333 232.126 264.987C231.796 265.64 231.319 266.143 230.694 266.495C230.069 266.845 229.314 267.02 228.427 267.02ZM226.919 265.869H228.355C229.019 265.869 229.572 265.744 230.012 265.494C230.453 265.241 230.782 264.876 231.001 264.399C231.22 263.919 231.329 263.333 231.329 262.643C231.329 261.958 231.22 261.377 231.001 260.9C230.785 260.423 230.463 260.061 230.034 259.814C229.605 259.566 229.072 259.443 228.436 259.443H226.919V265.869Z" fill="white"/>
<path d="M267.151 258.292V267.02H265.83V259.613H265.778L263.69 260.977V259.716L265.868 258.292H267.151ZM271.311 267.02L268.89 258.292H270.275L271.975 265.051H272.056L273.825 258.292H275.197L276.966 265.055H277.046L278.743 258.292H280.132L277.707 267.02H276.382L274.545 260.483H274.477L272.64 267.02H271.311Z" fill="#C4C4C4"/>
<path d="M298.625 255.48V269.832H297.483V255.48H298.625Z" fill="#C4C4C4"/>
<path d="M325.625 258.551C325.625 258.195 325.898 257.895 326.281 257.895H331.094C331.449 257.895 331.75 258.195 331.75 258.551V263.363C331.75 263.746 331.449 264.02 331.094 264.02C330.711 264.02 330.438 263.746 330.438 263.363V260.137L325.215 265.359C324.941 265.633 324.531 265.633 324.285 265.359L321.25 262.324L317.121 266.453C316.848 266.727 316.438 266.727 316.191 266.453C315.918 266.207 315.918 265.797 316.191 265.551L320.785 260.93C321.031 260.684 321.441 260.684 321.688 260.93L324.723 263.965L329.508 259.207H326.281C325.898 259.207 325.625 258.934 325.625 258.551Z" fill="#696F74"/>
<path d="M349.188 257.457V260.082H351.812V257.457H349.188ZM347.875 257.457C347.875 256.746 348.449 256.145 349.188 256.145H351.812C352.523 256.145 353.125 256.746 353.125 257.457V260.082C353.125 260.82 352.523 261.395 351.812 261.395H349.188C348.449 261.395 347.875 260.82 347.875 260.082V257.457ZM349.188 264.457V267.082H351.812V264.457H349.188ZM347.875 264.457C347.875 263.746 348.449 263.145 349.188 263.145H351.812C352.523 263.145 353.125 263.746 353.125 264.457V267.082C353.125 267.82 352.523 268.395 351.812 268.395H349.188C348.449 268.395 347.875 267.82 347.875 267.082V264.457ZM358.812 257.457H356.188V260.082H358.812V257.457ZM356.188 256.145H358.812C359.523 256.145 360.125 256.746 360.125 257.457V260.082C360.125 260.82 359.523 261.395 358.812 261.395H356.188C355.449 261.395 354.875 260.82 354.875 260.082V257.457C354.875 256.746 355.449 256.145 356.188 256.145ZM356.188 264.457V267.082H358.812V264.457H356.188ZM354.875 264.457C354.875 263.746 355.449 263.145 356.188 263.145H358.812C359.523 263.145 360.125 263.746 360.125 264.457V267.082C360.125 267.82 359.523 268.395 358.812 268.395H356.188C355.449 268.395 354.875 267.82 354.875 267.082V264.457Z" fill="#696F74"/>
<defs>
<filter id="filter0_d_103_2498" x="198" y="251.52" width="55" height="30" filterUnits="userSpaceOnUse" color-interpolation-filters="sRGB">
<feFlood flood-opacity="0" result="BackgroundImageFix"/>
<feColorMatrix in="SourceAlpha" type="matrix" values="0 0 0 0 0 0 0 0 0 0 0 0 0 0 0 0 0 0 127 0" result="hardAlpha"/>
<feOffset dy="4"/>
<feGaussianBlur stdDeviation="2.5"/>
<feColorMatrix type="matrix" values="0 0 0 0 0 0 0 0 0 0 0 0 0 0 0 0 0 0 0.06 0"/>
<feBlend mode="normal" in2="BackgroundImageFix" result="effect1_dropShadow_103_2498"/>
<feBlend mode="normal" in="SourceGraphic" in2="effect1_dropShadow_103_2498" result="shape"/>
</filter>
<linearGradient id="paint0_linear_103_2498" x1="196.529" y1="16.0605" x2="196.529" y2="307.32" gradientUnits="userSpaceOnUse">
<stop stop-color="#016A40" stop-opacity="0.8"/>
<stop offset="0.192708" stop-color="#016A40" stop-opacity="0.645833"/>
<stop offset="1" stop-opacity="0"/>
</linearGradient>
<linearGradient id="paint1_linear_103_2498" x1="588.509" y1="16.0605" x2="588.509" y2="307.32" gradientUnits="userSpaceOnUse">
<stop stop-color="#09D0A8" stop-opacity="0.8"/>
<stop offset="0.192708" stop-color="#056F59" stop-opacity="0.645833"/>
<stop offset="1" stop-opacity="0"/>
</linearGradient>
<clipPath id="clip0_103_2498">
<rect width="63.1164" height="11.1245" fill="white" transform="translate(206.6 23.6221)"/>
</clipPath>
</defs>
</svg>
