<svg width="391" height="345" viewBox="0 0 391 345" fill="none" xmlns="http://www.w3.org/2000/svg">
<mask id="mask0_4206_8821" style="mask-type:alpha" maskUnits="userSpaceOnUse" x="0" y="0" width="391" height="340">
<rect width="391" height="340" fill="#D9D9D9"/>
</mask>
<g mask="url(#mask0_4206_8821)">
<path fill-rule="evenodd" clip-rule="evenodd" d="M-0.460938 137.442V137.442C11.4557 126.908 30.2968 132.743 34.1746 148.168L45.1207 191.709C47.9956 203.145 62.4109 206.829 70.4206 198.176V198.176C74.8796 193.358 81.9724 192.04 87.8646 194.934L88.6473 195.318C96.9837 199.412 107.043 195.582 110.546 186.98L120.928 161.489C124.53 152.643 136.884 152.185 141.132 160.738V160.738C145.913 170.364 160.218 168.244 162.001 157.646L177.452 65.8334C179.564 53.2838 194.923 48.2989 204.003 57.2163V57.2163C206.946 60.107 210.906 61.7267 215.032 61.7267H221.227C229.834 61.7267 238.05 65.3174 243.897 71.6337L253.241 81.7292C258.171 87.0554 264.774 90.5361 271.954 91.5939L273.024 91.7516C281.857 93.053 289.628 98.2781 294.167 105.967L305.001 124.323C309.15 131.352 318.768 132.678 324.663 127.032V127.032C331.411 120.57 342.595 123.393 345.468 132.283L353.262 156.396C358.62 172.972 379.971 177.434 391.519 164.391V164.391V312H-0.460938V137.442Z" fill="url(#paint0_linear_4206_8821)"/>
<path d="M-0.460938 137.442V137.442C11.4557 126.908 30.2968 132.743 34.1746 148.168L45.1207 191.709C47.9956 203.145 62.4109 206.829 70.4206 198.176V198.176C74.8796 193.358 81.9724 192.04 87.8646 194.934L88.6473 195.318C96.9837 199.412 107.043 195.582 110.546 186.98L120.928 161.489C124.53 152.643 136.884 152.185 141.132 160.738V160.738C145.913 170.364 160.218 168.244 162.001 157.646L177.452 65.8334C179.564 53.2838 194.923 48.2989 204.003 57.2163V57.2163C206.946 60.107 210.906 61.7267 215.032 61.7267H221.227C229.834 61.7267 238.05 65.3174 243.897 71.6337L253.241 81.7292C258.171 87.0554 264.773 90.5361 271.954 91.5939L273.024 91.7516C281.857 93.053 289.628 98.2781 294.167 105.967L305.001 124.323C309.15 131.352 318.768 132.678 324.663 127.032V127.032C331.411 120.57 342.595 123.393 345.468 132.283L353.262 156.396C358.62 172.972 379.971 177.434 391.519 164.391V164.391" stroke="#0AA668" stroke-width="1.56831"/>
<path d="M391.318 164.78V164.78C400.531 147.133 426.67 150.217 431.524 169.523L437.101 191.709C439.976 203.145 454.391 206.829 462.401 198.176V198.176C466.86 193.358 473.953 192.04 479.845 194.934L480.628 195.318C488.964 199.412 499.024 195.582 502.527 186.98L512.909 161.489C516.511 152.643 528.864 152.185 533.112 160.738V160.738C537.893 170.364 552.198 168.244 553.982 157.646L569.433 65.8334C571.545 53.2838 586.904 48.2989 595.983 57.2163V57.2163C598.926 60.107 602.887 61.7267 607.012 61.7267H613.208C621.814 61.7267 630.031 65.3174 635.877 71.6337L645.221 81.7292C650.151 87.0554 656.754 90.5361 663.934 91.5939L665.004 91.7516C673.837 93.053 681.609 98.2781 686.147 105.967L696.981 124.323C701.13 131.352 710.748 132.678 716.643 127.032V127.032C723.391 120.57 734.575 123.393 737.449 132.283L745.243 156.396C750.6 172.972 771.951 177.434 783.499 164.391V164.391" stroke="#09D0A8" stroke-width="1.56831"/>
<path d="M2.27539 80.8574L388.724 82.095" stroke="#AAA4A4" stroke-opacity="0.5" stroke-width="1.04554" stroke-dasharray="2.09 2.09"/>
<path d="M253.594 80.9014V286.289" stroke="#AAA4A4" stroke-opacity="0.5" stroke-width="1.04554" stroke-dasharray="2.09 2.09"/>
<path d="M254.217 76.2354C257.101 76.2354 259.446 78.5785 259.446 81.4766C259.446 84.3747 257.101 86.7178 254.217 86.7178C251.334 86.7176 248.99 84.3745 248.99 81.4766C248.99 78.5786 251.334 76.2356 254.217 76.2354Z" fill="white" stroke="#1D8147" stroke-width="4.18215"/>
<path d="M218.564 35.6214V22.8941H219.379V35.6214H218.564ZM221.114 26.8415C221.061 26.3709 220.842 26.0063 220.458 25.7478C220.074 25.4859 219.59 25.355 219.006 25.355C218.589 25.355 218.227 25.4213 217.922 25.5539C217.618 25.6831 217.381 25.8621 217.212 26.0908C217.046 26.3162 216.963 26.5731 216.963 26.8614C216.963 27.1034 217.019 27.3122 217.132 27.4878C217.248 27.6635 217.399 27.811 217.584 27.9303C217.773 28.0463 217.976 28.1441 218.191 28.2236C218.406 28.2999 218.614 28.3628 218.812 28.4126L219.807 28.6711C220.132 28.7506 220.465 28.8583 220.806 28.9942C221.147 29.1301 221.464 29.3091 221.756 29.5312C222.047 29.7532 222.283 30.0283 222.462 30.3564C222.644 30.6846 222.735 31.0773 222.735 31.5347C222.735 32.1114 222.586 32.6235 222.288 33.0709C221.993 33.5184 221.563 33.8714 221 34.1299C220.44 34.3884 219.762 34.5177 218.967 34.5177C218.204 34.5177 217.545 34.3967 216.988 34.1547C216.431 33.9128 215.995 33.5698 215.68 33.1256C215.365 32.6782 215.191 32.1479 215.158 31.5347H216.699C216.729 31.9026 216.849 32.2092 217.057 32.4545C217.27 32.6964 217.54 32.877 217.868 32.9964C218.199 33.1124 218.562 33.1704 218.957 33.1704C219.391 33.1704 219.777 33.1024 220.115 32.9665C220.456 32.8273 220.725 32.6351 220.92 32.3898C221.116 32.1412 221.214 31.8512 221.214 31.5198C221.214 31.2182 221.128 30.9713 220.955 30.779C220.786 30.5868 220.556 30.4277 220.264 30.3018C219.976 30.1758 219.649 30.0648 219.285 29.9687L218.082 29.6405C217.266 29.4185 216.62 29.092 216.143 28.6611C215.669 28.2303 215.432 27.6602 215.432 26.9509C215.432 26.3643 215.591 25.8522 215.909 25.4147C216.227 24.9772 216.658 24.6375 217.202 24.3955C217.745 24.1502 218.358 24.0276 219.041 24.0276C219.73 24.0276 220.339 24.1486 220.866 24.3905C221.396 24.6325 221.814 24.9656 222.119 25.3898C222.423 25.8108 222.583 26.2947 222.596 26.8415H221.114ZM227.986 34.4878C227.532 34.4812 227.085 34.3983 226.644 34.2393C226.206 34.0802 225.809 33.815 225.451 33.4438C225.093 33.0726 224.806 32.5738 224.591 31.9474C224.379 31.3209 224.272 30.5387 224.272 29.6008C224.272 28.7125 224.36 27.9237 224.536 27.2343C224.715 26.5449 224.972 25.9632 225.307 25.4893C225.641 25.012 226.046 24.6491 226.52 24.4005C226.994 24.1519 227.526 24.0276 228.116 24.0276C228.722 24.0276 229.261 24.1469 229.731 24.3856C230.202 24.6242 230.583 24.954 230.875 25.3749C231.17 25.7958 231.357 26.2748 231.437 26.8117H229.92C229.817 26.3875 229.614 26.0411 229.309 25.7726C229.004 25.5042 228.606 25.3699 228.116 25.3699C227.37 25.3699 226.788 25.6947 226.37 26.3444C225.956 26.994 225.747 27.8972 225.744 29.0539H225.819C225.994 28.7655 226.21 28.5203 226.465 28.3181C226.723 28.1126 227.012 27.9552 227.33 27.8458C227.651 27.7331 227.99 27.6768 228.344 27.6768C228.934 27.6768 229.468 27.8209 229.945 28.1093C230.426 28.3943 230.808 28.7887 231.093 29.2925C231.379 29.7963 231.521 30.373 231.521 31.0226C231.521 31.6723 231.374 32.2606 231.079 32.7876C230.787 33.3145 230.376 33.7322 229.846 34.0404C229.315 34.3453 228.696 34.4945 227.986 34.4878ZM227.981 33.1952C228.372 33.1952 228.722 33.0991 229.03 32.9069C229.339 32.7146 229.582 32.4561 229.761 32.1313C229.94 31.8065 230.03 31.4436 230.03 31.0425C230.03 30.6514 229.942 30.2951 229.766 29.9736C229.594 29.6521 229.355 29.3969 229.05 29.208C228.749 29.0191 228.404 28.9246 228.016 28.9246C227.721 28.9246 227.448 28.981 227.196 29.0937C226.947 29.2064 226.728 29.3621 226.54 29.561C226.351 29.7599 226.201 29.9885 226.092 30.2471C225.986 30.5023 225.933 30.7724 225.933 31.0574C225.933 31.4386 226.021 31.7916 226.196 32.1164C226.375 32.4412 226.619 32.703 226.927 32.9019C227.239 33.0974 227.59 33.1952 227.981 33.1952ZM237.195 24.1668V34.3486H235.654V25.708H235.594L233.158 27.2989V25.8273L235.698 24.1668H237.195ZM240.361 34.4431C240.089 34.4431 239.855 34.347 239.66 34.1547C239.464 33.9592 239.366 33.7239 239.366 33.4488C239.366 33.177 239.464 32.945 239.66 32.7528C239.855 32.5572 240.089 32.4594 240.361 32.4594C240.632 32.4594 240.866 32.5572 241.062 32.7528C241.257 32.945 241.355 33.177 241.355 33.4488C241.355 33.6311 241.308 33.7984 241.216 33.9509C241.126 34.1001 241.007 34.2194 240.858 34.3089C240.709 34.3983 240.543 34.4431 240.361 34.4431ZM246.425 34.4878C245.712 34.4878 245.082 34.3652 244.535 34.1199C243.992 33.8747 243.566 33.5366 243.258 33.1057C242.949 32.6749 242.797 32.1843 242.8 31.6341C242.797 31.2033 242.885 30.8072 243.064 30.4459C243.246 30.0814 243.493 29.7781 243.805 29.5361C244.116 29.2909 244.464 29.1351 244.849 29.0688V29.0091C244.342 28.8865 243.936 28.6147 243.631 28.1938C243.326 27.7729 243.175 27.289 243.178 26.7421C243.175 26.2217 243.312 25.7577 243.591 25.3501C243.873 24.9391 244.259 24.6159 244.749 24.3806C245.24 24.1453 245.798 24.0276 246.425 24.0276C247.044 24.0276 247.598 24.1469 248.085 24.3856C248.576 24.6209 248.962 24.944 249.244 25.355C249.525 25.7627 249.668 26.2251 249.671 26.7421C249.668 27.289 249.512 27.7729 249.204 28.1938C248.896 28.6147 248.494 28.8865 248.001 29.0091V29.0688C248.382 29.1351 248.725 29.2909 249.03 29.5361C249.338 29.7781 249.583 30.0814 249.766 30.4459C249.951 30.8072 250.046 31.2033 250.049 31.6341C250.046 32.1843 249.89 32.6749 249.582 33.1057C249.273 33.5366 248.846 33.8747 248.299 34.1199C247.755 34.3652 247.131 34.4878 246.425 34.4878ZM246.425 33.23C246.846 33.23 247.21 33.1604 247.518 33.0212C247.827 32.8787 248.065 32.6815 248.234 32.4296C248.403 32.1744 248.489 31.8761 248.493 31.5347C248.489 31.1801 248.397 30.8669 248.214 30.5951C248.035 30.3233 247.792 30.1095 247.484 29.9537C247.175 29.798 246.822 29.7201 246.425 29.7201C246.024 29.7201 245.667 29.798 245.356 29.9537C245.044 30.1095 244.799 30.3233 244.62 30.5951C244.441 30.8669 244.353 31.1801 244.356 31.5347C244.353 31.8761 244.434 32.1744 244.6 32.4296C244.769 32.6815 245.009 32.8787 245.321 33.0212C245.632 33.1604 246 33.23 246.425 33.23ZM246.425 28.4921C246.763 28.4921 247.063 28.4242 247.324 28.2883C247.586 28.1524 247.792 27.9635 247.941 27.7215C248.093 27.4796 248.171 27.1962 248.175 26.8714C248.171 26.5532 248.095 26.2748 247.946 26.0361C247.8 25.7975 247.596 25.6135 247.334 25.4843C247.073 25.3517 246.769 25.2854 246.425 25.2854C246.073 25.2854 245.765 25.3517 245.5 25.4843C245.238 25.6135 245.034 25.7975 244.888 26.0361C244.743 26.2748 244.671 26.5532 244.675 26.8714C244.671 27.1962 244.744 27.4796 244.893 27.7215C245.043 27.9635 245.248 28.1524 245.51 28.2883C245.775 28.4242 246.08 28.4921 246.425 28.4921ZM255.375 34.4878C254.692 34.4878 254.082 34.3702 253.545 34.1349C253.012 33.8995 252.589 33.5731 252.277 33.1555C251.969 32.7345 251.803 32.2473 251.78 31.6938H253.341C253.361 31.9954 253.462 32.2573 253.645 32.4793C253.83 32.6981 254.072 32.8671 254.37 32.9864C254.669 33.1057 255 33.1654 255.365 33.1654C255.766 33.1654 256.12 33.0958 256.429 32.9566C256.74 32.8174 256.984 32.6235 257.16 32.3749C257.335 32.123 257.423 31.833 257.423 31.5049C257.423 31.1635 257.335 30.8635 257.16 30.605C256.987 30.3432 256.734 30.1377 256.399 29.9885C256.067 29.8394 255.666 29.7648 255.196 29.7648H254.336V28.512H255.196C255.574 28.512 255.905 28.444 256.19 28.3081C256.478 28.1723 256.704 27.9833 256.866 27.7414C257.029 27.4961 257.11 27.2094 257.11 26.8813C257.11 26.5664 257.039 26.293 256.896 26.061C256.757 25.8257 256.558 25.6417 256.299 25.5091C256.044 25.3766 255.743 25.3103 255.395 25.3103C255.063 25.3103 254.753 25.3716 254.465 25.4942C254.18 25.6135 253.948 25.7859 253.769 26.0113C253.59 26.2333 253.494 26.5001 253.481 26.8117H251.994C252.011 26.2615 252.173 25.7776 252.481 25.36C252.793 24.9424 253.204 24.6159 253.714 24.3806C254.225 24.1453 254.791 24.0276 255.415 24.0276C256.067 24.0276 256.631 24.1552 257.105 24.4104C257.582 24.6623 257.95 24.9987 258.209 25.4197C258.47 25.8406 258.6 26.3013 258.596 26.8018C258.6 27.3718 258.441 27.8557 258.119 28.2535C257.801 28.6512 257.377 28.918 256.846 29.0539V29.1334C257.522 29.2362 258.046 29.5046 258.417 29.9388C258.792 30.373 258.977 30.9116 258.974 31.5546C258.977 32.1147 258.822 32.6169 258.507 33.061C258.195 33.5051 257.769 33.8548 257.229 34.11C256.689 34.3619 256.071 34.4878 255.375 34.4878Z" fill="white"/>
<g clip-path="url(#clip0_4206_8821)">
<path d="M216.343 49.6074H212.499V48.6523H216.343V49.6074ZM218.142 46.4551C218.142 45.7051 218.396 45.0879 218.903 44.6035C219.415 44.1191 220.064 43.877 220.849 43.877C221.606 43.877 222.241 44.1055 222.753 44.5625C223.269 45.0156 223.526 45.5781 223.526 46.25C223.526 46.6914 223.401 47.125 223.151 47.5508C222.901 47.9766 222.431 48.5605 221.739 49.3027L219.706 51.4883V51.582H223.667V52.5312H218.194V51.8047L221.118 48.6113C221.661 48.0215 222.022 47.5723 222.202 47.2637C222.382 46.9551 222.472 46.6309 222.472 46.291C222.472 45.8691 222.312 45.5156 221.991 45.2305C221.675 44.9414 221.284 44.7969 220.819 44.7969C220.323 44.7969 219.923 44.9492 219.618 45.2539C219.314 45.5586 219.161 45.959 219.161 46.4551V46.4609H218.142V46.4551ZM226.11 52.5898C225.903 52.5898 225.724 52.5156 225.571 52.3672C225.423 52.2148 225.349 52.0352 225.349 51.8281C225.349 51.6172 225.423 51.4375 225.571 51.2891C225.724 51.1406 225.903 51.0664 226.11 51.0664C226.321 51.0664 226.501 51.1406 226.649 51.2891C226.798 51.4375 226.872 51.6172 226.872 51.8281C226.872 52.0352 226.798 52.2148 226.649 52.3672C226.501 52.5156 226.321 52.5898 226.11 52.5898ZM228.548 46.4551C228.548 45.7051 228.802 45.0879 229.31 44.6035C229.821 44.1191 230.47 43.877 231.255 43.877C232.013 43.877 232.647 44.1055 233.159 44.5625C233.675 45.0156 233.933 45.5781 233.933 46.25C233.933 46.6914 233.808 47.125 233.558 47.5508C233.308 47.9766 232.837 48.5605 232.146 49.3027L230.112 51.4883V51.582H234.073V52.5312H228.601V51.8047L231.524 48.6113C232.067 48.0215 232.429 47.5723 232.608 47.2637C232.788 46.9551 232.878 46.6309 232.878 46.291C232.878 45.8691 232.718 45.5156 232.397 45.2305C232.081 44.9414 231.69 44.7969 231.226 44.7969C230.73 44.7969 230.329 44.9492 230.024 45.2539C229.72 45.5586 229.567 45.959 229.567 46.4551V46.4609H228.548V46.4551ZM237.876 52.5312V45.248H237.782L235.632 46.8066V45.6934L237.882 44.0762H238.931V52.5312H237.876ZM244.081 44.498C244.417 44.877 244.585 45.3652 244.585 45.9629C244.585 46.5605 244.417 47.0508 244.081 47.4336C243.745 47.8125 243.314 48.002 242.786 48.002C242.259 48.002 241.825 47.8125 241.485 47.4336C241.149 47.0508 240.981 46.5605 240.981 45.9629C240.981 45.3691 241.149 44.8828 241.485 44.5039C241.825 44.1211 242.259 43.9297 242.786 43.9297C243.314 43.9297 243.745 44.1191 244.081 44.498ZM242.786 47.252C243.044 47.252 243.251 47.1348 243.407 46.9004C243.567 46.6621 243.647 46.3496 243.647 45.9629C243.647 45.5684 243.569 45.2559 243.413 45.0254C243.261 44.7949 243.052 44.6797 242.786 44.6797C242.524 44.6797 242.314 44.7969 242.153 45.0312C241.997 45.2617 241.919 45.5723 241.919 45.9629C241.919 46.3535 241.997 46.666 242.153 46.9004C242.314 47.1348 242.524 47.252 242.786 47.252ZM242.692 52.5312H241.614L244.843 48.125L247.808 44.0762H248.874L245.593 48.5645L242.692 52.5312ZM248.974 49.1738C249.31 49.5527 249.478 50.041 249.478 50.6387C249.478 51.2363 249.31 51.7266 248.974 52.1094C248.638 52.4883 248.206 52.6777 247.679 52.6777C247.151 52.6777 246.718 52.4883 246.378 52.1094C246.042 51.7266 245.874 51.2363 245.874 50.6387C245.874 50.0449 246.042 49.5586 246.378 49.1797C246.718 48.7969 247.151 48.6055 247.679 48.6055C248.206 48.6055 248.638 48.7949 248.974 49.1738ZM247.679 51.9277C247.937 51.9277 248.144 51.8105 248.3 51.5762C248.46 51.3379 248.54 51.0254 248.54 50.6387C248.54 50.2441 248.462 49.9316 248.306 49.7012C248.153 49.4707 247.944 49.3555 247.679 49.3555C247.417 49.3555 247.206 49.4727 247.046 49.707C246.89 49.9375 246.812 50.248 246.812 50.6387C246.812 51.0293 246.89 51.3418 247.046 51.5762C247.206 51.8105 247.417 51.9277 247.679 51.9277Z" fill="#F72727"/>
</g>
</g>
<path d="M31.9588 321.773H33.5568L36.3352 328.557H36.4375L39.2159 321.773H40.8139V330.5H39.5611V324.185H39.4801L36.9062 330.487H35.8665L33.2926 324.18H33.2116V330.5H31.9588V321.773ZM44.5021 330.645C44.0873 330.645 43.7123 330.568 43.3771 330.415C43.0419 330.259 42.7762 330.033 42.5802 329.737C42.387 329.442 42.2904 329.08 42.2904 328.651C42.2904 328.281 42.3615 327.977 42.5035 327.739C42.6456 327.5 42.8373 327.311 43.0788 327.172C43.3203 327.033 43.5902 326.928 43.8885 326.857C44.1868 326.786 44.4907 326.732 44.8004 326.695C45.1924 326.649 45.5106 326.612 45.7549 326.584C45.9993 326.553 46.1768 326.503 46.2876 326.435C46.3984 326.366 46.4538 326.256 46.4538 326.102V326.072C46.4538 325.7 46.3487 325.412 46.1385 325.207C45.9311 325.003 45.6214 324.901 45.2095 324.901C44.7805 324.901 44.4424 324.996 44.1953 325.186C43.951 325.374 43.7819 325.582 43.6882 325.812L42.4907 325.54C42.6328 325.142 42.8402 324.821 43.1129 324.577C43.3885 324.33 43.7052 324.151 44.0632 324.04C44.4211 323.926 44.7975 323.869 45.1924 323.869C45.4538 323.869 45.7308 323.901 46.0234 323.963C46.3189 324.023 46.5944 324.134 46.8501 324.295C47.1086 324.457 47.3203 324.689 47.485 324.99C47.6498 325.288 47.7322 325.676 47.7322 326.153V330.5H46.4879V329.605H46.4368C46.3544 329.77 46.2308 329.932 46.066 330.091C45.9012 330.25 45.6896 330.382 45.4311 330.487C45.1725 330.592 44.8629 330.645 44.5021 330.645ZM44.7791 329.622C45.1314 329.622 45.4325 329.553 45.6825 329.413C45.9353 329.274 46.1271 329.092 46.2578 328.868C46.3913 328.641 46.4581 328.398 46.4581 328.139V327.295C46.4126 327.341 46.3245 327.384 46.1939 327.423C46.066 327.46 45.9197 327.493 45.7549 327.521C45.5902 327.547 45.4297 327.571 45.2734 327.594C45.1172 327.614 44.9865 327.631 44.8814 327.645C44.6342 327.676 44.4083 327.729 44.2038 327.803C44.0021 327.876 43.8402 327.983 43.718 328.122C43.5987 328.259 43.539 328.44 43.539 328.668C43.539 328.983 43.6555 329.222 43.8885 329.384C44.1214 329.543 44.4183 329.622 44.7791 329.622ZM50.4062 323.955L51.8508 326.503L53.3082 323.955H54.7016L52.6604 327.227L54.7187 330.5H53.3252L51.8508 328.054L50.3806 330.5H48.9829L51.0198 327.227L49.0085 323.955H50.4062Z" fill="#C4C4C4"/>
<path d="M75.1506 321.773V330.5H73.8295V323.094H73.7784L71.6903 324.457V323.196L73.8679 321.773H75.1506ZM77.6019 330.5V321.773H78.9186V325.565H83.2695V321.773H84.5905V330.5H83.2695V326.695H78.9186V330.5H77.6019Z" fill="#C4C4C4"/>
<path d="M101.656 328.795V327.73L105.428 321.773H106.267V323.341H105.734L103.037 327.611V327.679H108.206V328.795H101.656ZM105.794 330.5V328.472L105.803 327.986V321.773H107.051V330.5H105.794ZM109.782 330.5V321.773H111.098V325.565H115.449V321.773H116.77V330.5H115.449V326.695H111.098V330.5H109.782Z" fill="#C4C4C4"/>
<path d="M136.886 330.619C136.497 330.614 136.114 330.543 135.736 330.406C135.361 330.27 135.02 330.043 134.713 329.724C134.406 329.406 134.161 328.979 133.976 328.442C133.794 327.905 133.703 327.234 133.703 326.43C133.703 325.669 133.778 324.993 133.929 324.402C134.082 323.811 134.303 323.312 134.589 322.906C134.876 322.497 135.223 322.186 135.629 321.973C136.036 321.76 136.491 321.653 136.997 321.653C137.517 321.653 137.979 321.756 138.382 321.96C138.786 322.165 139.112 322.447 139.362 322.808C139.615 323.169 139.776 323.58 139.844 324.04H138.544C138.456 323.676 138.281 323.379 138.02 323.149C137.759 322.919 137.418 322.804 136.997 322.804C136.358 322.804 135.859 323.082 135.501 323.639C135.146 324.196 134.967 324.97 134.964 325.962H135.028C135.179 325.714 135.364 325.504 135.582 325.331C135.804 325.155 136.051 325.02 136.324 324.926C136.599 324.83 136.889 324.781 137.193 324.781C137.699 324.781 138.156 324.905 138.565 325.152C138.977 325.396 139.305 325.734 139.55 326.166C139.794 326.598 139.916 327.092 139.916 327.649C139.916 328.206 139.79 328.71 139.537 329.162C139.287 329.614 138.935 329.972 138.48 330.236C138.026 330.497 137.494 330.625 136.886 330.619ZM136.882 329.511C137.217 329.511 137.517 329.429 137.781 329.264C138.045 329.099 138.254 328.878 138.408 328.599C138.561 328.321 138.638 328.01 138.638 327.666C138.638 327.331 138.563 327.026 138.412 326.75C138.264 326.474 138.06 326.256 137.798 326.094C137.54 325.932 137.244 325.851 136.912 325.851C136.659 325.851 136.425 325.899 136.209 325.996C135.996 326.092 135.808 326.226 135.646 326.396C135.484 326.567 135.357 326.763 135.263 326.984C135.172 327.203 135.126 327.435 135.126 327.679C135.126 328.006 135.202 328.308 135.352 328.587C135.506 328.865 135.714 329.089 135.979 329.26C136.246 329.428 136.547 329.511 136.882 329.511ZM141.559 330.5V321.773H142.876V325.565H147.227V321.773H148.548V330.5H147.227V326.695H142.876V330.5H141.559Z" fill="#C4C4C4"/>
<path d="M169.151 321.773V330.5H167.83V323.094H167.778L165.69 324.457V323.196L167.868 321.773H169.151ZM171.483 330.5V329.545L174.436 326.486C174.751 326.153 175.011 325.862 175.216 325.612C175.423 325.359 175.578 325.119 175.68 324.892C175.782 324.665 175.833 324.423 175.833 324.168C175.833 323.878 175.765 323.628 175.629 323.418C175.493 323.205 175.306 323.041 175.071 322.928C174.835 322.811 174.569 322.753 174.274 322.753C173.961 322.753 173.689 322.817 173.456 322.945C173.223 323.072 173.044 323.253 172.919 323.486C172.794 323.719 172.731 323.991 172.731 324.304H171.474C171.474 323.773 171.596 323.308 171.841 322.911C172.085 322.513 172.42 322.205 172.846 321.986C173.272 321.764 173.757 321.653 174.299 321.653C174.848 321.653 175.331 321.763 175.748 321.982C176.169 322.197 176.497 322.493 176.733 322.868C176.968 323.24 177.086 323.661 177.086 324.129C177.086 324.453 177.025 324.77 176.903 325.08C176.784 325.389 176.575 325.734 176.277 326.115C175.978 326.493 175.564 326.952 175.032 327.491L173.298 329.307V329.371H177.227V330.5H171.483ZM178.932 330.5V321.773H180.249V325.565H184.6V321.773H185.921V330.5H184.6V326.695H180.249V330.5H178.932Z" fill="#C4C4C4"/>
<g filter="url(#filter0_d_4206_8821)">
<rect x="202" y="316" width="45" height="20" rx="10" fill="#252525"/>
</g>
<path d="M222.151 321.773V330.5H220.83V323.094H220.778L218.69 324.457V323.196L220.868 321.773H222.151ZM227.427 330.5H224.602V321.773H227.517C228.372 321.773 229.106 321.947 229.72 322.297C230.333 322.643 230.804 323.142 231.13 323.793C231.46 324.44 231.625 325.217 231.625 326.124C231.625 327.033 231.458 327.814 231.126 328.467C230.796 329.121 230.319 329.624 229.694 329.976C229.069 330.325 228.314 330.5 227.427 330.5ZM225.919 329.349H227.355C228.019 329.349 228.572 329.224 229.012 328.974C229.453 328.722 229.782 328.357 230.001 327.879C230.22 327.399 230.329 326.814 230.329 326.124C230.329 325.439 230.22 324.858 230.001 324.381C229.785 323.903 229.463 323.541 229.034 323.294C228.605 323.047 228.072 322.923 227.436 322.923H225.919V329.349Z" fill="white"/>
<path d="M266.151 321.773V330.5H264.83V323.094H264.778L262.69 324.457V323.196L264.868 321.773H266.151ZM270.311 330.5L267.89 321.773H269.275L270.975 328.531H271.056L272.825 321.773H274.197L275.966 328.536H276.046L277.743 321.773H279.132L276.707 330.5H275.382L273.545 323.963H273.477L271.64 330.5H270.311Z" fill="#C4C4C4"/>
<path d="M297.625 318.96V333.312H296.483V318.96H297.625Z" fill="#C4C4C4"/>
<path d="M324.625 322.031C324.625 321.676 324.898 321.375 325.281 321.375H330.094C330.449 321.375 330.75 321.676 330.75 322.031V326.844C330.75 327.227 330.449 327.5 330.094 327.5C329.711 327.5 329.438 327.227 329.438 326.844V323.617L324.215 328.84C323.941 329.113 323.531 329.113 323.285 328.84L320.25 325.805L316.121 329.934C315.848 330.207 315.438 330.207 315.191 329.934C314.918 329.688 314.918 329.277 315.191 329.031L319.785 324.41C320.031 324.164 320.441 324.164 320.688 324.41L323.723 327.445L328.508 322.688H325.281C324.898 322.688 324.625 322.414 324.625 322.031Z" fill="#696F74"/>
<path d="M348.188 320.938V323.562H350.812V320.938H348.188ZM346.875 320.938C346.875 320.227 347.449 319.625 348.188 319.625H350.812C351.523 319.625 352.125 320.227 352.125 320.938V323.562C352.125 324.301 351.523 324.875 350.812 324.875H348.188C347.449 324.875 346.875 324.301 346.875 323.562V320.938ZM348.188 327.938V330.562H350.812V327.938H348.188ZM346.875 327.938C346.875 327.227 347.449 326.625 348.188 326.625H350.812C351.523 326.625 352.125 327.227 352.125 327.938V330.562C352.125 331.301 351.523 331.875 350.812 331.875H348.188C347.449 331.875 346.875 331.301 346.875 330.562V327.938ZM357.812 320.938H355.188V323.562H357.812V320.938ZM355.188 319.625H357.812C358.523 319.625 359.125 320.227 359.125 320.938V323.562C359.125 324.301 358.523 324.875 357.812 324.875H355.188C354.449 324.875 353.875 324.301 353.875 323.562V320.938C353.875 320.227 354.449 319.625 355.188 319.625ZM355.188 327.938V330.562H357.812V327.938H355.188ZM353.875 327.938C353.875 327.227 354.449 326.625 355.188 326.625H357.812C358.523 326.625 359.125 327.227 359.125 327.938V330.562C359.125 331.301 358.523 331.875 357.812 331.875H355.188C354.449 331.875 353.875 331.301 353.875 330.562V327.938Z" fill="#696F74"/>
<defs>
<filter id="filter0_d_4206_8821" x="197" y="315" width="55" height="30" filterUnits="userSpaceOnUse" color-interpolation-filters="sRGB">
<feFlood flood-opacity="0" result="BackgroundImageFix"/>
<feColorMatrix in="SourceAlpha" type="matrix" values="0 0 0 0 0 0 0 0 0 0 0 0 0 0 0 0 0 0 127 0" result="hardAlpha"/>
<feOffset dy="4"/>
<feGaussianBlur stdDeviation="2.5"/>
<feColorMatrix type="matrix" values="0 0 0 0 0 0 0 0 0 0 0 0 0 0 0 0 0 0 0.06 0"/>
<feBlend mode="normal" in2="BackgroundImageFix" result="effect1_dropShadow_4206_8821"/>
<feBlend mode="normal" in="SourceGraphic" in2="effect1_dropShadow_4206_8821" result="shape"/>
</filter>
<linearGradient id="paint0_linear_4206_8821" x1="195.529" y1="36.0605" x2="195.529" y2="327.32" gradientUnits="userSpaceOnUse">
<stop stop-color="#016A40" stop-opacity="0.8"/>
<stop offset="0.192708" stop-color="#016A40" stop-opacity="0.645833"/>
<stop offset="1" stop-opacity="0"/>
</linearGradient>
<clipPath id="clip0_4206_8821">
<rect width="63.1164" height="11.1245" fill="white" transform="translate(205.6 43.6221)"/>
</clipPath>
</defs>
</svg>
