<svg width="28" height="28" viewBox="0 0 28 28" fill="none" xmlns="http://www.w3.org/2000/svg">
<rect width="28" height="28" rx="14" fill="#FFF7D0"/>
<path d="M5.6665 11.1407C5.6665 10.1439 6.06849 9.53302 6.90036 9.07007L10.3247 7.16437C12.1191 6.1658 13.0163 5.6665 13.9998 5.6665C14.9834 5.6665 15.8806 6.1658 17.6749 7.16437L21.0993 9.07007C21.9312 9.53302 22.3332 10.1439 22.3332 11.1407C22.3332 11.411 22.3332 11.5462 22.3037 11.6573C22.1486 12.241 21.6196 12.3332 21.1088 12.3332H6.8909C6.38006 12.3332 5.8511 12.241 5.69602 11.6573C5.6665 11.5462 5.6665 11.411 5.6665 11.1407Z" stroke="#353334" stroke-width="1.25"/>
<path d="M13.9966 9.8335H14.0041" stroke="#353334" stroke-width="1.66667" stroke-linecap="round" stroke-linejoin="round"/>
<path d="M7.3335 12.3335V19.4168M10.6668 12.3335V19.4168" stroke="#353334" stroke-width="1.25"/>
<path d="M17.3335 12.3335V19.4168M20.6668 12.3335V19.4168" stroke="#353334" stroke-width="1.25"/>
<path d="M19.8332 19.4165H8.1665C6.7858 19.4165 5.6665 20.5358 5.6665 21.9165C5.6665 22.1466 5.85305 22.3332 6.08317 22.3332H21.9165C22.1466 22.3332 22.3332 22.1466 22.3332 21.9165C22.3332 20.5358 21.2139 19.4165 19.8332 19.4165Z" stroke="#353334" stroke-width="1.25"/>
</svg>
