<svg width="25" height="24" viewBox="0 0 25 24" fill="none" xmlns="http://www.w3.org/2000/svg">
<path d="M24.1412 14.9029C22.5385 21.3315 16.0274 25.2438 9.59796 23.6407C3.17126 22.0381 -0.741078 15.5265 0.862312 9.09837C2.46429 2.66903 8.97546 -1.24361 15.4029 0.359081C21.8318 1.96177 25.7439 8.47405 24.141 14.903L24.1412 14.9029H24.1412Z" fill="#F7931A"/>
<path fill-rule="evenodd" clip-rule="evenodd" d="M17.793 10.2903C18.0318 8.6934 16.816 7.83498 15.1535 7.26233L15.6929 5.09914L14.3761 4.77103L13.851 6.87726C13.5049 6.79092 13.1493 6.70957 12.796 6.62892L13.3248 4.50878L12.0089 4.18066L11.4692 6.34315C11.1828 6.27793 10.9014 6.21347 10.6284 6.14554L10.6299 6.13874L8.81404 5.68528L8.46376 7.09171C8.46376 7.09171 9.44071 7.31565 9.42012 7.32944C9.95336 7.46252 10.0498 7.81551 10.0338 8.09529L9.41942 10.5597C9.45614 10.569 9.50377 10.5825 9.55632 10.6036L9.51805 10.5941L9.51802 10.594C9.48554 10.5859 9.45179 10.5775 9.41713 10.5692L8.55602 14.0214C8.49085 14.1834 8.32545 14.4266 7.95264 14.3342C7.96583 14.3534 6.99556 14.0954 6.99556 14.0954L6.3418 15.6027L8.0554 16.0299C8.24304 16.077 8.42847 16.1253 8.61201 16.1731L8.61204 16.1731C8.74032 16.2066 8.86768 16.2398 8.99423 16.2721L8.44933 18.4601L9.7646 18.7883L10.3042 16.6235C10.6635 16.721 11.0123 16.811 11.3536 16.8958L10.8158 19.0504L12.1327 19.3785L12.6775 17.1946C14.923 17.6196 16.6113 17.4482 17.322 15.4172C17.8946 13.7821 17.2935 12.8389 16.1122 12.2238C16.9726 12.0254 17.6207 11.4595 17.7935 10.2905L17.7931 10.2902L17.793 10.2903ZM14.7845 14.5091C14.4111 16.0093 12.0628 15.3891 10.9884 15.1053C10.8918 15.0798 10.8054 15.057 10.7318 15.0387L11.4549 12.14C11.5446 12.1624 11.6544 12.187 11.7787 12.2149C12.89 12.4643 15.167 12.9753 14.7845 14.5091H14.7845ZM12.0016 10.8696C12.8973 11.1086 14.8514 11.6301 15.1917 10.2666H15.1918C15.5393 8.87206 13.6403 8.45161 12.7128 8.24627C12.6085 8.22317 12.5164 8.20279 12.4413 8.18405L11.7857 10.813C11.8476 10.8285 11.9202 10.8478 12.0016 10.8696Z" fill="#FEFEFF"/>
</svg>
