<svg width="36" height="37" viewBox="0 0 36 37" fill="none" xmlns="http://www.w3.org/2000/svg">
<rect y="0.5" width="36" height="36" rx="18" fill="white" fill-opacity="0.5"/>
<path d="M13 8.5C13 7.94772 12.5523 7.5 12 7.5C11.4477 7.5 11 7.94772 11 8.5V8.94885C11.3803 8.82821 11.7855 8.74208 12.2153 8.67961C12.4633 8.64357 12.7247 8.61476 13 8.59173V8.5Z" fill="#171415"/>
<path d="M25 8.94885C24.6197 8.82821 24.2145 8.74208 23.7847 8.67961C23.5367 8.64357 23.2753 8.61476 23 8.59173V8.5C23 7.94772 23.4477 7.5 24 7.5C24.5523 7.5 25 7.94772 25 8.5V8.94885Z" fill="#171415"/>
<path fill-rule="evenodd" clip-rule="evenodd" d="M19.0288 8.5H16.9712C15.0229 8.49997 13.4514 8.49994 12.2153 8.67961C10.9253 8.8671 9.8568 9.26781 9.01802 10.1746C8.18949 11.0703 7.83279 12.1927 7.66416 13.5487C7.49997 14.8689 7.49998 16.5541 7.5 18.6739V19.3261C7.49998 21.4459 7.49997 23.1311 7.66416 24.4513C7.83279 25.8073 8.18949 26.9297 9.01802 27.8254C9.8568 28.7322 10.9253 29.1329 12.2153 29.3204C13.4514 29.5001 15.0229 29.5 16.9712 29.5H19.0288C20.9771 29.5 22.5486 29.5001 23.7847 29.3204C25.0747 29.1329 26.1432 28.7322 26.982 27.8254C27.8105 26.9297 28.1672 25.8073 28.3358 24.4513C28.5 23.1311 28.5 21.4459 28.5 19.3261V18.6739C28.5 16.5541 28.5 14.8689 28.3358 13.5487C28.1672 12.1927 27.8105 11.0703 26.982 10.1746C26.1432 9.26781 25.0747 8.8671 23.7847 8.67961C22.5486 8.49994 20.9771 8.49997 19.0288 8.5ZM10.4978 15.5C10.0392 15.5 9.8099 15.5 9.66385 15.6442C9.51781 15.7883 9.51487 16.0147 9.509 16.4675C9.50027 17.1407 9.5 17.8942 9.5 18.7432V19.2568C9.5 21.4616 9.50182 23.0221 9.64887 24.2045C9.79327 25.3656 10.0626 26.0094 10.4862 26.4673C10.8996 26.9142 11.4647 27.1903 12.503 27.3412C13.5786 27.4975 15.0043 27.5 17.05 27.5H18.95C20.9957 27.5 22.4214 27.4975 23.497 27.3412C24.5353 27.1903 25.1004 26.9142 25.5138 26.4673C25.9374 26.0094 26.2067 25.3656 26.3511 24.2045C26.4982 23.0221 26.5 21.4616 26.5 19.2568V18.7432C26.5 17.8942 26.4997 17.1407 26.491 16.4675C26.4851 16.0147 26.4822 15.7883 26.3362 15.6442C26.1901 15.5 25.9608 15.5 25.5022 15.5H10.4978Z" fill="#171415"/>
<path fill-rule="evenodd" clip-rule="evenodd" d="M12.75 19.5C12.75 18.8096 13.3096 18.25 14 18.25H14.009C14.6993 18.25 15.259 18.8096 15.259 19.5C15.259 20.1904 14.6993 20.75 14.009 20.75H14C13.3096 20.75 12.75 20.1904 12.75 19.5ZM16.7455 19.5C16.7455 18.8096 17.3052 18.25 17.9955 18.25H18.0045C18.6948 18.25 19.2545 18.8096 19.2545 19.5C19.2545 20.1904 18.6948 20.75 18.0045 20.75H17.9955C17.3052 20.75 16.7455 20.1904 16.7455 19.5ZM20.741 19.5C20.741 18.8096 21.3007 18.25 21.991 18.25H22C22.6904 18.25 23.25 18.8096 23.25 19.5C23.25 20.1904 22.6904 20.75 22 20.75H21.991C21.3007 20.75 20.741 20.1904 20.741 19.5ZM12.75 23.5C12.75 22.8096 13.3096 22.25 14 22.25H14.009C14.6993 22.25 15.259 22.8096 15.259 23.5C15.259 24.1904 14.6993 24.75 14.009 24.75H14C13.3096 24.75 12.75 24.1904 12.75 23.5ZM16.7455 23.5C16.7455 22.8096 17.3052 22.25 17.9955 22.25H18.0045C18.6948 22.25 19.2545 22.8096 19.2545 23.5C19.2545 24.1904 18.6948 24.75 18.0045 24.75H17.9955C17.3052 24.75 16.7455 24.1904 16.7455 23.5Z" fill="#171415"/>
</svg>
