<svg width="27" height="16" viewBox="0 0 27 16" fill="none" xmlns="http://www.w3.org/2000/svg">
<rect x="0.333252" y="1.06641" width="23.4667" height="14.9333" rx="1.06667" fill="#DBDBDB"/>
<rect x="0.333252" y="3.2002" width="23.4667" height="3.2" fill="#B0B0B0"/>
<rect x="2.4668" y="8.5332" width="19.2" height="2.13333" rx="1.06667" fill="white"/>
<circle cx="21.6666" cy="5.33333" r="5.33333" fill="#4C4C4C"/>
<path d="M19.2673 3.33333V7.13281H18.5356V4.22917L17.8116 4.50781V3.89844L19.1866 3.33333H19.2673ZM21.0017 4.90104H21.3585C21.4488 4.90104 21.5234 4.88021 21.5824 4.83854C21.6415 4.79514 21.6849 4.73437 21.7126 4.65625C21.7404 4.57639 21.7543 4.48351 21.7543 4.3776C21.7543 4.28385 21.7413 4.20139 21.7153 4.13021C21.6892 4.05729 21.6493 4 21.5955 3.95833C21.5416 3.91493 21.4739 3.89323 21.3923 3.89323C21.3298 3.89323 21.2708 3.91059 21.2153 3.94531C21.1614 3.9783 21.1189 4.02691 21.0876 4.09115C21.0564 4.15538 21.0408 4.23177 21.0408 4.32031H20.309C20.309 4.11198 20.3559 3.93056 20.4496 3.77604C20.5451 3.62153 20.6736 3.50174 20.835 3.41667C20.9965 3.32986 21.1753 3.28646 21.3715 3.28646C21.592 3.28646 21.7856 3.32726 21.9522 3.40885C22.1189 3.49045 22.2491 3.61198 22.3429 3.77344C22.4366 3.93316 22.4835 4.13108 22.4835 4.36719C22.4835 4.48872 22.4609 4.6059 22.4158 4.71875C22.3706 4.82986 22.3047 4.93056 22.2179 5.02083C22.131 5.11111 22.0251 5.18229 21.9001 5.23437C21.7751 5.28646 21.6337 5.3125 21.4757 5.3125H21.0017V4.90104ZM21.0017 5.49219V5.09375H21.4757C21.6545 5.09375 21.8099 5.11719 21.9418 5.16406C22.0738 5.2092 22.1831 5.27517 22.2699 5.36198C22.3585 5.44878 22.4245 5.55208 22.4679 5.67187C22.5113 5.78993 22.533 5.92187 22.533 6.06771C22.533 6.24479 22.5034 6.40278 22.4444 6.54167C22.3854 6.68056 22.3029 6.79774 22.197 6.89323C22.0911 6.98872 21.9679 7.06163 21.8272 7.11198C21.6866 7.16059 21.5338 7.1849 21.3689 7.1849C21.2317 7.1849 21.0972 7.16319 20.9653 7.11979C20.835 7.07639 20.7179 7.00955 20.6137 6.91927C20.5095 6.82899 20.4271 6.71528 20.3663 6.57812C20.3055 6.44097 20.2751 6.27865 20.2751 6.09115H21.0043C21.0043 6.1849 21.0208 6.2691 21.0538 6.34375C21.0885 6.41667 21.1345 6.47396 21.1918 6.51562C21.2491 6.55729 21.3142 6.57812 21.3871 6.57812C21.4722 6.57812 21.546 6.55642 21.6085 6.51302C21.671 6.46962 21.7187 6.40885 21.7517 6.33073C21.7847 6.2526 21.8012 6.16233 21.8012 6.0599C21.8012 5.92448 21.7838 5.81597 21.7491 5.73437C21.7144 5.65104 21.664 5.59028 21.5981 5.55208C21.5321 5.51215 21.4522 5.49219 21.3585 5.49219H21.0017ZM23.7048 5.41406L23.1215 5.26823L23.3116 3.34115H25.1423V3.96615H23.9106L23.8403 4.78125C23.8802 4.75347 23.9392 4.72309 24.0173 4.6901C24.0972 4.65712 24.1857 4.64062 24.283 4.64062C24.4409 4.64062 24.5798 4.66927 24.6996 4.72656C24.8212 4.78385 24.9236 4.86719 25.0069 4.97656C25.0903 5.08594 25.1536 5.21962 25.197 5.3776C25.2404 5.53559 25.2621 5.71441 25.2621 5.91406C25.2621 6.08247 25.2396 6.24306 25.1944 6.39583C25.1493 6.54861 25.0798 6.68403 24.9861 6.80208C24.8923 6.92014 24.776 7.01389 24.6371 7.08333C24.5 7.15104 24.3376 7.1849 24.1501 7.1849C24.0095 7.1849 23.8741 7.16059 23.7439 7.11198C23.6137 7.06337 23.4965 6.99132 23.3923 6.89583C23.2882 6.79861 23.2048 6.68229 23.1423 6.54687C23.0798 6.40972 23.0486 6.25347 23.0486 6.07812H23.7699C23.7786 6.18056 23.7986 6.2691 23.8298 6.34375C23.8628 6.4184 23.9062 6.47656 23.96 6.51823C24.0139 6.55816 24.0764 6.57812 24.1475 6.57812C24.2187 6.57812 24.2786 6.56076 24.3272 6.52604C24.3776 6.48958 24.4175 6.43924 24.447 6.375C24.4765 6.31076 24.4974 6.23611 24.5095 6.15104C24.5234 6.06424 24.5304 5.97135 24.5304 5.8724C24.5304 5.7717 24.5217 5.68056 24.5043 5.59896C24.487 5.51736 24.46 5.44705 24.4236 5.38802C24.3871 5.32899 24.3394 5.28385 24.2804 5.2526C24.2231 5.22135 24.1562 5.20573 24.0798 5.20573C23.9722 5.20573 23.8915 5.2283 23.8376 5.27344C23.7856 5.31684 23.7413 5.36372 23.7048 5.41406Z" fill="white"/>
</svg>
