<svg width="26" height="18" viewBox="0 0 26 18" fill="none" xmlns="http://www.w3.org/2000/svg">
<rect x="0.364014" y="0.210938" width="25.6359" height="17.5789" rx="1.46491" fill="#232342"/>
<path d="M11.5339 17.7897L25.9999 13.5781V16.3248C25.9999 17.1339 25.3441 17.7897 24.535 17.7897H11.5339Z" fill="#FD6020"/>
<path d="M10.894 7.25053C11.1726 7.25053 11.4912 7.29039 11.73 7.44779V8.2349C11.531 7.9988 11.2124 7.84137 10.894 7.84135C10.2574 7.8807 9.73999 8.43143 9.77979 9.06108V9.14018C9.78003 9.76959 10.2976 10.2417 10.9341 10.2417C11.2523 10.2416 11.5311 10.0842 11.73 9.84818V10.6353C11.4514 10.7534 11.1723 10.8316 10.854 10.8316C9.85939 10.8315 9.06415 10.0056 9.06396 9.02201C9.06396 7.99885 9.85943 7.17182 10.894 7.25053ZM17.1411 9.61186L18.0962 7.25053H18.813L17.3403 10.8316H16.9819L15.5103 7.25053H16.2261L17.1411 9.61186ZM7.71045 7.1724C8.06858 7.1724 8.42702 7.32984 8.70557 7.56596L8.34717 8.03764C8.18814 7.88044 7.98926 7.76241 7.79053 7.76225C7.55189 7.72291 7.35292 7.91984 7.31299 8.1558C7.31299 8.35254 7.43177 8.43202 7.82959 8.5894C8.6253 8.90416 8.8249 9.1398 8.86475 9.61186V9.73002C8.82495 10.3597 8.30709 10.8319 7.67041 10.7925C7.19301 10.7924 6.71575 10.5564 6.47705 10.1236L6.91455 9.69096C7.03394 9.9664 7.31303 10.1626 7.63135 10.1626H7.67041C7.90905 10.1626 8.14771 9.92719 8.14795 9.6519C8.14795 9.49463 8.0689 9.37611 7.94971 9.2974C7.79063 9.21874 7.63125 9.13951 7.47217 9.10014C6.83548 8.90337 6.63623 8.62803 6.63623 8.1558V8.11674C6.67602 7.56583 7.15338 7.13309 7.71045 7.1724ZM3.57178 7.25053C4.52663 7.2899 5.28319 8.07776 5.24365 9.02201C5.2436 9.53339 5.00462 10.0058 4.60693 10.3599C4.24891 10.6353 3.81112 10.7927 3.37354 10.7535H2.37842V7.25053H3.57178ZM6.19873 10.7535H5.52197V7.25053H6.19873V10.7535ZM21.0415 7.84135H19.8071V8.62846H21.0015V9.2183H19.8071V10.1626H21.0415V10.7535H19.1313V7.25053H21.0415V7.84135ZM22.4741 7.25053C23.2695 7.25062 23.7072 7.60546 23.7075 8.27397C23.7473 8.78548 23.389 9.21861 22.9116 9.2974L23.9858 10.7535H23.1509L22.2349 9.33647H22.1558V10.7535H21.479V7.25053H22.4741ZM3.25342 7.84135H3.05518V10.1626H3.25342C3.57176 10.202 3.93068 10.084 4.16943 9.88725C4.40782 9.65119 4.52686 9.33587 4.52686 8.98197C4.52665 8.66755 4.4078 8.35262 4.16943 8.11674C3.93071 7.92009 3.57165 7.80205 3.25342 7.84135ZM22.1558 8.86381H22.355C22.7923 8.86365 22.9917 8.66705 22.9917 8.31303C22.9914 7.99877 22.792 7.80147 22.355 7.80131H22.1558V8.86381Z" fill="white"/>
<path fill-rule="evenodd" clip-rule="evenodd" d="M13.7594 7.16895C12.7646 7.16895 11.929 7.956 11.929 8.97916C11.929 9.96298 12.7248 10.7894 13.7594 10.8287C14.794 10.8681 15.5899 10.0417 15.6297 9.01852C15.5899 7.99535 14.794 7.16895 13.7594 7.16895V7.16895Z" fill="#FD6020"/>
</svg>
