<svg width="27" height="20" viewBox="0 0 27 20" fill="none" xmlns="http://www.w3.org/2000/svg">
<rect x="0.416748" y="0.960938" width="26.1359" height="18.0789" rx="1.71491" fill="white" stroke="#E5E5E5" stroke-width="0.5"/>
<path d="M11.6346 12.9907H10.1851L11.0917 7.38477H12.5411L11.6346 12.9907Z" fill="#142EBD"/>
<path d="M16.8887 7.52187C16.6028 7.40844 16.1493 7.2832 15.5886 7.2832C14.1571 7.2832 13.1491 8.04652 13.1429 9.13784C13.131 9.94301 13.8646 10.3902 14.4133 10.6587C14.9741 10.933 15.1647 11.1121 15.1647 11.3566C15.159 11.7322 14.7116 11.9053 14.2943 11.9053C13.7155 11.9053 13.4055 11.816 12.9342 11.6071L12.7434 11.5175L12.5405 12.7759C12.8805 12.9308 13.5068 13.0683 14.1571 13.0743C15.6781 13.0743 16.6682 12.3228 16.68 11.1598C16.6858 10.5216 16.2984 10.0327 15.4633 9.63309C14.9563 9.37658 14.6458 9.20363 14.6458 8.94118C14.6517 8.7026 14.9084 8.45822 15.4807 8.45822C15.9519 8.44625 16.2982 8.55952 16.5604 8.67287L16.6915 8.7324L16.8887 7.52187Z" fill="#142EBD"/>
<path d="M18.8159 11.0047C18.9353 10.6827 19.3946 9.43622 19.3946 9.43622C19.3886 9.44818 19.5137 9.10822 19.5853 8.89951L19.6866 9.38255C19.6866 9.38255 19.9611 10.7244 20.0207 11.0047C19.7942 11.0047 19.1022 11.0047 18.8159 11.0047ZM20.6051 7.38477H19.4839C19.1382 7.38477 18.8755 7.48607 18.7263 7.84989L16.5732 12.9906H18.0942C18.0942 12.9906 18.3446 12.2987 18.3984 12.1497C18.5652 12.1497 20.0448 12.1497 20.2594 12.1497C20.3011 12.3465 20.4324 12.9906 20.4324 12.9906H21.7745L20.6051 7.38477V7.38477Z" fill="#142EBD"/>
<path d="M8.97423 7.38477L7.55468 11.2075L7.39956 10.4322C7.13711 9.5376 6.31403 8.56565 5.39551 8.08237L6.69577 12.9847H8.22859L10.507 7.38477H8.97423V7.38477Z" fill="#142EBD"/>
<path d="M6.2366 7.38477H3.90447L3.88062 7.49803C5.69982 7.96324 6.90464 9.0846 7.39965 10.4324L6.89267 7.85599C6.80921 7.49796 6.55271 7.39658 6.2366 7.38477Z" fill="#142EBD"/>
</svg>
