<svg width="26" height="18" viewBox="0 0 26 18" fill="none" xmlns="http://www.w3.org/2000/svg">
<rect x="0.232422" y="0.210938" width="25.6359" height="17.5789" rx="1.46491" fill="black"/>
<path d="M16.4758 3.87305C19.236 3.87324 21.4739 6.13738 21.4739 8.92969C21.4737 11.7218 19.2359 13.9852 16.4758 13.9854C15.238 13.9854 14.1057 13.5294 13.2327 12.7754C12.3598 13.5288 11.2288 13.9854 9.99146 13.9854C7.2311 13.9853 4.99341 11.7211 4.99341 8.92871C4.99366 6.13652 7.23126 3.87308 9.99146 3.87305C11.2286 3.87305 12.3599 4.32883 13.2327 5.08203C14.1056 4.32838 15.2383 3.87305 16.4758 3.87305Z" fill="#ED0006"/>
<path d="M16.4756 3.87305C19.2359 3.8731 21.4736 6.1373 21.4736 8.92969C21.4734 11.7219 19.2358 13.9853 16.4756 13.9854C15.2379 13.9854 14.1063 13.5292 13.2334 12.7754C14.3074 11.8481 14.9892 10.47 14.9893 8.92969C14.9893 7.38894 14.3078 6.00942 13.2334 5.08203C14.1062 4.32859 15.2382 3.87305 16.4756 3.87305Z" fill="#F9A000"/>
<path d="M13.2334 5.08203C14.3078 6.00942 14.9893 7.38894 14.9893 8.92969C14.9892 10.47 14.3074 11.8481 13.2334 12.7754C12.1595 11.8481 11.4776 10.4699 11.4775 8.92969C11.4775 7.38901 12.1591 6.00941 13.2334 5.08203Z" fill="#FF5E00"/>
</svg>
