<svg width="27" height="18" viewBox="0 0 27 18" fill="none" xmlns="http://www.w3.org/2000/svg">
<mask id="mask0_1627_11522" style="mask-type:alpha" maskUnits="userSpaceOnUse" x="0" y="0" width="27" height="18">
<rect x="0.79834" y="0.210938" width="25.6359" height="17.5789" fill="#016FD0"/>
</mask>
<g mask="url(#mask0_1627_11522)">
<rect x="0.79834" y="0.210938" width="25.6359" height="17.5789" rx="1.46491" fill="#016FD0"/>
<path d="M5.78491 13.6591V9.62598H10.0552L10.5134 10.2232L10.9867 9.62598H26.4868V13.3809C26.4868 13.3809 26.0814 13.655 25.6126 13.6591H17.0299L16.5133 13.0233V13.6591H14.8206V12.5738C14.8206 12.5738 14.5894 12.7253 14.0895 12.7253H13.5133V13.6591H10.9504L10.4929 13.049L10.0284 13.6591H5.78491Z" fill="white"/>
<path d="M0.79834 6.58681L1.76131 4.3418H3.42666L3.97316 5.59937V4.3418H6.04335L6.36867 5.25073L6.68407 4.3418H15.9771V4.79875C15.9771 4.79875 16.4656 4.3418 17.2685 4.3418L20.2837 4.35233L20.8208 5.59344V4.3418H22.5532L23.03 5.05471V4.3418H24.7783V8.37489H23.03L22.5731 7.65966V8.37489H20.0277L19.7718 7.73913H19.0875L18.8357 8.37489H17.1095C16.4187 8.37489 15.9771 7.92726 15.9771 7.92726V8.37489H13.3744L12.8579 7.73913V8.37489H3.17995L2.92416 7.73913H2.24207L1.98808 8.37489H0.79834V6.58681Z" fill="white"/>
<path d="M2.10157 4.83887L0.802734 7.85872H1.64834L1.88799 7.25401H3.2812L3.51961 7.85872H4.38384L3.08625 4.83887H2.10157ZM2.58211 5.54168L3.00678 6.59838H2.1562L2.58211 5.54168Z" fill="#016FD0"/>
<path d="M4.47314 7.85774V4.83789L5.6748 4.84235L6.37372 6.78936L7.05591 4.83789H8.24796V7.85774H7.493V5.63259L6.69272 7.85774H6.03062L5.22811 5.63259V7.85774H4.47314Z" fill="#016FD0"/>
<path d="M8.76514 7.85777V4.83789H11.2287V5.51339H9.52805V6.02995H11.189V6.66571H9.52805V7.20214H11.2287V7.85777H8.76514Z" fill="#016FD0"/>
<path d="M11.6653 4.83887V7.85875H12.4203V6.78589H12.7381L13.6434 7.85875H14.566L13.5726 6.74616C13.9803 6.71176 14.4008 6.36184 14.4008 5.81859C14.4008 5.1831 13.902 4.83887 13.3453 4.83887H11.6653ZM12.4203 5.51437H13.2833C13.4903 5.51437 13.6409 5.6763 13.6409 5.83225C13.6409 6.03288 13.4457 6.15013 13.2944 6.15013H12.4203V5.51437Z" fill="#016FD0"/>
<path d="M15.4808 7.85777H14.71V4.83789H15.4808V7.85777Z" fill="#016FD0"/>
<path d="M17.3084 7.85777H17.142C16.3369 7.85777 15.8481 7.2235 15.8481 6.36025C15.8481 5.47567 16.3315 4.83789 17.3482 4.83789H18.1826V5.55312H17.3176C16.9049 5.55312 16.613 5.87521 16.613 6.3677C16.613 6.95253 16.9468 7.19817 17.4276 7.19817H17.6263L17.3084 7.85777Z" fill="#016FD0"/>
<path d="M18.9519 4.83887L17.6531 7.85872H18.4987L18.7383 7.25401H20.1315L20.3699 7.85872H21.2342L19.9366 4.83887H18.9519ZM19.4325 5.54168L19.8571 6.59838H19.0065L19.4325 5.54168Z" fill="#016FD0"/>
<path d="M21.3213 7.85777V4.83789H22.2811L23.5067 6.73525V4.83789H24.2617V7.85777H23.3329L22.0763 5.91074V7.85777H21.3213Z" fill="#016FD0"/>
<path d="M6.30176 13.1429V10.123H8.76534V10.7985H7.06467V11.3151H8.72561V11.9509H7.06467V12.4873H8.76534V13.1429H6.30176Z" fill="#016FD0"/>
<path d="M18.3726 13.1429V10.123H20.8361V10.7985H19.1355V11.3151H20.7885V11.9509H19.1355V12.4873H20.8361V13.1429H18.3726Z" fill="#016FD0"/>
<path d="M8.86108 13.1429L10.0606 11.6516L8.83252 10.123H9.78367L10.515 11.068L11.2489 10.123H12.1628L10.9509 11.633L12.1526 13.1429H11.2016L10.4915 12.2129L9.79857 13.1429H8.86108Z" fill="#016FD0"/>
<path d="M12.2415 10.123V13.1429H13.0163V12.1893H13.811C14.4834 12.1893 14.9931 11.8325 14.9931 11.1388C14.9931 10.5641 14.5934 10.123 13.9091 10.123H12.2415ZM13.0163 10.806H13.8532C14.0705 10.806 14.2257 10.9391 14.2257 11.1537C14.2257 11.3552 14.0712 11.5014 13.8507 11.5014H13.0163V10.806Z" fill="#016FD0"/>
<path d="M15.3213 10.123V13.1429H16.0763V12.0701H16.3941L17.2994 13.1429H18.222L17.2286 12.0303C17.6363 11.9959 18.0568 11.646 18.0568 11.1028C18.0568 10.4673 17.558 10.123 17.0013 10.123H15.3213ZM16.0763 10.7985H16.9393C17.1463 10.7985 17.2969 10.9605 17.2969 11.1164C17.2969 11.3171 17.1018 11.4343 16.9504 11.4343H16.0763V10.7985Z" fill="#016FD0"/>
<path d="M21.1864 13.1429V12.4873H22.6974C22.9209 12.4873 23.0177 12.3665 23.0177 12.234C23.0177 12.107 22.9212 11.9787 22.6974 11.9787H22.0146C21.4211 11.9787 21.0906 11.6171 21.0906 11.0742C21.0906 10.59 21.3933 10.123 22.2752 10.123H23.7454L23.4275 10.8025H22.156C21.9129 10.8025 21.8381 10.9301 21.8381 11.0519C21.8381 11.1771 21.9306 11.3151 22.1162 11.3151H22.8315C23.4931 11.3151 23.7802 11.6904 23.7802 12.1818C23.7802 12.7102 23.4603 13.1429 22.7955 13.1429H21.1864Z" fill="#016FD0"/>
<path d="M23.9567 13.1429V12.4873H25.4676C25.6912 12.4873 25.788 12.3665 25.788 12.234C25.788 12.107 25.6915 11.9787 25.4676 11.9787H24.7849C24.1914 11.9787 23.8608 11.6171 23.8608 11.0742C23.8608 10.59 24.1635 10.123 25.0454 10.123H26.4856L26.1978 10.8025H24.9262C24.6832 10.8025 24.6084 10.9301 24.6084 11.0519C24.6084 11.177 24.7008 11.3151 24.8865 11.3151H25.6017C26.2633 11.3151 26.5504 11.6904 26.5504 12.1818C26.5504 12.7102 26.2305 13.1429 25.5657 13.1429H23.9567Z" fill="#016FD0"/>
</g>
</svg>
