<svg width="49" height="48" viewBox="0 0 49 48" fill="none" xmlns="http://www.w3.org/2000/svg">
<rect x="1" y="0.5" width="47" height="47" rx="23.5" fill="#252525"/>
<rect x="1" y="0.5" width="47" height="47" rx="23.5" stroke="#353334"/>
<path d="M34.5 24C34.5 29.5228 30.0228 34 24.5 34C18.9772 34 14.5 29.5228 14.5 24C14.5 18.4772 18.9772 14 24.5 14C30.0228 14 34.5 18.4772 34.5 24Z" stroke="white" stroke-width="1.5"/>
<path d="M21.5 24H25.7M21.5 24V21.2963C21.5 20.8249 21.5 20.5892 21.6464 20.4427C21.7929 20.2963 22.0286 20.2963 22.5 20.2963H25.7C26.6941 20.2963 27.5 21.1254 27.5 22.1481C27.5 23.1709 26.6941 24 25.7 24M21.5 24V26.7037C21.5 27.1751 21.5 27.4108 21.6464 27.5572C21.7929 27.7037 22.0286 27.7037 22.5 27.7037H25.7C26.6941 27.7037 27.5 26.8746 27.5 25.8518C27.5 24.8291 26.6941 24 25.7 24M22.9938 20.2963V19M22.9938 29V27.7037M25.3982 20.2963V19M25.3982 29V27.7037" stroke="white" stroke-width="1.5" stroke-linecap="round"/>
</svg>
