<svg width="48" height="48" viewBox="0 0 48 48" fill="none" xmlns="http://www.w3.org/2000/svg">
<rect x="0.5" y="0.5" width="47" height="47" rx="23.5" fill="#252525"/>
<rect x="0.5" y="0.5" width="47" height="47" rx="23.5" stroke="#353334"/>
<path d="M26 30C30.4183 30 34 26.4183 34 22C34 17.5817 30.4183 14 26 14C21.5817 14 18 17.5817 18 22C18 26.4183 21.5817 30 26 30Z" stroke="white" stroke-width="1.5" stroke-linecap="round"/>
<path d="M15.1566 23C14.4252 24.1176 14 25.4535 14 26.8888C14 30.8162 17.1838 34 21.1112 34C22.5465 34 23.8824 33.5748 25 32.8434" stroke="white" stroke-width="1.5" stroke-linecap="round"/>
<path d="M26.7349 18C26.7349 17.5858 26.3991 17.25 25.9849 17.25C25.5707 17.25 25.2349 17.5858 25.2349 18L26.7349 18ZM25.2349 26C25.2349 26.4142 25.5707 26.75 25.9849 26.75C26.3991 26.75 26.7349 26.4142 26.7349 26H25.2349ZM27.069 20.3696C27.1504 20.7757 27.5456 21.039 27.9517 20.9576C28.3579 20.8762 28.6211 20.481 28.5397 20.0749L27.069 20.3696ZM24.7327 23.6178C24.6444 23.2131 24.2447 22.9567 23.84 23.045C23.4353 23.1334 23.1789 23.5331 23.2673 23.9378L24.7327 23.6178ZM25.9849 21.8849V21.1349C25.3788 21.1349 25.1228 21.0191 25.0251 20.9413C24.9661 20.8942 24.8878 20.8027 24.8878 20.5022H24.1378H23.3878C23.3878 21.0926 23.5613 21.6926 24.09 22.1141C24.5801 22.5049 25.2477 22.6349 25.9849 22.6349V21.8849ZM24.1378 20.5022H24.8878C24.8878 20.1177 25.2803 19.6391 25.9849 19.6391V18.8891V18.1391C24.6492 18.1391 23.3878 19.1049 23.3878 20.5022H24.1378ZM28 23.4981H27.25C27.25 23.8489 27.1282 24.0168 26.9752 24.1255C26.7842 24.2613 26.4549 24.3613 25.9849 24.3613V25.1113V25.8613C26.6278 25.8613 27.306 25.7308 27.8444 25.3481C28.4207 24.9383 28.75 24.2996 28.75 23.4981H28ZM25.9849 21.8849V22.6349C26.5987 22.6349 26.8988 22.7457 27.0379 22.8531C27.1337 22.9271 27.25 23.0729 27.25 23.4981H28H28.75C28.75 22.771 28.5304 22.1103 27.9545 21.6657C27.422 21.2546 26.7146 21.1349 25.9849 21.1349V21.8849ZM25.9849 18.8891L26.7349 18.8891L26.7349 18L25.9849 18L25.2349 18L25.2349 18.8891L25.9849 18.8891ZM25.9849 25.1113H25.2349V26H25.9849H26.7349V25.1113H25.9849ZM25.9849 18.8891V19.6391C26.6033 19.6391 26.9994 20.0226 27.069 20.3696L27.8043 20.2222L28.5397 20.0749C28.3057 18.9069 27.1881 18.1391 25.9849 18.1391V18.8891ZM25.9849 25.1113V24.3613C25.2343 24.3613 24.8019 23.9344 24.7327 23.6178L24 23.7778L23.2673 23.9378C23.529 25.1364 24.748 25.8613 25.9849 25.8613V25.1113Z" fill="white"/>
</svg>
