<svg width="36" height="36" viewBox="0 0 36 36" fill="none" xmlns="http://www.w3.org/2000/svg">
<rect width="36" height="36" rx="18" fill="white" fill-opacity="0.5"/>
<path d="M8.57063 19.3027C10.048 18.3132 11.8102 18.0211 13.4554 18.4268C13.8431 18.5224 14.0369 18.5707 14.054 18.707C14.0709 18.8432 13.8816 18.9447 13.5033 19.1475C13.2162 19.3013 12.9346 19.462 12.7279 19.5898C12.2333 19.879 11.3022 20.4243 10.6292 21.1084C10.1949 21.5498 9.62328 22.2835 9.51692 23.293C9.48411 23.6047 9.49936 23.904 9.55306 24.1875C9.60675 24.471 9.63361 24.6131 9.56185 24.6875C9.49003 24.7617 9.37026 24.7434 9.13118 24.707C8.10753 24.5512 7.41572 23.9932 6.84798 23.3848C6.42349 22.9298 6.20386 22.4063 6.25813 21.8467C6.3092 21.3211 6.59043 20.8973 6.87142 20.5879C7.3148 20.0998 7.96827 19.6863 8.3597 19.4385C8.44334 19.3855 8.51555 19.3396 8.57063 19.3027ZM12.0003 11.25C12.1659 11.25 12.3287 11.2622 12.4876 11.2861C12.6772 11.3146 12.7719 11.3294 12.8206 11.4082C12.8692 11.487 12.8358 11.5916 12.7679 11.8008C12.5942 12.3359 12.5003 12.907 12.5003 13.5C12.5003 14.7399 12.9106 15.8838 13.6029 16.8037C13.7348 16.979 13.8007 17.0671 13.7806 17.1572C13.7602 17.2475 13.675 17.292 13.5052 17.3809C13.0553 17.6164 12.5434 17.75 12.0003 17.75C10.2054 17.75 8.75032 16.2949 8.75032 14.5C8.75032 12.7051 10.2054 11.25 12.0003 11.25Z" fill="#171415"/>
<path d="M22.546 18.4268C24.1912 18.0212 25.9535 18.3132 27.4307 19.3027C27.4858 19.3396 27.5572 19.3856 27.6407 19.4385C28.0321 19.6863 28.6855 20.0997 29.129 20.5879C29.41 20.8973 29.6912 21.3211 29.7422 21.8467C29.7965 22.4063 29.5778 22.9298 29.1534 23.3848C28.5856 23.9933 27.893 24.5512 26.8692 24.707C26.6301 24.7434 26.5103 24.7618 26.4385 24.6875C26.3668 24.6131 26.3936 24.471 26.4473 24.1875C26.501 23.904 26.5163 23.6047 26.4835 23.293C26.3771 22.2838 25.8064 21.5499 25.3721 21.1084C24.6991 20.4243 23.7671 19.879 23.2725 19.5898C23.0658 19.462 22.7842 19.3013 22.4971 19.1475C22.1188 18.9447 21.9295 18.8432 21.9463 18.707C21.9635 18.5707 22.1581 18.5224 22.546 18.4268ZM24.0001 11.25C25.795 11.25 27.2501 12.7051 27.2501 14.5C27.2501 16.2949 25.795 17.75 24.0001 17.75C23.457 17.7499 22.9451 17.6164 22.4952 17.3809C22.3254 17.292 22.2401 17.2475 22.2198 17.1572C22.1997 17.0671 22.2656 16.979 22.3975 16.8037C23.0898 15.8838 23.5001 14.74 23.5001 13.5C23.5001 12.907 23.4062 12.3359 23.2325 11.8008C23.1646 11.5917 23.1312 11.487 23.1797 11.4082C23.2285 11.3294 23.3232 11.3146 23.5128 11.2861C23.6716 11.2622 23.8345 11.25 24.0001 11.25Z" fill="#171415"/>
<path d="M13.6915 20.4733C16.3292 18.8422 19.675 18.8422 22.3127 20.4733C22.3905 20.5214 22.489 20.579 22.6022 20.6452L22.6022 20.6452C23.1145 20.945 23.9276 21.4208 24.4826 21.9849C24.8311 22.3391 25.1787 22.8221 25.242 23.4242C25.3099 24.0683 25.0365 24.6646 24.5149 25.1806C23.6533 26.033 22.5859 26.75 21.1865 26.75H14.8177C13.4183 26.75 12.3509 26.033 11.4893 25.1806C10.9678 24.6646 10.6943 24.0683 10.7622 23.4242C10.8255 22.8221 11.1731 22.3391 11.5216 21.9849C12.0766 21.4208 12.8897 20.945 13.402 20.6452L13.402 20.6452C13.5152 20.579 13.6137 20.5214 13.6915 20.4733Z" fill="#171415"/>
<path d="M13.752 13.5C13.752 11.1528 15.6547 9.25 18.002 9.25C20.3492 9.25 22.252 11.1528 22.252 13.5C22.252 15.8472 20.3492 17.75 18.002 17.75C15.6547 17.75 13.752 15.8472 13.752 13.5Z" fill="#171415"/>
</svg>
