<svg width="37" height="36" viewBox="0 0 37 36" fill="none" xmlns="http://www.w3.org/2000/svg">
<rect x="0.75" width="36" height="36" rx="6" fill="url(#paint0_linear_1444_8919)"/>
<path d="M20.1895 10.8705L21.656 13.8277C21.856 14.2394 22.3893 14.6342 22.8393 14.7098L25.4973 15.1551C27.1971 15.4408 27.5971 16.6842 26.3722 17.9107L24.3058 19.9942C23.9558 20.3471 23.7642 21.0276 23.8724 21.5149L24.4641 24.0941C24.9307 26.1356 23.8558 26.9253 22.0643 25.8583L19.5729 24.3713C19.123 24.1025 18.3814 24.1025 17.9231 24.3713L15.4317 25.8583C13.6486 26.9253 12.5654 26.1272 13.032 24.0941L13.6236 21.5149C13.7319 21.0276 13.5403 20.3471 13.1903 19.9942L11.1239 17.9107C9.90734 16.6842 10.299 15.4408 11.9988 15.1551L14.6568 14.7098C15.0984 14.6342 15.6317 14.2394 15.8317 13.8277L17.2982 10.8705C18.0981 9.26583 19.3979 9.26583 20.1895 10.8705Z" stroke="white" stroke-width="1.5" stroke-linecap="round" stroke-linejoin="round"/>
<defs>
<linearGradient id="paint0_linear_1444_8919" x1="0.75" y1="4" x2="36.75" y2="45.5" gradientUnits="userSpaceOnUse">
<stop stop-color="#FFF070"/>
<stop offset="1" stop-color="#A7AA00"/>
</linearGradient>
</defs>
</svg>
