<svg width="25" height="24" viewBox="0 0 25 24" fill="none" xmlns="http://www.w3.org/2000/svg">
<path d="M5.55406 7L4.33525 7.81253C3.46154 8.39501 3.02468 8.68625 2.78793 9.13041C2.55118 9.57457 2.55294 10.0966 2.55644 11.1406C2.56067 12.3975 2.57235 13.6782 2.6047 14.9741C2.68144 18.0487 2.71982 19.586 3.85022 20.7164C4.98062 21.8469 6.53868 21.8858 9.65479 21.9637C11.5934 22.0121 13.5148 22.0121 15.4534 21.9637C18.5695 21.8858 20.1275 21.8469 21.2579 20.7164C22.3883 19.586 22.4267 18.0487 22.5034 14.9741C22.5358 13.6782 22.5475 12.3975 22.5517 11.1406C22.5552 10.0966 22.5569 9.57456 22.3202 9.13041C22.0834 8.68625 21.6466 8.39501 20.7729 7.81253L19.5541 7" stroke="#171415" stroke-width="1.5" stroke-linejoin="round"/>
<path d="M2.55371 10L9.46673 14.1478C10.9708 15.0502 11.7228 15.5014 12.5537 15.5014C13.3847 15.5014 14.1367 15.0502 15.6407 14.1478L22.5537 10" stroke="#171415" stroke-width="1.5" stroke-linejoin="round"/>
<path d="M5.55371 12V6C5.55371 4.11438 5.55371 3.17157 6.1395 2.58579C6.72528 2 7.66809 2 9.55371 2H15.5537C17.4393 2 18.3821 2 18.9679 2.58579C19.5537 3.17157 19.5537 4.11438 19.5537 6V12" stroke="#171415" stroke-width="1.5"/>
<path d="M10.5537 10H14.5537M10.5537 6H14.5537" stroke="#171415" stroke-width="1.5" stroke-linecap="round" stroke-linejoin="round"/>
</svg>
