<svg width="25" height="24" viewBox="0 0 25 24" fill="none" xmlns="http://www.w3.org/2000/svg">
<path d="M21.0506 16.8354C20.3943 12.8866 18.3511 9.94613 16.5749 8.219C16.058 7.71642 15.7996 7.46513 15.2287 7.23257C14.6578 7 14.1671 7 13.1857 7H11.0301C10.0487 7 9.55801 7 8.98713 7.23257C8.41625 7.46513 8.15782 7.71642 7.64095 8.219C5.86473 9.94613 3.82152 12.8866 3.16518 16.8354C2.67684 19.7734 5.38718 22 8.41623 22H15.7996C18.8286 22 21.539 19.7734 21.0506 16.8354Z" stroke="#171415" stroke-width="1.5" stroke-linecap="round"/>
<path d="M7.36453 4.44287C7.15822 4.14258 6.85919 3.73499 7.4769 3.64205C8.11183 3.54651 8.77112 3.98114 9.41646 3.97221C10.0003 3.96413 10.2977 3.70519 10.6168 3.33548C10.9528 2.94617 11.4731 2 12.1079 2C12.7427 2 13.263 2.94617 13.599 3.33548C13.9181 3.70519 14.2155 3.96413 14.7994 3.97221C15.4447 3.98114 16.104 3.54651 16.7389 3.64205C17.3566 3.73499 17.0576 4.14258 16.8513 4.44287L15.9185 5.80064C15.5194 6.38146 15.3199 6.67187 14.9024 6.83594C14.4848 7 13.9452 7 12.8661 7H11.3497C10.2706 7 9.73101 7 9.31347 6.83594C8.89593 6.67187 8.69641 6.38146 8.29736 5.80064L7.36453 4.44287Z" stroke="#171415" stroke-width="1.5"/>
</svg>
