<svg width="41" height="40" viewBox="0 0 41 40" fill="none" xmlns="http://www.w3.org/2000/svg">
<path d="M12.1668 10.001C10.1324 10.0071 9.00654 10.0557 8.08137 10.4441C6.78549 10.988 5.73017 11.9927 5.11367 13.2695C4.61046 14.3116 4.52812 15.6468 4.36342 18.3172L4.10536 22.5017C3.69581 29.1424 3.49102 32.4627 5.43964 34.5647C7.38824 36.6667 10.671 36.6667 17.2367 36.6667H23.7637C30.3294 36.6667 33.612 36.6667 35.5607 34.5647C37.5094 32.4627 37.3045 29.1424 36.895 22.5017L36.6369 18.3172C36.4722 15.6468 36.3899 14.3116 35.8867 13.2695C35.2702 11.9927 34.2149 10.988 32.919 10.4441C31.9939 10.0557 30.8679 10.0071 28.8335 10.001" stroke="#171415" stroke-width="1.5" stroke-linecap="round"/>
<path d="M28.8332 11.6668L27.3568 7.97588C26.7198 6.38343 26.1655 4.577 24.5275 3.76608C23.6538 3.3335 22.6025 3.3335 20.4998 3.3335C18.3972 3.3335 17.3458 3.3335 16.4721 3.76608C14.8342 4.577 14.2799 6.38343 13.6429 7.97588L12.1665 11.6668" stroke="#171415" stroke-width="1.5" stroke-linecap="round" stroke-linejoin="round"/>
<path d="M26.3332 23.3333C26.3332 26.555 23.7215 29.1667 20.4998 29.1667C17.2782 29.1667 14.6665 26.555 14.6665 23.3333C14.6665 20.1117 17.2782 17.5 20.4998 17.5C23.7215 17.5 26.3332 20.1117 26.3332 23.3333Z" stroke="#171415" stroke-width="1.5"/>
<path d="M20.5 10H20.515" stroke="#171415" stroke-width="1.5" stroke-linecap="round" stroke-linejoin="round"/>
</svg>
