<svg width="48" height="48" viewBox="0 0 48 48" fill="none" xmlns="http://www.w3.org/2000/svg">
<rect x="0.5" y="0.5" width="47" height="47" rx="23.5" fill="#252525"/>
<rect x="0.5" y="0.5" width="47" height="47" rx="23.5" stroke="#353334"/>
<path d="M18.5776 27.4816C17.1628 28.324 13.4534 30.0441 15.7127 32.1966C16.8163 33.248 18.0455 34 19.5909 34H28.4091C29.9545 34 31.1837 33.248 32.2873 32.1966C34.5466 30.0441 30.8372 28.324 29.4224 27.4816C26.1048 25.5061 21.8952 25.5061 18.5776 27.4816Z" stroke="white" stroke-width="1.5" stroke-linecap="round" stroke-linejoin="round"/>
<path d="M28.5 18.5C28.5 20.9853 26.4853 23 24 23C21.5147 23 19.5 20.9853 19.5 18.5C19.5 16.0147 21.5147 14 24 14C26.4853 14 28.5 16.0147 28.5 18.5Z" stroke="white" stroke-width="1.5"/>
</svg>
