<svg width="49" height="48" viewBox="0 0 49 48" fill="none" xmlns="http://www.w3.org/2000/svg">
<rect x="1" y="0.5" width="47" height="47" rx="23.5" fill="#252525"/>
<rect x="1" y="0.5" width="47" height="47" rx="23.5" stroke="#353334"/>
<path d="M16.5 23V27C16.5 30.2998 16.5 31.9497 17.5251 32.9749C18.5502 34 20.2002 34 23.5 34H25.5C28.7998 34 30.4497 34 31.4749 32.9749C32.5 31.9497 32.5 30.2998 32.5 27V23" stroke="white" stroke-width="1.5" stroke-linecap="round" stroke-linejoin="round"/>
<path d="M15.5 21C15.5 20.2523 15.5 19.8785 15.701 19.6C15.8326 19.4176 16.022 19.2661 16.25 19.1608C16.5981 19 17.0654 19 18 19H31C31.9346 19 32.4019 19 32.75 19.1608C32.978 19.2661 33.1674 19.4176 33.299 19.6C33.5 19.8785 33.5 20.2523 33.5 21C33.5 21.7477 33.5 22.1215 33.299 22.4C33.1674 22.5824 32.978 22.7339 32.75 22.8392C32.4019 23 31.9346 23 31 23H18C17.0654 23 16.5981 23 16.25 22.8392C16.022 22.7339 15.8326 22.5824 15.701 22.4C15.5 22.1215 15.5 21.7477 15.5 21Z" stroke="white" stroke-width="1.5" stroke-linejoin="round"/>
<path d="M18.5 15.7857C18.5 14.7995 19.2995 14 20.2857 14H20.6429C22.7731 14 24.5 15.7269 24.5 17.8571V19H21.7143C19.9391 19 18.5 17.5609 18.5 15.7857Z" stroke="white" stroke-width="1.5" stroke-linejoin="round"/>
<path d="M30.5 15.7857C30.5 14.7995 29.7005 14 28.7143 14H28.3571C26.2269 14 24.5 15.7269 24.5 17.8571V19H27.2857C29.0609 19 30.5 17.5609 30.5 15.7857Z" stroke="white" stroke-width="1.5" stroke-linejoin="round"/>
<path d="M24.5 23V34" stroke="white" stroke-width="1.5" stroke-linecap="round" stroke-linejoin="round"/>
</svg>
