<svg width="48" height="48" viewBox="0 0 48 48" fill="none" xmlns="http://www.w3.org/2000/svg">
<rect x="0.5" y="0.5" width="47" height="47" rx="23.5" fill="#252525"/>
<rect x="0.5" y="0.5" width="47" height="47" rx="23.5" stroke="#353334"/>
<path d="M14 20.5691C14 19.3729 14.4824 18.6398 15.4806 18.0843L19.5899 15.7974C21.7431 14.5991 22.8197 14 24 14C25.1803 14 26.2569 14.5991 28.4101 15.7974L32.5194 18.0843C33.5176 18.6398 34 19.3729 34 20.5691C34 20.8934 34 21.0556 33.9646 21.1889C33.7785 21.8894 33.1437 22 32.5307 22H15.4693C14.8563 22 14.2215 21.8894 14.0354 21.1889C14 21.0556 14 20.8934 14 20.5691Z" stroke="white" stroke-width="1.5"/>
<path d="M23.9959 19H24.0049" stroke="white" stroke-width="2" stroke-linecap="round" stroke-linejoin="round"/>
<path d="M16 22V30.5M20 22V30.5" stroke="white" stroke-width="1.5"/>
<path d="M28 22V30.5M32 22V30.5" stroke="white" stroke-width="1.5"/>
<path d="M31 30.5H17C15.3431 30.5 14 31.8431 14 33.5C14 33.7761 14.2239 34 14.5 34H33.5C33.7761 34 34 33.7761 34 33.5C34 31.8431 32.6569 30.5 31 30.5Z" stroke="white" stroke-width="1.5"/>
</svg>
