<svg width="48" height="48" viewBox="0 0 48 48" fill="none" xmlns="http://www.w3.org/2000/svg">
<rect x="0.5" y="0.5" width="47" height="47" rx="23.5" fill="#252525"/>
<rect x="0.5" y="0.5" width="47" height="47" rx="23.5" stroke="#353334"/>
<path d="M30 19C30.7745 19.1606 31.3588 19.4286 31.8284 19.8759C33 20.9918 33 22.7879 33 26.38C33 29.9721 33 31.7681 31.8284 32.8841C30.6569 34 28.7712 34 25 34H23C19.2288 34 17.3431 34 16.1716 32.8841C15 31.7681 15 29.9721 15 26.38C15 22.7879 15 20.9918 16.1716 19.8759C16.6412 19.4286 17.2255 19.1606 18 19" stroke="white" stroke-width="1.5" stroke-linecap="round"/>
<path d="M24.0253 14.0005L24 26M24.0253 14.0005C23.8627 13.9938 23.6991 14.0519 23.5533 14.1749C22.6469 14.9401 21 16.9289 21 16.9289M24.0253 14.0005C24.1711 14.0066 24.3162 14.0648 24.4468 14.1751C25.3531 14.9404 27 16.9289 27 16.9289" stroke="white" stroke-width="1.5" stroke-linecap="round" stroke-linejoin="round"/>
</svg>
