<svg width="16" height="19" viewBox="0 0 16 19" fill="none" xmlns="http://www.w3.org/2000/svg">
<g clip-path="url(#clip0_225_7206)">
<path d="M14 10.4557V8.52036C14 7.42702 14 6.88035 13.7306 6.52369C13.4612 6.16702 12.8521 5.99387 11.6338 5.64756C10.8015 5.41096 10.0677 5.12592 9.48153 4.86569C8.68227 4.5109 8.28267 4.3335 8 4.3335C7.71733 4.3335 7.31773 4.5109 6.51847 4.86569C5.93226 5.12592 5.19856 5.41096 4.36622 5.64756C3.14795 5.99387 2.53881 6.16702 2.26941 6.52369C2 6.88035 2 7.42702 2 8.52036V10.4557C2 14.2058 5.37518 16.4558 7.06267 17.3464C7.4674 17.56 7.66973 17.6668 8 17.6668C8.33027 17.6668 8.5326 17.56 8.93733 17.3464C10.6248 16.4558 14 14.2058 14 10.4557Z" stroke="#828583" stroke-width="1.5" stroke-linecap="round" stroke-linejoin="round"/>
</g>
<defs>
<clipPath id="clip0_225_7206">
<rect width="16" height="16" fill="white" transform="translate(0 3)"/>
</clipPath>
</defs>
</svg>
