<svg width="48" height="48" viewBox="0 0 48 48" fill="none" xmlns="http://www.w3.org/2000/svg">
<rect x="0.5" y="0.5" width="47" height="47" rx="23.5" fill="#252525"/>
<rect x="0.5" y="0.5" width="47" height="47" rx="23.5" stroke="#353334"/>
<path d="M19 29V25" stroke="white" stroke-width="1.5" stroke-linecap="round"/>
<path d="M24 29V19" stroke="white" stroke-width="1.5" stroke-linecap="round"/>
<path d="M29 29V23" stroke="white" stroke-width="1.5" stroke-linecap="round"/>
<path d="M14.5 24C14.5 19.5217 14.5 17.2825 15.8912 15.8912C17.2825 14.5 19.5217 14.5 24 14.5C28.4783 14.5 30.7175 14.5 32.1088 15.8912C33.5 17.2825 33.5 19.5217 33.5 24C33.5 28.4783 33.5 30.7175 32.1088 32.1088C30.7175 33.5 28.4783 33.5 24 33.5C19.5217 33.5 17.2825 33.5 15.8912 32.1088C14.5 30.7175 14.5 28.4783 14.5 24Z" stroke="white" stroke-width="1.5" stroke-linejoin="round"/>
</svg>
