<svg width="25" height="24" viewBox="0 0 25 24" fill="none" xmlns="http://www.w3.org/2000/svg">
<path d="M2.5 8C2.5 9.34178 10.5949 13 12.4861 13C14.3772 13 22.4722 9.34178 22.4722 8C22.4722 6.65822 14.3772 3 12.4861 3C10.5949 3 2.5 6.65822 2.5 8Z" stroke="currentColor" stroke-width="1.5" stroke-linecap="round" stroke-linejoin="round"/>
<path d="M6.49414 11L6.73925 16.6299C6.74415 16.7426 6.75634 16.8555 6.78901 16.9635C6.88998 17.2973 7.07608 17.6006 7.36 17.8044C9.58146 19.3985 15.3901 19.3985 17.6115 17.8044C17.8956 17.6006 18.0816 17.2973 18.1826 16.9635C18.2152 16.8555 18.2274 16.7426 18.2324 16.6299L18.4774 11" stroke="currentColor" stroke-width="1.5" stroke-linecap="round" stroke-linejoin="round"/>
<path d="M20.9734 9.5V16.5M20.9734 16.5C20.1814 17.9463 19.8312 18.7212 19.4755 20C19.3983 20.455 19.4596 20.6843 19.7732 20.8879C19.9006 20.9706 20.0537 21 20.2055 21H21.7259C21.8876 21 22.0507 20.9663 22.1838 20.8745C22.4753 20.6735 22.5503 20.453 22.4713 20C22.1595 18.8126 21.7623 18.0008 20.9734 16.5Z" stroke="currentColor" stroke-width="1.5" stroke-linecap="round" stroke-linejoin="round"/>
</svg>
