<svg width="40" height="36" viewBox="0 0 40 36" fill="none" xmlns="http://www.w3.org/2000/svg">
<g filter="url(#filter0_d_4134_3960)">
<path d="M7.42687 17.7373C9.39676 16.4177 11.7467 16.0284 13.9405 16.5693C14.4575 16.6968 14.7155 16.7607 14.7384 16.9424C14.7613 17.1241 14.5096 17.2598 14.005 17.5303C13.6222 17.7354 13.2465 17.9496 12.9708 18.1201C12.3113 18.5057 11.0694 19.2324 10.172 20.1445C9.59291 20.7332 8.83128 21.7116 8.68956 23.0576C8.64582 23.4732 8.66588 23.8711 8.73741 24.249C8.80905 24.6273 8.84478 24.8167 8.74913 24.916C8.6534 25.0153 8.49396 24.9909 8.17491 24.9424C6.80989 24.7346 5.88702 23.9911 5.12999 23.1797C4.56402 22.5731 4.2715 21.8751 4.34386 21.1289C4.41193 20.4284 4.7867 19.8637 5.16124 19.4512C5.75249 18.8001 6.62461 18.2484 7.14659 17.918C7.25801 17.8474 7.35344 17.7865 7.42687 17.7373ZM12.0001 7C12.2208 7 12.4377 7.01698 12.6495 7.04883C12.9025 7.08687 13.0299 7.10587 13.0948 7.21094C13.1594 7.31595 13.114 7.45573 13.0235 7.73438C12.792 8.44788 12.6671 9.20931 12.6671 10C12.6671 11.6532 13.2138 13.1787 14.1368 14.4053C14.3129 14.6393 14.4013 14.7566 14.3741 14.877C14.3469 14.9972 14.2332 15.0564 14.0069 15.1748C13.4069 15.4889 12.7243 15.667 12.0001 15.667C9.60688 15.667 7.6671 13.7262 7.6671 11.333C7.66728 8.93992 9.60698 7 12.0001 7Z" fill="#FBEC9D"/>
<path d="M26.0605 16.5693C28.2543 16.0284 30.6043 16.4177 32.5742 17.7373C32.6476 17.7865 32.7431 17.8475 32.8544 17.918C33.3764 18.2484 34.2476 18.8002 34.8388 19.4512C35.2135 19.8637 35.5881 20.4281 35.6562 21.1289C35.7286 21.8751 35.437 22.5731 34.871 23.1797C34.114 23.9911 33.1911 24.7346 31.8261 24.9424C31.5071 24.9909 31.3476 25.0153 31.2519 24.916C31.1562 24.8168 31.192 24.6273 31.2636 24.249C31.3351 23.8711 31.3552 23.4731 31.3115 23.0576C31.1698 21.7117 30.4081 20.7332 29.8291 20.1445C28.9317 19.2324 27.6897 18.5057 27.0302 18.1201C26.7545 17.9496 26.3788 17.7354 25.996 17.5303C25.4914 17.2598 25.2389 17.1241 25.2617 16.9424C25.2845 16.7606 25.5435 16.6968 26.0605 16.5693ZM28.0009 7C30.394 7.00011 32.3338 8.93999 32.3339 11.333C32.3339 13.7262 30.3941 15.6669 28.0009 15.667C27.2768 15.667 26.5941 15.4888 25.9941 15.1748C25.7679 15.0564 25.6541 14.9972 25.6269 14.877C25.5998 14.7566 25.6881 14.6393 25.8642 14.4053C26.7872 13.1788 27.3339 11.6532 27.3339 10C27.3339 9.20934 27.209 8.44786 26.9775 7.73438C26.887 7.45564 26.8416 7.31596 26.9062 7.21094C26.9711 7.10592 27.0978 7.08683 27.3505 7.04883C27.5625 7.01695 27.78 7 28.0009 7Z" fill="#FE9898"/>
<path d="M14.2553 19.2971C17.7723 17.1223 22.2333 17.1223 25.7503 19.2971C25.854 19.3612 25.9853 19.438 26.1362 19.5263L26.1362 19.5263C26.8193 19.926 27.9035 20.5605 28.6434 21.3125C29.1081 21.7849 29.5716 22.4288 29.6561 23.2316C29.7465 24.0904 29.3819 24.8854 28.6865 25.5735C27.5377 26.7101 26.1146 27.666 24.2486 27.666H15.757C13.891 27.666 12.4679 26.7101 11.3191 25.5735C10.6237 24.8854 10.2591 24.0904 10.3495 23.2316C10.434 22.4288 10.8975 21.7849 11.3622 21.3125C12.1021 20.5605 13.1863 19.926 13.8693 19.5263L13.8694 19.5263C14.0203 19.438 14.1516 19.3612 14.2553 19.2971Z" fill="#8DD5FC"/>
<path d="M14.3359 9.99967C14.3359 6.87006 16.873 4.33301 20.0026 4.33301C23.1322 4.33301 25.6693 6.87006 25.6693 9.99967C25.6693 13.1293 23.1322 15.6663 20.0026 15.6663C16.873 15.6663 14.3359 13.1293 14.3359 9.99967Z" fill="#8DD5FC"/>
</g>
<defs>
<filter id="filter0_d_4134_3960" x="0" y="0" width="40" height="40" filterUnits="userSpaceOnUse" color-interpolation-filters="sRGB">
<feFlood flood-opacity="0" result="BackgroundImageFix"/>
<feColorMatrix in="SourceAlpha" type="matrix" values="0 0 0 0 0 0 0 0 0 0 0 0 0 0 0 0 0 0 127 0" result="hardAlpha"/>
<feOffset dy="4"/>
<feGaussianBlur stdDeviation="2"/>
<feComposite in2="hardAlpha" operator="out"/>
<feColorMatrix type="matrix" values="0 0 0 0 0 0 0 0 0 0.199519 0 0 0 0 0.119712 0 0 0 0.65 0"/>
<feBlend mode="normal" in2="BackgroundImageFix" result="effect1_dropShadow_4134_3960"/>
<feBlend mode="normal" in="SourceGraphic" in2="effect1_dropShadow_4134_3960" result="shape"/>
</filter>
</defs>
</svg>
