<svg width="19" height="18" viewBox="0 0 19 18" fill="none" xmlns="http://www.w3.org/2000/svg">
<path d="M9.55302 12.7722C8.35654 12.7722 7.31513 13.6766 6.77748 15.0108C6.52068 15.648 6.88917 16.3468 7.3788 16.3468H11.7272C12.2169 16.3468 12.5853 15.648 12.3285 15.0108C11.7909 13.6766 10.7495 12.7722 9.55302 12.7722Z" stroke="currentColor" stroke-width="1.07237" stroke-linecap="round"/>
<path d="M14.2014 4.19324H15.0608C15.9194 4.19324 16.3486 4.19324 16.5726 4.46302C16.7965 4.7328 16.7034 5.13773 16.5172 5.9476L16.2378 7.16233C15.8177 8.98932 14.2806 10.3478 12.4141 10.6275" stroke="currentColor" stroke-width="1.07237" stroke-linecap="round" stroke-linejoin="round"/>
<path d="M4.9065 4.19324H4.04702C3.1885 4.19324 2.75925 4.19324 2.5353 4.46302C2.31135 4.7328 2.40447 5.13773 2.59071 5.9476L2.87005 7.16233C3.29018 8.98932 4.82723 10.3478 6.69379 10.6275" stroke="currentColor" stroke-width="1.07237" stroke-linecap="round" stroke-linejoin="round"/>
<path d="M9.5532 12.7722C11.7128 12.7722 13.5317 9.43919 14.0784 4.90161C14.2296 3.64671 14.3052 3.01927 13.9047 2.53386C13.5043 2.04846 12.8578 2.04846 11.5645 2.04846H7.54184C6.24868 2.04846 5.6021 2.04846 5.20163 2.53386C4.80116 3.01927 4.87676 3.64671 5.02796 4.90161C5.5747 9.43919 7.39361 12.7722 9.5532 12.7722Z" stroke="currentColor" stroke-width="1.07237" stroke-linecap="round"/>
</svg>
