<svg width="25" height="24" viewBox="0 0 25 24" fill="none" xmlns="http://www.w3.org/2000/svg">
<path d="M7.58848 4.76364L6.58847 5.54453C5.07182 6.72887 4.31348 7.32105 3.90674 8.15601C3.5 8.99097 3.5 9.95552 3.5 11.8846V13.9767C3.5 17.763 3.5 19.6562 4.67157 20.8325C5.61466 21.7793 7.02043 21.964 9.5 22V18.0057C9.5 17.0738 9.5 16.6078 9.65224 16.2403C9.85523 15.7502 10.2446 15.3609 10.7346 15.1579C11.1022 15.0057 11.5681 15.0057 12.5 15.0057C13.4319 15.0057 13.8978 15.0057 14.2654 15.1579C14.7554 15.3609 15.1448 15.7502 15.3478 16.2403C15.5 16.6078 15.5 17.0738 15.5 18.0057V22C17.9796 21.964 19.3853 21.7793 20.3284 20.8325C21.5 19.6562 21.5 17.763 21.5 13.9767V11.8846C21.5 9.95552 21.5 8.99097 21.0933 8.15601C20.6865 7.32105 19.9282 6.72887 18.4115 5.54453L17.4115 4.76364C15.0521 2.92121 13.8724 2 12.5 2C11.1276 2 9.94787 2.92121 7.58848 4.76364Z" stroke="currentColor" stroke-width="1.5" stroke-linejoin="round"/>
</svg>
