<svg width="36" height="36" viewBox="0 0 36 36" fill="none" xmlns="http://www.w3.org/2000/svg">
<rect width="36" height="36" rx="18" fill="white" fill-opacity="0.5"/>
<path fill-rule="evenodd" clip-rule="evenodd" d="M18 14C15.7909 14 14 15.7909 14 18C14 20.2091 15.7909 22 18 22C20.2091 22 22 20.2091 22 18C22 17.4477 22.4477 17 23 17C23.5523 17 24 17.4477 24 18C24 21.3137 21.3137 24 18 24C14.6863 24 12 21.3137 12 18C12 14.6863 14.6863 12 18 12C18.5523 12 19 12.4477 19 13C19 13.5523 18.5523 14 18 14Z" fill="#171415"/>
<path fill-rule="evenodd" clip-rule="evenodd" d="M18 9C13.0294 9 9 13.0294 9 18C9 22.9706 13.0294 27 18 27C22.9706 27 27 22.9706 27 18C27 17.3823 26.9379 16.78 26.82 16.1989C26.7101 15.6577 27.0598 15.1299 27.601 15.02C28.1423 14.9101 28.6701 15.2598 28.78 15.8011C28.9244 16.5124 29 17.2479 29 18C29 24.0751 24.0751 29 18 29C11.9249 29 7 24.0751 7 18C7 11.9249 11.9249 7 18 7C18.7521 7 19.4876 7.07563 20.1989 7.22002C20.7402 7.32989 21.0899 7.85772 20.98 8.39897C20.8701 8.94022 20.3423 9.28992 19.8011 9.18005C19.22 9.06209 18.6177 9 18 9Z" fill="#171415"/>
<path d="M26.1421 8.07773C25.9845 7.47361 25.4963 7.10271 24.9726 7.01905C24.4678 6.93842 23.9564 7.11764 23.5909 7.48308L22.4415 8.63246C21.1721 9.90187 21.0659 11.4662 21.4909 13.095L17.2929 17.293C16.9024 17.6835 16.9024 18.3167 17.2929 18.7072C17.6834 19.0978 18.3166 19.0978 18.7071 18.7072L22.9051 14.5093C24.5339 14.9343 26.0983 14.828 27.3677 13.5586L28.517 12.4092C28.8825 12.0438 29.0617 11.5323 28.9811 11.0276C28.8974 10.5038 28.5265 10.0156 27.9224 9.858L26.5105 9.48962L26.1421 8.07773Z" fill="#171415"/>
</svg>
