<svg width="37" height="36" viewBox="0 0 37 36" fill="none" xmlns="http://www.w3.org/2000/svg">
<rect x="0.5" width="36" height="36" rx="6" fill="url(#paint0_linear_1167_17133)"/>
<path d="M9.72456 22.5581C9.48048 22.8021 9.48048 23.1979 9.72456 23.4419C9.96864 23.686 10.3644 23.686 10.6084 23.4419L9.72456 22.5581ZM16.3314 18.9319L15.9409 19.4199L16.3314 18.9319ZM18.0976 20.3449L17.7071 20.8329L18.0976 20.3449ZM20.3844 20.1507L19.9173 19.7355L20.3844 20.1507ZM26.467 14.2486C26.6963 13.9906 26.6731 13.5955 26.4151 13.3662C26.1571 13.1369 25.762 13.1601 25.5327 13.4181L26.467 14.2486ZM19.3065 21.0187L19.3593 21.6415H19.3593L19.3065 21.0187ZM15.1823 18.2846L15.2168 18.9086H15.2168L15.1823 18.2846ZM23.4998 12.375C23.1547 12.375 22.8748 12.6548 22.8748 13C22.8748 13.3452 23.1547 13.625 23.4998 13.625V12.375ZM26.2082 16.3333C26.2082 16.6785 26.488 16.9583 26.8332 16.9583C27.1783 16.9583 27.4582 16.6785 27.4582 16.3333H26.2082ZM26.5891 13.2441L27.031 12.8021V12.8021L26.5891 13.2441ZM12.6665 14.0417C12.3213 14.0417 12.0415 14.3215 12.0415 14.6667C12.0415 15.0118 12.3213 15.2917 12.6665 15.2917V14.0417ZM17.6665 15.2917C18.0117 15.2917 18.2915 15.0118 18.2915 14.6667C18.2915 14.3215 18.0117 14.0417 17.6665 14.0417V15.2917ZM10.1665 23L10.6084 23.4419L14.5536 19.4968L14.1117 19.0548L13.6697 18.6129L9.72456 22.5581L10.1665 23ZM16.3314 18.9319L15.9409 19.4199L17.7071 20.8329L18.0976 20.3449L18.488 19.8568L16.7218 18.4438L16.3314 18.9319ZM20.3844 20.1507L20.8515 20.5659L26.467 14.2486L25.9998 13.8333L25.5327 13.4181L19.9173 19.7355L20.3844 20.1507ZM18.0976 20.3449L17.7071 20.8329C17.9862 21.0562 18.2427 21.263 18.4737 21.4027C18.7202 21.5517 19.0106 21.6711 19.3593 21.6415L19.3065 21.0187L19.2536 20.396C19.2531 20.396 19.253 20.396 19.2533 20.396C19.2536 20.396 19.2537 20.396 19.2536 20.396C19.2535 20.396 19.25 20.3956 19.2419 20.3932C19.2239 20.3877 19.1864 20.3729 19.1205 20.333C18.9762 20.2458 18.7939 20.1015 18.488 19.8568L18.0976 20.3449ZM20.3844 20.1507L19.9173 19.7355C19.657 20.0283 19.5016 20.2011 19.3741 20.3115C19.3159 20.3619 19.2815 20.3828 19.2646 20.3912C19.257 20.395 19.2536 20.396 19.2536 20.396C19.2534 20.396 19.2536 20.396 19.2538 20.3959C19.2541 20.3959 19.2541 20.3959 19.2536 20.396L19.3065 21.0187L19.3593 21.6415C19.7081 21.6119 19.9742 21.4452 20.192 21.2568C20.3962 21.0801 20.6141 20.833 20.8515 20.5659L20.3844 20.1507ZM14.1117 19.0548L14.5536 19.4968C14.8162 19.2342 14.9719 19.0802 15.098 18.9827C15.1555 18.9383 15.189 18.9202 15.2054 18.9129C15.2128 18.9096 15.2163 18.9087 15.2165 18.9087C15.2166 18.9087 15.2163 18.9087 15.2168 18.9086L15.1823 18.2846L15.1477 17.6606C14.8139 17.6791 14.552 17.8249 14.3337 17.9936C14.1295 18.1514 13.9089 18.3737 13.6697 18.6129L14.1117 19.0548ZM16.3314 18.9319L16.7218 18.4438C16.4577 18.2326 16.2139 18.036 15.9935 17.9017C15.7579 17.7581 15.4815 17.6421 15.1477 17.6606L15.1823 18.2846L15.2168 18.9086C15.2174 18.9086 15.2171 18.9086 15.2172 18.9086C15.2174 18.9087 15.2209 18.9091 15.2287 18.9116C15.2458 18.917 15.2811 18.9314 15.3431 18.9692C15.4792 19.0521 15.6509 19.1879 15.9409 19.4199L16.3314 18.9319ZM23.4998 13V13.625H25.1665V13V12.375H23.4998V13ZM26.8332 14.6667H26.2082V16.3333H26.8332H27.4582V14.6667H26.8332ZM25.1665 13V13.625C25.577 13.625 25.822 13.6263 25.9976 13.6499C26.0781 13.6608 26.1184 13.6735 26.1365 13.681C26.1407 13.6827 26.1435 13.684 26.1451 13.6849C26.1467 13.6857 26.1474 13.6862 26.1475 13.6862C26.1475 13.6863 26.1473 13.6861 26.147 13.6859C26.1468 13.6857 26.1468 13.6856 26.1472 13.686L26.5891 13.2441L27.031 12.8021C26.7735 12.5446 26.4604 12.4509 26.1642 12.4111C25.8859 12.3737 25.5417 12.375 25.1665 12.375V13ZM26.8332 14.6667H27.4582C27.4582 14.2915 27.4595 13.9472 27.4221 13.669C27.3823 13.3728 27.2886 13.0597 27.031 12.8021L26.5891 13.2441L26.1472 13.686C26.1475 13.6864 26.1475 13.6864 26.1473 13.6861C26.147 13.6858 26.1469 13.6856 26.1469 13.6857C26.147 13.6858 26.1475 13.6865 26.1483 13.6881C26.1491 13.6897 26.1505 13.6924 26.1522 13.6966C26.1597 13.7148 26.1724 13.7551 26.1832 13.8356C26.2068 14.0112 26.2082 14.2562 26.2082 14.6667H26.8332ZM12.6665 14.6667V15.2917H17.6665V14.6667V14.0417H12.6665V14.6667Z" fill="white"/>
<defs>
<linearGradient id="paint0_linear_1167_17133" x1="0.5" y1="4" x2="36.5" y2="45.5" gradientUnits="userSpaceOnUse">
<stop stop-color="#A670FF"/>
<stop offset="1" stop-color="#502C8B"/>
</linearGradient>
</defs>
</svg>
