<svg width="49" height="48" viewBox="0 0 49 48" fill="none" xmlns="http://www.w3.org/2000/svg">
<rect x="1" y="0.5" width="47" height="47" rx="23.5" fill="#252525"/>
<rect x="1" y="0.5" width="47" height="47" rx="23.5" stroke="#353334"/>
<path d="M15 24C15 19.5217 15 17.2825 16.3912 15.8912C17.7825 14.5 20.0217 14.5 24.5 14.5C28.9783 14.5 31.2175 14.5 32.6088 15.8912C34 17.2825 34 19.5217 34 24C34 28.4783 34 30.7175 32.6088 32.1088C31.2175 33.5 28.9783 33.5 24.5 33.5C20.0217 33.5 17.7825 33.5 16.3912 32.1088C15 30.7175 15 28.4783 15 24Z" stroke="white" stroke-width="1.5" stroke-linejoin="round"/>
<path d="M22.5 27.5C22.5 28.3284 21.8284 29 21 29C20.1716 29 19.5 28.3284 19.5 27.5C19.5 26.6716 20.1716 26 21 26C21.8284 26 22.5 26.6716 22.5 27.5Z" stroke="white" stroke-width="1.5"/>
<path d="M29.5 20.5C29.5 19.6716 28.8284 19 28 19C27.1716 19 26.5 19.6716 26.5 20.5C26.5 21.3284 27.1716 22 28 22C28.8284 22 29.5 21.3284 29.5 20.5Z" stroke="white" stroke-width="1.5"/>
<path d="M21 26V19" stroke="white" stroke-width="1.5" stroke-linecap="round"/>
<path d="M28 22V29" stroke="white" stroke-width="1.5" stroke-linecap="round"/>
</svg>
