<svg width="28" height="28" viewBox="0 0 28 28" fill="none" xmlns="http://www.w3.org/2000/svg">
<rect width="28" height="28" rx="14" fill="#C5E9FD"/>
<path d="M17.3335 14.8335C17.3335 15.5238 17.8932 16.0835 18.5835 16.0835C19.2738 16.0835 19.8335 15.5238 19.8335 14.8335C19.8335 14.1432 19.2738 13.5835 18.5835 13.5835C17.8932 13.5835 17.3335 14.1432 17.3335 14.8335Z" stroke="#353334" stroke-width="1.25"/>
<path d="M13.1665 19.8333H17.3332C19.6902 19.8333 20.8687 19.8333 21.6009 19.1011C22.3332 18.3688 22.3332 17.1903 22.3332 14.8333V14C22.3332 11.643 22.3332 10.4645 21.6009 9.73223C21.0665 9.19782 20.2943 9.05344 18.9998 9.01443M18.9998 9.01443C18.5207 9 17.9699 9 17.3332 9H12.3332M18.9998 9.01443C18.9998 8.22431 18.9998 7.82925 18.8686 7.5184C18.6998 7.11842 18.3814 6.80012 17.9814 6.63124C17.6706 6.5 17.2755 6.5 16.4854 6.5H12.3332C9.19047 6.5 7.61913 6.5 6.64281 7.47631C5.6665 8.45262 5.6665 9.19063 5.6665 12.3333" stroke="#353334" stroke-width="1.25" stroke-linecap="round"/>
<path d="M6.604 20.25V15.25M8.1665 15.25V14M8.1665 21.5V20.25M6.604 17.75H9.729M9.729 17.75C10.2468 17.75 10.6665 18.1697 10.6665 18.6875V19.3125C10.6665 19.8302 10.2468 20.25 9.729 20.25H5.6665M9.729 17.75C10.2468 17.75 10.6665 17.3302 10.6665 16.8125V16.1875C10.6665 15.6697 10.2468 15.25 9.729 15.25H5.6665" stroke="#353334" stroke-width="1.25" stroke-linecap="round" stroke-linejoin="round"/>
</svg>
