<svg width="37" height="36" viewBox="0 0 37 36" fill="none" xmlns="http://www.w3.org/2000/svg">
<rect x="0.833008" width="36" height="36" rx="6" fill="url(#paint0_linear_1167_17143)"/>
<path d="M20.4995 9.83369C19.961 9.72438 19.4036 9.66699 18.8328 9.66699C14.2305 9.66699 10.4995 13.398 10.4995 18.0003C10.4995 22.6027 14.2305 26.3337 18.8328 26.3337C23.4352 26.3337 27.1662 22.6027 27.1662 18.0003C27.1662 17.4296 27.1088 16.8722 26.9995 16.3337" stroke="#FEFEFF" stroke-linecap="round"/>
<path d="M18.8332 15.5003C17.9127 15.5003 17.1665 16.06 17.1665 16.7503C17.1665 17.4407 17.9127 18.0003 18.8332 18.0003C19.7537 18.0003 20.4998 18.56 20.4998 19.2503C20.4998 19.9407 19.7537 20.5003 18.8332 20.5003M18.8332 15.5003C19.5588 15.5003 20.1762 15.8482 20.405 16.3337M18.8332 15.5003V14.667M18.8332 20.5003C18.1075 20.5003 17.4902 20.1525 17.2613 19.667M18.8332 20.5003V21.3337" stroke="#FEFEFF" stroke-linecap="round"/>
<path d="M22.998 13.8346L26.478 10.3528M27.1647 13.3998L27.0662 10.8236C27.0662 10.2164 26.7037 9.83807 26.0433 9.79035L23.4399 9.66797" stroke="#FEFEFF" stroke-linecap="round" stroke-linejoin="round"/>
<defs>
<linearGradient id="paint0_linear_1167_17143" x1="0.833008" y1="4" x2="36.833" y2="45.5" gradientUnits="userSpaceOnUse">
<stop stop-color="#FFF070"/>
<stop offset="1" stop-color="#A7AA00"/>
</linearGradient>
</defs>
</svg>
